SplineFontDB: 3.0
FontName: TheGirlNextDoor
FullName: The Girl Next Door
FamilyName: The Girl Next Door
Weight: Book
Copyright: Copyright (c) 2010, Kimberly Geswein (kimberlygeswein.com)
Version: 1.002 2010
ItalicAngle: 0
UnderlinePosition: -52
UnderlineWidth: 51
Ascent: 819
Descent: 205
sfntRevision: 0x00010083
LayerCount: 2
Layer: 0 1 "Back"  1
Layer: 1 1 "Fore"  0
XUID: [1021 288 713564382 16327701]
FSType: 0
OS2Version: 3
OS2_WeightWidthSlopeOnly: 0
OS2_UseTypoMetrics: 1
CreationTime: 1297251120
ModificationTime: 1303166533
PfmFamily: 17
TTFWeight: 400
TTFWidth: 5
LineGap: 0
VLineGap: 0
Panose: 2 0 0 0 0 0 0 0 0 0
OS2TypoAscent: 1139
OS2TypoAOffset: 0
OS2TypoDescent: -748
OS2TypoDOffset: 0
OS2TypoLinegap: 0
OS2WinAscent: 1139
OS2WinAOffset: 0
OS2WinDescent: 748
OS2WinDOffset: 0
HheadAscent: 1139
HheadAOffset: 0
HheadDescent: -748
HheadDOffset: 0
OS2SubXSize: 717
OS2SubYSize: 666
OS2SubXOff: 0
OS2SubYOff: 143
OS2SupXSize: 717
OS2SupYSize: 666
OS2SupXOff: 0
OS2SupYOff: 488
OS2StrikeYSize: 51
OS2StrikeYPos: 256
OS2Vendor: '    '
OS2CodePages: 00000093.00000000
OS2UnicodeRanges: a000002f.5000004a.00000000.00000000
MarkAttachClasses: 1
DEI: 91125
TtTable: prep
PUSHW_1
 511
SCANCTRL
PUSHB_1
 4
SCANTYPE
EndTTInstrs
ShortTable: maxp 16
  1
  0
  346
  160
  5
  165
  4
  1
  0
  0
  0
  0
  0
  0
  3
  1
EndShort

StartChar: exclam
Encoding: 33 33 4
Width: 156
Flags: W
LayerCount: 2
Fore
SplineSet
53 274 m 1,0,-1
 53 286 l 2,1,2
 53 295 53 295 52.5 304 c 128,-1,3
 52 313 52 313 52 322 c 2,4,-1
 52 334 l 2,5,6
 52 389 52 389 55 440 c 128,-1,7
 58 491 58 491 62 542 c 128,-1,8
 66 593 66 593 71.5 646.5 c 128,-1,9
 77 700 77 700 84 760 c 0,10,11
 85 760 85 760 87.5 760.5 c 128,-1,12
 90 761 90 761 91 761 c 0,13,14
 99 761 99 761 104 757.5 c 128,-1,15
 109 754 109 754 114 745 c 1,16,-1
 114 725 l 2,17,18
 114 712 114 712 114.5 696 c 128,-1,19
 115 680 115 680 115 666 c 2,20,-1
 115 621 l 2,21,22
 115 605 115 605 114.5 589.5 c 128,-1,23
 114 574 114 574 114 562 c 2,24,-1
 114 547 l 1,25,26
 113 537 113 537 112.5 514 c 128,-1,27
 112 491 112 491 110.5 462.5 c 128,-1,28
 109 434 109 434 107 402.5 c 128,-1,29
 105 371 105 371 103.5 342.5 c 128,-1,30
 102 314 102 314 100.5 291.5 c 128,-1,31
 99 269 99 269 98 259 c 0,32,33
 97 259 97 259 91 258.5 c 128,-1,34
 85 258 85 258 84 258 c 0,35,36
 73 258 73 258 65 259.5 c 128,-1,37
 57 261 57 261 53 274 c 1,0,-1
84 15 m 1,38,39
 86 22 86 22 92 26.5 c 128,-1,40
 98 31 98 31 105 32.5 c 128,-1,41
 112 34 112 34 119.5 34.5 c 128,-1,42
 127 35 127 35 133 35 c 1,43,44
 133 23 133 23 127 11 c 128,-1,45
 121 -1 121 -1 106 -1 c 0,46,47
 97 -1 97 -1 92.5 2.5 c 128,-1,48
 88 6 88 6 84 15 c 1,38,39
EndSplineSet
EndChar

StartChar: quotedbl
Encoding: 34 34 5
Width: 395
Flags: W
LayerCount: 2
Fore
SplineSet
281 393 m 1,0,1
 280 424 280 424 272 456 c 128,-1,2
 264 488 264 488 255.5 519 c 128,-1,3
 247 550 247 550 240.5 581 c 128,-1,4
 234 612 234 612 234 643 c 1,5,6
 258 643 258 643 274 630 c 128,-1,7
 290 617 290 617 300.5 597 c 128,-1,8
 311 577 311 577 316.5 552.5 c 128,-1,9
 322 528 322 528 324.5 503 c 128,-1,10
 327 478 327 478 327.5 456 c 128,-1,11
 328 434 328 434 328 421 c 0,12,13
 328 406 328 406 323.5 397 c 128,-1,14
 319 388 319 388 296 378 c 1,15,-1
 281 393 l 1,0,1
99 378 m 1,16,17
 97 409 97 409 91.5 440 c 128,-1,18
 86 471 86 471 80 502 c 128,-1,19
 74 533 74 533 69.5 564 c 128,-1,20
 65 595 65 595 65 626 c 1,21,22
 85 626 85 626 98.5 615 c 128,-1,23
 112 604 112 604 121 587.5 c 128,-1,24
 130 571 130 571 135 549 c 128,-1,25
 140 527 140 527 142.5 505.5 c 128,-1,26
 145 484 145 484 145.5 464 c 128,-1,27
 146 444 146 444 146 430 c 2,28,-1
 146 420 l 2,29,30
 146 412 146 412 145.5 403.5 c 128,-1,31
 145 395 145 395 145 388 c 128,-1,32
 145 381 145 381 145 378 c 1,33,34
 139 368 139 368 134.5 364.5 c 128,-1,35
 130 361 130 361 121 361 c 0,36,37
 113 361 113 361 108 364.5 c 128,-1,38
 103 368 103 368 99 378 c 1,16,17
EndSplineSet
EndChar

StartChar: numbersign
Encoding: 35 35 6
Width: 760
Flags: W
LayerCount: 2
Fore
SplineSet
289 244 m 1,0,1
 289 235 289 235 287 213.5 c 128,-1,2
 285 192 285 192 282.5 167.5 c 128,-1,3
 280 143 280 143 278 121.5 c 128,-1,4
 276 100 276 100 274 91 c 0,5,6
 267 52 267 52 228 52 c 1,7,-1
 228 251 l 1,8,-1
 31 251 l 1,9,-1
 7 286 l 1,10,-1
 244 319 l 1,11,-1
 244 322 l 2,12,13
 244 326 244 326 244 331 c 2,14,-1
 245 340 l 2,15,16
 246 346 246 346 246 349 c 0,17,18
 246 353 246 353 245.5 360 c 128,-1,19
 245 367 245 367 244.5 374.5 c 128,-1,20
 244 382 244 382 244 388 c 128,-1,21
 244 394 244 394 244 395 c 0,22,23
 243 401 243 401 237 409.5 c 128,-1,24
 231 418 231 418 228 418 c 2,25,-1
 61 418 l 1,26,27
 59 442 59 442 67.5 450 c 128,-1,28
 76 458 76 458 90.5 457.5 c 128,-1,29
 105 457 105 457 123.5 452.5 c 128,-1,30
 142 448 142 448 161 445.5 c 128,-1,31
 180 443 180 443 197 447.5 c 128,-1,32
 214 452 214 452 226.5 471 c 128,-1,33
 239 490 239 490 244 526 c 128,-1,34
 249 562 249 562 244 623 c 1,35,-1
 268 649 l 1,36,-1
 307 472 l 1,37,-1
 472 472 l 2,38,39
 481 472 481 472 484 483.5 c 128,-1,40
 487 495 487 495 488 512 c 128,-1,41
 489 529 489 529 489.5 548.5 c 128,-1,42
 490 568 490 568 494.5 583 c 128,-1,43
 499 598 499 598 509.5 606 c 128,-1,44
 520 614 520 614 540 608 c 1,45,-1
 540 448 l 1,46,-1
 730 448 l 1,47,-1
 730 403 l 1,48,-1
 547 403 l 2,49,50
 544 403 544 403 538.5 394 c 128,-1,51
 533 385 533 385 532 380 c 0,52,53
 532 379 532 379 532 373.5 c 128,-1,54
 532 368 532 368 531 361 c 2,55,-1
 530 348 l 2,56,57
 530 341 530 341 530 337 c 0,58,59
 530 321 530 321 539.5 309.5 c 128,-1,60
 549 298 549 298 564 291.5 c 128,-1,61
 579 285 579 285 598 282 c 128,-1,62
 617 279 617 279 636 277.5 c 128,-1,63
 655 276 655 276 671.5 275 c 128,-1,64
 688 274 688 274 700 274 c 1,65,-1
 700 235 l 1,66,-1
 532 235 l 1,67,-1
 530 227 l 2,68,69
 528 220 528 220 525.5 209.5 c 128,-1,70
 523 199 523 199 520.5 187 c 128,-1,71
 518 175 518 175 517 167 c 1,72,-1
 517 160 l 2,73,74
 517 123 517 123 529 84.5 c 128,-1,75
 541 46 541 46 563 15 c 1,76,77
 559 2 559 2 550.5 0.5 c 128,-1,78
 542 -1 542 -1 532 -1 c 0,79,80
 531 -1 531 -1 524.5 -0.5 c 128,-1,81
 518 0 518 0 517 0 c 0,82,83
 495 35 495 35 485 61.5 c 128,-1,84
 475 88 475 88 470.5 112.5 c 128,-1,85
 466 137 466 137 464 164 c 128,-1,86
 462 191 462 191 456 228 c 0,87,88
 455 231 455 231 449.5 237 c 128,-1,89
 444 243 444 243 441 244 c 2,90,-1
 304 259 l 1,91,-1
 289 244 l 1,0,1
302 357 m 256,92,93
 302 356 302 356 301.5 348 c 128,-1,94
 301 340 301 340 302 330 c 128,-1,95
 303 320 303 320 306.5 312 c 128,-1,96
 310 304 310 304 319 304 c 2,97,-1
 456 304 l 1,98,-1
 474 411 l 1,99,-1
 319 411 l 2,100,101
 310 411 310 411 306.5 402.5 c 128,-1,102
 303 394 303 394 302 384.5 c 128,-1,103
 301 375 301 375 301.5 366.5 c 128,-1,104
 302 358 302 358 302 357 c 256,92,93
EndSplineSet
EndChar

StartChar: dollar
Encoding: 36 36 7
Width: 577
Flags: W
LayerCount: 2
Fore
SplineSet
225 96 m 0,0,1
 225 116 225 116 214.5 129 c 128,-1,2
 204 142 204 142 187 151.5 c 128,-1,3
 170 161 170 161 149 168 c 128,-1,4
 128 175 128 175 108 183.5 c 128,-1,5
 88 192 88 192 70 203 c 128,-1,6
 52 214 52 214 41 230 c 0,7,8
 35 239 35 239 27 254 c 128,-1,9
 19 269 19 269 12 283.5 c 128,-1,10
 5 298 5 298 0 309 c 128,-1,11
 -5 320 -5 320 -4 321 c 2,12,-1
 11 337 l 1,13,14
 23 312 23 312 44.5 284.5 c 128,-1,15
 66 257 66 257 92.5 234.5 c 128,-1,16
 119 212 119 212 149 197.5 c 128,-1,17
 179 183 179 183 209 183 c 0,18,19
 226 183 226 183 236 192.5 c 128,-1,20
 246 202 246 202 251 216.5 c 128,-1,21
 256 231 256 231 257.5 249.5 c 128,-1,22
 259 268 259 268 259 287 c 128,-1,23
 259 306 259 306 257.5 323 c 128,-1,24
 256 340 256 340 256 352 c 2,25,-1
 256 361 l 2,26,27
 256 366 256 366 256 371 c 128,-1,28
 256 376 256 376 255 379 c 1,29,-1
 255 382 l 1,30,-1
 88 412 l 2,31,32
 73 415 73 415 66 423.5 c 128,-1,33
 59 432 59 432 56.5 443 c 128,-1,34
 54 454 54 454 54.5 466 c 128,-1,35
 55 478 55 478 55 487 c 0,36,37
 55 539 55 539 75.5 570 c 128,-1,38
 96 601 96 601 129.5 618 c 128,-1,39
 163 635 163 635 205.5 642 c 128,-1,40
 248 649 248 649 292 655 c 1,41,-1
 292 778 l 1,42,-1
 339 778 l 1,43,-1
 339 655 l 1,44,-1
 361 671 l 1,45,-1
 391 823 l 1,46,-1
 407 823 l 1,47,-1
 407 655 l 1,48,49
 419 652 419 652 432.5 644.5 c 128,-1,50
 446 637 446 637 457.5 627 c 128,-1,51
 469 617 469 617 477 605 c 128,-1,52
 485 593 485 593 485 580 c 0,53,54
 485 578 485 578 484.5 572 c 128,-1,55
 484 566 484 566 483 565 c 1,56,-1
 407 610 l 1,57,58
 401 589 401 589 398 571.5 c 128,-1,59
 395 554 395 554 393 538.5 c 128,-1,60
 391 523 391 523 391 506.5 c 128,-1,61
 391 490 391 490 391 471 c 0,62,63
 391 445 391 445 401.5 428.5 c 128,-1,64
 412 412 412 412 427 400.5 c 128,-1,65
 442 389 442 389 460 380.5 c 128,-1,66
 478 372 478 372 493.5 360 c 128,-1,67
 509 348 509 348 519.5 330 c 128,-1,68
 530 312 530 312 530 283 c 0,69,70
 530 253 530 253 520.5 233.5 c 128,-1,71
 511 214 511 214 496.5 201.5 c 128,-1,72
 482 189 482 189 465 180.5 c 128,-1,73
 448 172 448 172 432.5 163 c 128,-1,74
 417 154 417 154 405.5 141 c 128,-1,75
 394 128 394 128 391 108 c 2,76,-1
 361 -135 l 2,77,78
 359 -149 359 -149 354.5 -157.5 c 128,-1,79
 350 -166 350 -166 340 -166 c 0,80,81
 336 -166 336 -166 332 -165 c 128,-1,82
 328 -164 328 -164 324 -162.5 c 128,-1,83
 320 -161 320 -161 317.5 -158 c 128,-1,84
 315 -155 315 -155 316 -150 c 2,85,-1
 346 108 l 2,86,87
 346 111 346 111 343 114 c 128,-1,88
 340 117 340 117 335 119.5 c 128,-1,89
 330 122 330 122 324.5 123 c 128,-1,90
 319 124 319 124 316 124 c 0,91,92
 313 123 313 123 307.5 119 c 128,-1,93
 302 115 302 115 297 110 c 128,-1,94
 292 105 292 105 288.5 100 c 128,-1,95
 285 95 285 95 285 93 c 2,96,-1
 255 -165 l 2,97,98
 254 -173 254 -173 247.5 -177 c 128,-1,99
 241 -181 241 -181 232 -183 c 128,-1,100
 223 -185 223 -185 215.5 -185 c 128,-1,101
 208 -185 208 -185 205 -185 c 1,102,103
 205 -149 205 -149 208 -114 c 128,-1,104
 211 -79 211 -79 215 -44 c 128,-1,105
 219 -9 219 -9 222 26 c 128,-1,106
 225 61 225 61 225 96 c 0,0,1
102 480 m 0,107,108
 102 456 102 456 115 445 c 128,-1,109
 128 434 128 434 147.5 430 c 128,-1,110
 167 426 167 426 190 426.5 c 128,-1,111
 213 427 213 427 232 427 c 2,112,-1
 239 427 l 1,113,114
 241 428 241 428 245.5 430 c 128,-1,115
 250 432 250 432 254.5 434.5 c 128,-1,116
 259 437 259 437 263.5 439.5 c 128,-1,117
 268 442 268 442 269 443 c 0,118,119
 277 487 277 487 282 530.5 c 128,-1,120
 287 574 287 574 287 619 c 1,121,122
 253 619 253 619 220 611.5 c 128,-1,123
 187 604 187 604 160.5 587.5 c 128,-1,124
 134 571 134 571 118 544.5 c 128,-1,125
 102 518 102 518 102 480 c 0,107,108
391 196 m 1,126,127
 410 196 410 196 427 202 c 128,-1,128
 444 208 444 208 456.5 219 c 128,-1,129
 469 230 469 230 476.5 246 c 128,-1,130
 484 262 484 262 484 282 c 0,131,132
 484 352 484 352 415 352 c 0,133,134
 412 352 412 352 403 352 c 128,-1,135
 394 352 394 352 391 352 c 1,136,-1
 391 196 l 1,126,127
300 190 m 2,137,138
 300 181 300 181 306.5 174.5 c 128,-1,139
 313 168 313 168 323 168 c 0,140,141
 329 168 329 168 337.5 171.5 c 128,-1,142
 346 175 346 175 346 184 c 2,143,-1
 346 367 l 1,144,-1
 331 382 l 1,145,-1
 316 367 l 1,146,-1
 313 347 l 1,147,148
 312 328 312 328 309.5 301 c 128,-1,149
 307 274 307 274 304 246 c 128,-1,150
 301 218 301 218 300 199 c 1,151,-1
 300 190 l 2,137,138
346 610 m 1,152,153
 344 595 344 595 341 572.5 c 128,-1,154
 338 550 338 550 335.5 524.5 c 128,-1,155
 333 499 333 499 331 473.5 c 128,-1,156
 329 448 329 448 329 427 c 1,157,-1
 346 427 l 1,158,-1
 361 595 l 1,159,-1
 346 610 l 1,152,153
EndSplineSet
EndChar

StartChar: percent
Encoding: 37 37 8
Width: 571
Flags: W
LayerCount: 2
Fore
SplineSet
174 82 m 0,0,1
 174 101 174 101 180.5 138 c 128,-1,2
 187 175 187 175 197.5 223 c 128,-1,3
 208 271 208 271 223.5 326.5 c 128,-1,4
 239 382 239 382 257 437.5 c 128,-1,5
 275 493 275 493 295.5 543.5 c 128,-1,6
 316 594 316 594 336.5 633 c 128,-1,7
 357 672 357 672 378 695 c 128,-1,8
 399 718 399 718 418 718 c 1,9,-1
 418 669 l 1,10,11
 373 589 373 589 337 508 c 128,-1,12
 301 427 301 427 275 343.5 c 128,-1,13
 249 260 249 260 235 173.5 c 128,-1,14
 221 87 221 87 221 -5 c 1,15,16
 206 -5 206 -5 197 4.5 c 128,-1,17
 188 14 188 14 183 27.5 c 128,-1,18
 178 41 178 41 176 56 c 128,-1,19
 174 71 174 71 174 82 c 0,0,1
23 623 m 0,20,21
 23 645 23 645 35 664.5 c 128,-1,22
 47 684 47 684 65 699 c 128,-1,23
 83 714 83 714 104.5 723 c 128,-1,24
 126 732 126 732 145 732 c 0,25,26
 166 732 166 732 178.5 726.5 c 128,-1,27
 191 721 191 721 198 710 c 128,-1,28
 205 699 205 699 207.5 684 c 128,-1,29
 210 669 210 669 210 651 c 0,30,31
 210 625 210 625 201 610 c 128,-1,32
 192 595 192 595 177 587.5 c 128,-1,33
 162 580 162 580 142 578 c 128,-1,34
 122 576 122 576 100 576 c 0,35,36
 89 576 89 576 75.5 576.5 c 128,-1,37
 62 577 62 577 50.5 581.5 c 128,-1,38
 39 586 39 586 31 596 c 128,-1,39
 23 606 23 606 23 623 c 0,20,21
403 189 m 256,40,41
 403 203 403 203 402 221 c 128,-1,42
 401 239 401 239 403.5 254.5 c 128,-1,43
 406 270 406 270 415.5 280.5 c 128,-1,44
 425 291 425 291 445 291 c 0,45,46
 459 291 459 291 478 288 c 128,-1,47
 497 285 497 285 514 278 c 128,-1,48
 531 271 531 271 543 258.5 c 128,-1,49
 555 246 555 246 555 228 c 0,50,51
 555 206 555 206 543.5 189 c 128,-1,52
 532 172 532 172 515.5 160 c 128,-1,53
 499 148 499 148 479 142 c 128,-1,54
 459 136 459 136 441 136 c 0,55,56
 426 136 426 136 418.5 139 c 128,-1,57
 411 142 411 142 407 148.5 c 128,-1,58
 403 155 403 155 403 165 c 128,-1,59
 403 175 403 175 403 189 c 256,40,41
68 639 m 1,60,61
 70 637 70 637 74 632.5 c 128,-1,62
 78 628 78 628 83 623 c 128,-1,63
 88 618 88 618 92.5 614 c 128,-1,64
 97 610 97 610 99 608 c 0,65,66
 100 607 100 607 102 607 c 2,67,-1
 106 607 l 2,68,69
 115 607 115 607 125.5 611 c 128,-1,70
 136 615 136 615 143.5 621 c 128,-1,71
 151 627 151 627 156 635.5 c 128,-1,72
 161 644 161 644 161 653 c 0,73,74
 161 685 161 685 129 685 c 0,75,76
 106 685 106 685 94.5 674 c 128,-1,77
 83 663 83 663 68 639 c 1,60,61
471 260 m 0,78,79
 461 260 461 260 456 252 c 128,-1,80
 451 244 451 244 449.5 232.5 c 128,-1,81
 448 221 448 221 448 209 c 2,82,-1
 448 190 l 2,83,84
 448 187 448 187 448 178 c 128,-1,85
 448 169 448 169 448 167 c 1,86,87
 454 169 454 169 465.5 175 c 128,-1,88
 477 181 477 181 488 189.5 c 128,-1,89
 499 198 499 198 505.5 207.5 c 128,-1,90
 512 217 512 217 510 228 c 0,91,92
 510 229 510 229 506 233.5 c 128,-1,93
 502 238 502 238 497.5 242.5 c 128,-1,94
 493 247 493 247 487.5 251.5 c 128,-1,95
 482 256 482 256 479 259 c 0,96,97
 478 259 478 259 475 259.5 c 128,-1,98
 472 260 472 260 471 260 c 0,78,79
EndSplineSet
EndChar

StartChar: ampersand
Encoding: 38 38 9
Width: 577
Flags: W
LayerCount: 2
Fore
SplineSet
13 265 m 0,0,1
 13 286 13 286 25 301.5 c 128,-1,2
 37 317 37 317 52.5 331 c 128,-1,3
 68 345 68 345 80.5 358.5 c 128,-1,4
 93 372 93 372 93 388 c 0,5,6
 93 400 93 400 87.5 406.5 c 128,-1,7
 82 413 82 413 74.5 416.5 c 128,-1,8
 67 420 67 420 58 422.5 c 128,-1,9
 49 425 49 425 42.5 430.5 c 128,-1,10
 36 436 36 436 32 445 c 128,-1,11
 28 454 28 454 31 472 c 0,12,13
 36 510 36 510 60.5 531.5 c 128,-1,14
 85 553 85 553 118 563.5 c 128,-1,15
 151 574 151 574 187 576.5 c 128,-1,16
 223 579 223 579 251 579 c 2,17,-1
 268 579 l 2,18,19
 280 579 280 579 293.5 578.5 c 128,-1,20
 307 578 307 578 318.5 577.5 c 128,-1,21
 330 577 330 577 334 577 c 0,22,23
 342 577 342 577 350 572.5 c 128,-1,24
 358 568 358 568 365 562 c 128,-1,25
 372 556 372 556 376 548.5 c 128,-1,26
 380 541 380 541 380 532 c 0,27,28
 380 529 380 529 374 523 c 128,-1,29
 368 517 368 517 364 517 c 1,30,31
 355 532 355 532 340.5 539 c 128,-1,32
 326 546 326 546 309.5 548 c 128,-1,33
 293 550 293 550 276 549.5 c 128,-1,34
 259 549 259 549 244 549 c 0,35,36
 221 549 221 549 191.5 548 c 128,-1,37
 162 547 162 547 136 539.5 c 128,-1,38
 110 532 110 532 92.5 514.5 c 128,-1,39
 75 497 75 497 75 463 c 0,40,41
 75 454 75 454 78.5 445 c 128,-1,42
 82 436 82 436 88 428.5 c 128,-1,43
 94 421 94 421 103 416 c 128,-1,44
 112 411 112 411 122 411 c 2,45,-1
 289 411 l 1,46,-1
 319 395 l 1,47,-1
 304 380 l 1,48,49
 286 379 286 379 261.5 377.5 c 128,-1,50
 237 376 237 376 209.5 372.5 c 128,-1,51
 182 369 182 369 155.5 361.5 c 128,-1,52
 129 354 129 354 107.5 340.5 c 128,-1,53
 86 327 86 327 73 307 c 128,-1,54
 60 287 60 287 60 258 c 0,55,56
 60 242 60 242 69 233 c 128,-1,57
 78 224 78 224 92 219 c 128,-1,58
 106 214 106 214 124 212.5 c 128,-1,59
 142 211 142 211 158.5 211 c 128,-1,60
 175 211 175 211 188.5 211.5 c 128,-1,61
 202 212 202 212 209 212 c 0,62,63
 245 212 245 212 273.5 212.5 c 128,-1,64
 302 213 302 213 330 214.5 c 128,-1,65
 358 216 358 216 388 219 c 128,-1,66
 418 222 418 222 456 228 c 0,67,68
 472 230 472 230 486 238 c 128,-1,69
 500 246 500 246 513.5 255 c 128,-1,70
 527 264 527 264 540.5 270.5 c 128,-1,71
 554 277 554 277 568 277 c 1,72,73
 568 247 568 247 546 228.5 c 128,-1,74
 524 210 524 210 489.5 199.5 c 128,-1,75
 455 189 455 189 412.5 185 c 128,-1,76
 370 181 370 181 329.5 180.5 c 128,-1,77
 289 180 289 180 253.5 181 c 128,-1,78
 218 182 218 182 198 182 c 2,79,-1
 177 182 l 2,80,81
 162 182 162 182 144.5 182.5 c 128,-1,82
 127 183 127 183 112 183 c 2,83,-1
 91 183 l 1,84,85
 77 186 77 186 63 194 c 128,-1,86
 49 202 49 202 38 212.5 c 128,-1,87
 27 223 27 223 20 236.5 c 128,-1,88
 13 250 13 250 13 265 c 0,0,1
194 673 m 1,89,90
 199 673 199 673 206.5 673 c 128,-1,91
 214 673 214 673 221.5 671 c 128,-1,92
 229 669 229 669 235 665 c 128,-1,93
 241 661 241 661 244 653 c 1,94,95
 238 645 238 645 233.5 641.5 c 128,-1,96
 229 638 229 638 220 638 c 0,97,98
 206 638 206 638 200 649.5 c 128,-1,99
 194 661 194 661 194 673 c 1,89,90
228 45 m 1,100,101
 229 45 229 45 231.5 45.5 c 128,-1,102
 234 46 234 46 235 46 c 0,103,104
 246 46 246 46 253 39 c 128,-1,105
 260 32 260 32 260 22 c 0,106,107
 260 10 260 10 251 5.5 c 128,-1,108
 242 1 242 1 228 0 c 1,109,-1
 228 45 l 1,100,101
EndSplineSet
EndChar

StartChar: quotesingle
Encoding: 39 39 10
Width: 193
Flags: W
LayerCount: 2
Fore
SplineSet
61 805 m 1,0,1
 62 805 62 805 64.5 805.5 c 128,-1,2
 67 806 67 806 69 806 c 0,3,4
 93 806 93 806 104 792 c 128,-1,5
 115 778 115 778 119.5 757.5 c 128,-1,6
 124 737 124 737 123.5 715 c 128,-1,7
 123 693 123 693 123 677 c 2,8,-1
 123 663 l 2,9,10
 123 655 123 655 122.5 646.5 c 128,-1,11
 122 638 122 638 122 631 c 2,12,-1
 122 623 l 1,13,14
 121 613 121 613 119 597.5 c 128,-1,15
 117 582 117 582 114.5 567.5 c 128,-1,16
 112 553 112 553 109.5 542.5 c 128,-1,17
 107 532 107 532 106 532 c 2,18,-1
 61 532 l 1,19,-1
 61 805 l 1,0,1
EndSplineSet
EndChar

StartChar: parenleft
Encoding: 40 40 11
Width: 274
Flags: W
LayerCount: 2
Fore
SplineSet
14 309 m 0,0,1
 14 337 14 337 22.5 380 c 128,-1,2
 31 423 31 423 46 471.5 c 128,-1,3
 61 520 61 520 82 569.5 c 128,-1,4
 103 619 103 619 129 658 c 128,-1,5
 155 697 155 697 185 722 c 128,-1,6
 215 747 215 747 249 747 c 1,7,8
 249 733 249 733 239 719.5 c 128,-1,9
 229 706 229 706 215 692.5 c 128,-1,10
 201 679 201 679 187.5 665.5 c 128,-1,11
 174 652 174 652 167 639 c 0,12,13
 148 598 148 598 130.5 559.5 c 128,-1,14
 113 521 113 521 100.5 481.5 c 128,-1,15
 88 442 88 442 81 401.5 c 128,-1,16
 74 361 74 361 74 316 c 0,17,18
 74 274 74 274 78 243.5 c 128,-1,19
 82 213 82 213 91 185 c 128,-1,20
 100 157 100 157 115 127.5 c 128,-1,21
 130 98 130 98 152 61 c 0,22,23
 153 59 153 59 157.5 55 c 128,-1,24
 162 51 162 51 167.5 45.5 c 128,-1,25
 173 40 173 40 177.5 36 c 128,-1,26
 182 32 182 32 183 31 c 256,27,28
 184 30 184 30 184 27.5 c 128,-1,29
 184 25 184 25 184 23 c 0,30,31
 184 16 184 16 180 11.5 c 128,-1,32
 176 7 176 7 170 4 c 128,-1,33
 164 1 164 1 157 0 c 128,-1,34
 150 -1 150 -1 145 -1 c 0,35,36
 128 -1 128 -1 112 20.5 c 128,-1,37
 96 42 96 42 81.5 74.5 c 128,-1,38
 67 107 67 107 54.5 146 c 128,-1,39
 42 185 42 185 33 219 c 128,-1,40
 24 253 24 253 19 278.5 c 128,-1,41
 14 304 14 304 14 309 c 0,0,1
EndSplineSet
EndChar

StartChar: parenright
Encoding: 41 41 12
Width: 244
Flags: W
LayerCount: 2
Fore
SplineSet
13 23 m 0,0,1
 13 25 13 25 13.5 27.5 c 128,-1,2
 14 30 14 30 15 31 c 0,3,4
 58 65 58 65 88 104.5 c 128,-1,5
 118 144 118 144 136 188 c 128,-1,6
 154 232 154 232 161.5 281 c 128,-1,7
 169 330 169 330 169 383 c 0,8,9
 169 427 169 427 163.5 471 c 128,-1,10
 158 515 158 515 144 556.5 c 128,-1,11
 130 598 130 598 106 634 c 128,-1,12
 82 670 82 670 46 700 c 1,13,14
 46 700 46 700 49 700 c 128,-1,15
 52 700 52 700 54 700 c 0,16,17
 86 700 86 700 111 681 c 128,-1,18
 136 662 136 662 153.5 631.5 c 128,-1,19
 171 601 171 601 183 563.5 c 128,-1,20
 195 526 195 526 201.5 488.5 c 128,-1,21
 208 451 208 451 211 418.5 c 128,-1,22
 214 386 214 386 214 366 c 0,23,24
 214 341 214 341 211 307.5 c 128,-1,25
 208 274 208 274 200.5 236.5 c 128,-1,26
 193 199 193 199 181 160.5 c 128,-1,27
 169 122 169 122 152 90 c 128,-1,28
 135 58 135 58 112.5 34 c 128,-1,29
 90 10 90 10 61 0 c 0,30,31
 59 -1 59 -1 53 0.5 c 128,-1,32
 47 2 47 2 39.5 4.5 c 128,-1,33
 32 7 32 7 25.5 10 c 128,-1,34
 19 13 19 13 15 15 c 0,35,36
 14 15 14 15 13.5 18.5 c 128,-1,37
 13 22 13 22 13 23 c 0,0,1
EndSplineSet
EndChar

StartChar: asterisk
Encoding: 42 42 13
Width: 640
Flags: W
LayerCount: 2
Fore
SplineSet
355 170 m 2,0,1
 355 158 355 158 345 151.5 c 128,-1,2
 335 145 335 145 323 146.5 c 128,-1,3
 311 148 311 148 301 157 c 128,-1,4
 291 166 291 166 291 184 c 2,5,-1
 291 397 l 1,6,-1
 106 266 l 2,7,8
 97 259 97 259 86 264 c 128,-1,9
 75 269 75 269 69 279.5 c 128,-1,10
 63 290 63 290 64.5 303.5 c 128,-1,11
 66 317 66 317 81 328 c 2,12,-1
 232 434 l 1,13,-1
 109 434 l 1,14,15
 110 440 110 440 112 445 c 256,16,17
 114 450 114 450 117 454.5 c 128,-1,18
 120 459 120 459 125 463 c 0,19,20
 147 477 147 477 168.5 479 c 128,-1,21
 190 481 190 481 209.5 480 c 128,-1,22
 229 479 229 479 245 479 c 128,-1,23
 261 479 261 479 272 489 c 1,24,-1
 179 620 l 1,25,26
 184 622 184 622 190 624 c 0,27,28
 196 625 196 625 201 625 c 128,-1,29
 206 625 206 625 212 623 c 0,30,31
 229 616 229 616 241 605.5 c 128,-1,32
 253 595 253 595 261.5 583.5 c 128,-1,33
 270 572 270 572 277 560.5 c 128,-1,34
 284 549 284 549 291 540 c 1,35,36
 292 550 292 550 292 571 c 128,-1,37
 292 592 292 592 292 614.5 c 128,-1,38
 292 637 292 637 292 657 c 128,-1,39
 292 677 292 677 291 685 c 1,40,41
 292 697 292 697 301.5 700 c 128,-1,42
 311 703 311 703 322.5 701.5 c 128,-1,43
 334 700 334 700 344 696 c 128,-1,44
 354 692 354 692 355 690 c 1,45,-1
 355 524 l 1,46,47
 358 526 358 526 361.5 527.5 c 128,-1,48
 365 529 365 529 369 531 c 0,49,50
 376 535 376 535 393.5 547 c 128,-1,51
 411 559 411 559 430 572.5 c 128,-1,52
 449 586 449 586 466 598.5 c 128,-1,53
 483 611 483 611 490 617 c 1,54,55
 499 622 499 622 507 616 c 128,-1,56
 515 610 515 610 520.5 599.5 c 128,-1,57
 526 589 526 589 529 579 c 128,-1,58
 532 569 532 569 531 567 c 1,59,-1
 429 495 l 1,60,-1
 627 495 l 1,61,-1
 649 467 l 1,62,63
 639 459 639 459 620 455 c 128,-1,64
 601 451 601 451 576 449 c 128,-1,65
 551 447 551 447 523 447.5 c 128,-1,66
 495 448 495 448 468.5 448 c 128,-1,67
 442 448 442 448 418 448 c 128,-1,68
 394 448 394 448 379 445 c 1,69,-1
 529 232 l 1,70,-1
 519 199 l 1,71,72
 502 203 502 203 480.5 226.5 c 128,-1,73
 459 250 459 250 437 280 c 128,-1,74
 415 310 415 310 394 341.5 c 128,-1,75
 373 373 373 373 355 394 c 1,76,-1
 355 170 l 2,0,1
EndSplineSet
EndChar

StartChar: plus
Encoding: 43 43 14
Width: 380
Flags: W
LayerCount: 2
Fore
SplineSet
4 235 m 1,0,1
 5 240 5 240 7 244 c 0,2,3
 10 254 10 254 15 259 c 1,4,5
 27 268 27 268 39.5 271 c 128,-1,6
 52 274 52 274 63 273.5 c 128,-1,7
 74 273 74 273 84 272 c 128,-1,8
 94 271 94 271 102 274 c 128,-1,9
 110 277 110 277 115 287.5 c 128,-1,10
 120 298 120 298 122 319 c 0,11,12
 123 326 123 326 123 343 c 2,13,-1
 123 417 l 2,14,15
 123 434 123 434 122 441 c 1,16,17
 127 451 127 451 131.5 454 c 128,-1,18
 136 457 136 457 145 457 c 0,19,20
 146 457 146 457 148.5 456.5 c 128,-1,21
 151 456 151 456 152 456 c 0,22,23
 157 454 157 454 166 448 c 128,-1,24
 175 442 175 442 175 441 c 2,25,-1
 175 281 l 1,26,-1
 350 281 l 1,27,-1
 364 259 l 1,28,29
 357 250 357 250 339.5 247 c 128,-1,30
 322 244 322 244 301 243 c 128,-1,31
 280 242 280 242 257.5 243 c 128,-1,32
 235 244 235 244 217 243 c 128,-1,33
 199 242 199 242 187 239 c 128,-1,34
 175 236 175 236 175 228 c 2,35,-1
 175 15 l 2,36,37
 175 11 175 11 171.5 8 c 128,-1,38
 168 5 168 5 163 3 c 128,-1,39
 158 1 158 1 152.5 0 c 128,-1,40
 147 -1 147 -1 143 -1 c 0,41,42
 122 -1 122 -1 122 31 c 2,43,-1
 122 235 l 1,44,-1
 4 235 l 1,0,1
EndSplineSet
EndChar

StartChar: comma
Encoding: 44 44 15
Width: 190
Flags: W
LayerCount: 2
Fore
SplineSet
1 -169 m 1,0,1
 31 -149 31 -149 49.5 -129 c 128,-1,2
 68 -109 68 -109 78 -86.5 c 128,-1,3
 88 -64 88 -64 91 -38 c 128,-1,4
 94 -12 94 -12 94 21 c 0,5,6
 94 39 94 39 91 55.5 c 128,-1,7
 88 72 88 72 84.5 88.5 c 128,-1,8
 81 105 81 105 78.5 121.5 c 128,-1,9
 76 138 76 138 76 155 c 1,10,11
 103 155 103 155 118 139 c 128,-1,12
 133 123 133 123 141 100 c 128,-1,13
 149 77 149 77 151.5 51 c 128,-1,14
 154 25 154 25 154 6 c 0,15,16
 154 -14 154 -14 148 -37.5 c 128,-1,17
 142 -61 142 -61 132 -83 c 128,-1,18
 122 -105 122 -105 108 -124 c 128,-1,19
 94 -143 94 -143 77 -154 c 0,20,21
 71 -158 71 -158 61 -163.5 c 128,-1,22
 51 -169 51 -169 41.5 -174 c 128,-1,23
 32 -179 32 -179 25 -182 c 128,-1,24
 18 -185 18 -185 17 -185 c 2,25,-1
 1 -169 l 1,0,1
EndSplineSet
EndChar

StartChar: hyphen
Encoding: 45 45 16
Width: 395
Flags: W
LayerCount: 2
Fore
SplineSet
57 259 m 1,0,-1
 361 259 l 2,1,2
 370 259 370 259 373.5 251.5 c 128,-1,3
 377 244 377 244 377 237 c 0,4,5
 377 228 377 228 370.5 221 c 128,-1,6
 364 214 364 214 355 214 c 2,7,-1
 346 214 l 1,8,9
 325 215 325 215 297 217 c 128,-1,10
 269 219 269 219 238.5 220.5 c 128,-1,11
 208 222 208 222 178 223.5 c 128,-1,12
 148 225 148 225 124.5 226.5 c 128,-1,13
 101 228 101 228 86 229 c 1,14,-1
 72 229 l 1,15,-1
 41 245 l 1,16,-1
 57 259 l 1,0,-1
EndSplineSet
EndChar

StartChar: period
Encoding: 46 46 17
Width: 99
Flags: W
LayerCount: 2
Fore
SplineSet
15 15 m 0,0,1
 14 26 14 26 19 33.5 c 128,-1,2
 24 41 24 41 31.5 46 c 128,-1,3
 39 51 39 51 48 53 c 128,-1,4
 57 55 57 55 65 55 c 1,5,-1
 65 46 l 2,6,7
 65 37 65 37 63 27 c 128,-1,8
 61 17 61 17 57 8.5 c 128,-1,9
 53 0 53 0 46 0 c 0,10,11
 43 0 43 0 39 2 c 128,-1,12
 35 4 35 4 30 6 c 128,-1,13
 25 8 25 8 20.5 10.5 c 128,-1,14
 16 13 16 13 15 15 c 0,0,1
EndSplineSet
EndChar

StartChar: slash
Encoding: 47 47 18
Width: 433
Flags: W
LayerCount: 2
Fore
SplineSet
7 23 m 0,0,1
 7 25 7 25 7 27.5 c 128,-1,2
 7 30 7 30 7 31 c 0,3,4
 20 47 20 47 46.5 82.5 c 128,-1,5
 73 118 73 118 106 163 c 128,-1,6
 139 208 139 208 175 257.5 c 128,-1,7
 211 307 211 307 244 352.5 c 128,-1,8
 277 398 277 398 303.5 433.5 c 128,-1,9
 330 469 330 469 343 487 c 0,10,11
 346 491 346 491 352 501.5 c 128,-1,12
 358 512 358 512 365.5 524 c 128,-1,13
 373 536 373 536 379 547.5 c 128,-1,14
 385 559 385 559 388 563 c 1,15,-1
 418 563 l 1,16,17
 408 520 408 520 385 473.5 c 128,-1,18
 362 427 362 427 331.5 379 c 128,-1,19
 301 331 301 331 265 283 c 128,-1,20
 229 235 229 235 191.5 188.5 c 128,-1,21
 154 142 154 142 118.5 98.5 c 128,-1,22
 83 55 83 55 53 15 c 0,23,24
 46 6 46 6 43 2.5 c 128,-1,25
 40 -1 40 -1 31 -1 c 0,26,27
 21 -1 21 -1 14 6 c 128,-1,28
 7 13 7 13 7 23 c 0,0,1
EndSplineSet
EndChar

StartChar: zero
Encoding: 48 48 19
Width: 473
Flags: W
LayerCount: 2
Fore
SplineSet
28 205 m 0,0,1
 28 224 28 224 29.5 252 c 128,-1,2
 31 280 31 280 34.5 311.5 c 128,-1,3
 38 343 38 343 45 375.5 c 128,-1,4
 52 408 52 408 64 437 c 128,-1,5
 76 466 76 466 92.5 489.5 c 128,-1,6
 109 513 109 513 133 526 c 0,7,8
 149 535 149 535 173.5 545 c 128,-1,9
 198 555 198 555 226.5 556 c 128,-1,10
 255 557 255 557 284.5 543.5 c 128,-1,11
 314 530 314 530 340 491 c 1,12,13
 339 491 339 491 332 490.5 c 128,-1,14
 325 490 325 490 324 490 c 0,15,16
 310 490 310 490 299.5 496 c 128,-1,17
 289 502 289 502 277.5 509 c 128,-1,18
 266 516 266 516 254 521.5 c 128,-1,19
 242 527 242 527 227 527 c 1,20,21
 191 518 191 518 166.5 499.5 c 128,-1,22
 142 481 142 481 125.5 456.5 c 128,-1,23
 109 432 109 432 99.5 403.5 c 128,-1,24
 90 375 90 375 85.5 346 c 128,-1,25
 81 317 81 317 80 289.5 c 128,-1,26
 79 262 79 262 79 241 c 2,27,-1
 79 220 l 2,28,29
 79 206 79 206 79 189.5 c 128,-1,30
 79 173 79 173 79.5 159 c 128,-1,31
 80 145 80 145 81 139 c 1,32,33
 93 111 93 111 107 89 c 128,-1,34
 121 67 121 67 140.5 52 c 128,-1,35
 160 37 160 37 185 29 c 128,-1,36
 210 21 210 21 244 21 c 0,37,38
 294 21 294 21 326.5 40.5 c 128,-1,39
 359 60 359 60 378 92 c 128,-1,40
 397 124 397 124 404.5 165 c 128,-1,41
 412 206 412 206 412 249 c 0,42,43
 412 278 412 278 403.5 304.5 c 128,-1,44
 395 331 395 331 384.5 356.5 c 128,-1,45
 374 382 374 382 365.5 406.5 c 128,-1,46
 357 431 357 431 357 457 c 0,47,48
 357 460 357 460 357.5 466.5 c 128,-1,49
 358 473 358 473 358 475 c 1,50,51
 383 456 383 456 400 429.5 c 128,-1,52
 417 403 417 403 427 373.5 c 128,-1,53
 437 344 437 344 441.5 312.5 c 128,-1,54
 446 281 446 281 446 252 c 0,55,56
 446 197 446 197 435 149 c 128,-1,57
 424 101 424 101 399 65.5 c 128,-1,58
 374 30 374 30 332 9.5 c 128,-1,59
 290 -11 290 -11 227 -11 c 0,60,61
 183 -11 183 -11 146 7.5 c 128,-1,62
 109 26 109 26 83 56.5 c 128,-1,63
 57 87 57 87 42.5 126 c 128,-1,64
 28 165 28 165 28 205 c 0,0,1
EndSplineSet
EndChar

StartChar: one
Encoding: 49 49 20
Width: 121
Flags: W
LayerCount: 2
Fore
SplineSet
61 31 m 0,0,1
 59 45 59 45 57 80 c 128,-1,2
 55 115 55 115 53.5 160 c 128,-1,3
 52 205 52 205 50.5 255 c 128,-1,4
 49 305 49 305 47.5 350.5 c 128,-1,5
 46 396 46 396 44.5 431 c 128,-1,6
 43 466 43 466 41 480 c 1,7,-1
 41 486 l 2,8,9
 41 491 41 491 40.5 497.5 c 128,-1,10
 40 504 40 504 40 510 c 2,11,-1
 40 520 l 2,12,13
 40 523 40 523 39.5 531.5 c 128,-1,14
 39 540 39 540 40 548 c 128,-1,15
 41 556 41 556 44.5 562.5 c 128,-1,16
 48 569 48 569 57 571 c 1,17,18
 58 568 58 568 60.5 562 c 128,-1,19
 63 556 63 556 65 548.5 c 128,-1,20
 67 541 67 541 69 534.5 c 128,-1,21
 71 528 71 528 72 525 c 0,22,23
 82 468 82 468 87 399.5 c 128,-1,24
 92 331 92 331 94.5 260.5 c 128,-1,25
 97 190 97 190 97.5 121 c 128,-1,26
 98 52 98 52 98 -6 c 1,27,28
 65 -6 65 -6 61 31 c 0,0,1
EndSplineSet
EndChar

StartChar: two
Encoding: 50 50 21
Width: 555
Flags: W
LayerCount: 2
Fore
SplineSet
220 73 m 0,0,1
 204 73 204 73 190 64.5 c 128,-1,2
 176 56 176 56 161.5 45 c 128,-1,3
 147 34 147 34 130 25.5 c 128,-1,4
 113 17 113 17 91 17 c 2,5,-1
 80 17 l 2,6,7
 73 17 73 17 64.5 17.5 c 128,-1,8
 56 18 56 18 48.5 18.5 c 128,-1,9
 41 19 41 19 38 19 c 1,10,11
 33 26 33 26 30 32 c 128,-1,12
 27 38 27 38 25 44 c 128,-1,13
 23 50 23 50 22.5 57 c 128,-1,14
 22 64 22 64 22 72 c 0,15,16
 22 101 22 101 33 120 c 128,-1,17
 44 139 44 139 61.5 149.5 c 128,-1,18
 79 160 79 160 100.5 164.5 c 128,-1,19
 122 169 122 169 144 169.5 c 128,-1,20
 166 170 166 170 186 167.5 c 128,-1,21
 206 165 206 165 220 163 c 1,22,23
 264 210 264 210 281 273.5 c 128,-1,24
 298 337 298 337 298 404 c 0,25,26
 298 428 298 428 296.5 456 c 128,-1,27
 295 484 295 484 287.5 507.5 c 128,-1,28
 280 531 280 531 265 546.5 c 128,-1,29
 250 562 250 562 223 562 c 0,30,31
 190 562 190 562 160 551.5 c 128,-1,32
 130 541 130 541 105.5 520.5 c 128,-1,33
 81 500 81 500 63.5 469.5 c 128,-1,34
 46 439 46 439 38 397 c 1,35,-1
 38 404 l 2,36,37
 38 409 38 409 37.5 415 c 128,-1,38
 37 421 37 421 37 426 c 2,39,-1
 37 433 l 2,40,41
 37 447 37 447 37.5 458 c 128,-1,42
 38 469 38 469 39.5 479 c 128,-1,43
 41 489 41 489 44.5 500 c 128,-1,44
 48 511 48 511 54 523 c 1,45,46
 80 546 80 546 98.5 560.5 c 128,-1,47
 117 575 117 575 134 583.5 c 128,-1,48
 151 592 151 592 168.5 595 c 128,-1,49
 186 598 186 598 211 598 c 0,50,51
 247 598 247 598 272.5 580.5 c 128,-1,52
 298 563 298 563 314 534 c 128,-1,53
 330 505 330 505 337 468 c 128,-1,54
 344 431 344 431 344 392 c 2,55,-1
 344 379 l 2,56,57
 344 371 344 371 343.5 363 c 128,-1,58
 343 355 343 355 343 349.5 c 128,-1,59
 343 344 343 344 343 343 c 0,60,61
 340 331 340 331 329.5 302.5 c 128,-1,62
 319 274 319 274 307 242.5 c 128,-1,63
 295 211 295 211 283.5 183 c 128,-1,64
 272 155 272 155 266 145 c 1,65,66
 266 143 266 143 265.5 139.5 c 128,-1,67
 265 136 265 136 265 136 c 1,68,69
 265 109 265 109 281.5 90 c 128,-1,70
 298 71 298 71 321.5 58.5 c 128,-1,71
 345 46 345 46 369.5 40.5 c 128,-1,72
 394 35 394 35 412 35 c 256,73,74
 430 35 430 35 443.5 47.5 c 128,-1,75
 457 60 457 60 470.5 75 c 128,-1,76
 484 90 484 90 498 102.5 c 128,-1,77
 512 115 512 115 530 115 c 1,78,79
 530 87 530 87 516 65.5 c 128,-1,80
 502 44 502 44 481.5 29.5 c 128,-1,81
 461 15 461 15 437.5 7 c 128,-1,82
 414 -1 414 -1 395 -1 c 0,83,84
 370 -1 370 -1 349 10.5 c 128,-1,85
 328 22 328 22 307 36 c 128,-1,86
 286 50 286 50 265 61.5 c 128,-1,87
 244 73 244 73 220 73 c 0,0,1
106 129 m 2,88,89
 85 129 85 129 73.5 125 c 128,-1,90
 62 121 62 121 56.5 112 c 128,-1,91
 51 103 51 103 50 85.5 c 128,-1,92
 49 68 49 68 49 41 c 1,93,-1
 74 41 l 2,94,95
 95 41 95 41 118 46 c 128,-1,96
 141 51 141 51 159 63 c 128,-1,97
 177 75 177 75 177 100 c 0,98,99
 177 112 177 112 168 118 c 128,-1,100
 159 124 159 124 147 126.5 c 128,-1,101
 135 129 135 129 123 129 c 2,102,-1
 106 129 l 2,88,89
EndSplineSet
EndChar

StartChar: three
Encoding: 51 51 22
Width: 425
Flags: W
LayerCount: 2
Fore
SplineSet
61 106 m 1,0,1
 79 106 79 106 94.5 97 c 128,-1,2
 110 88 110 88 127.5 76.5 c 128,-1,3
 145 65 145 65 166.5 56 c 128,-1,4
 188 47 188 47 217 47 c 0,5,6
 249 47 249 47 275 58.5 c 128,-1,7
 301 70 301 70 319.5 90.5 c 128,-1,8
 338 111 338 111 348.5 140 c 128,-1,9
 359 169 359 169 359 205 c 0,10,11
 359 237 359 237 354 265 c 128,-1,12
 349 293 349 293 336.5 313.5 c 128,-1,13
 324 334 324 334 303 346 c 128,-1,14
 282 358 282 358 250 358 c 0,15,16
 226 358 226 358 209 351.5 c 128,-1,17
 192 345 192 345 176.5 337 c 128,-1,18
 161 329 161 329 145.5 322.5 c 128,-1,19
 130 316 130 316 110 316 c 1,20,21
 110 351 110 351 122.5 382.5 c 128,-1,22
 135 414 135 414 150 444.5 c 128,-1,23
 165 475 165 475 177.5 506.5 c 128,-1,24
 190 538 190 538 190 571 c 1,25,26
 187 571 187 571 181 572.5 c 128,-1,27
 175 574 175 574 167.5 575 c 128,-1,28
 160 576 160 576 154 576.5 c 128,-1,29
 148 577 148 577 145 577 c 0,30,31
 139 575 139 575 124 571 c 128,-1,32
 109 567 109 567 92.5 561.5 c 128,-1,33
 76 556 76 556 61 550.5 c 128,-1,34
 46 545 46 545 40 543 c 1,35,-1
 25 559 l 1,36,37
 31 562 31 562 45.5 568 c 128,-1,38
 60 574 60 574 77.5 581 c 128,-1,39
 95 588 95 588 115 595 c 128,-1,40
 135 602 135 602 153 609 c 128,-1,41
 171 616 171 616 185 621 c 128,-1,42
 199 626 199 626 206 628 c 0,43,44
 208 629 208 629 213 630 c 128,-1,45
 218 631 218 631 224 632 c 128,-1,46
 230 633 230 633 235 633.5 c 128,-1,47
 240 634 240 634 242 634 c 1,48,49
 242 607 242 607 236.5 575 c 128,-1,50
 231 543 231 543 223 512 c 128,-1,51
 215 481 215 481 206.5 453.5 c 128,-1,52
 198 426 198 426 191 407 c 1,53,54
 244 405 244 405 284 397 c 128,-1,55
 324 389 324 389 351 368.5 c 128,-1,56
 378 348 378 348 391.5 310.5 c 128,-1,57
 405 273 405 273 405 211 c 0,58,59
 405 166 405 166 390 130 c 128,-1,60
 375 94 375 94 349.5 68 c 128,-1,61
 324 42 324 42 290 27.5 c 128,-1,62
 256 13 256 13 217 13 c 0,63,64
 198 13 198 13 171 16 c 128,-1,65
 144 19 144 19 119.5 28.5 c 128,-1,66
 95 38 95 38 78 56.5 c 128,-1,67
 61 75 61 75 61 106 c 1,0,1
EndSplineSet
EndChar

StartChar: four
Encoding: 52 52 23
Width: 441
Flags: W
LayerCount: 2
Fore
SplineSet
244 372 m 1,0,-1
 41 372 l 2,1,2
 33 372 33 372 29 381 c 128,-1,3
 25 390 25 390 25 397 c 0,4,5
 25 398 25 398 25.5 401 c 128,-1,6
 26 404 26 404 27 404 c 0,7,8
 79 456 79 456 118 494 c 128,-1,9
 157 532 157 532 183 557 c 128,-1,10
 209 582 209 582 224.5 596 c 128,-1,11
 240 610 240 610 244 614 c 0,12,13
 245 615 245 615 247.5 615.5 c 128,-1,14
 250 616 250 616 252 616 c 0,15,16
 259 616 259 616 263.5 608.5 c 128,-1,17
 268 601 268 601 270 592 c 128,-1,18
 272 583 272 583 273 575 c 128,-1,19
 274 567 274 567 274 566 c 0,20,21
 274 558 274 558 276.5 537 c 128,-1,22
 279 516 279 516 281 493 c 128,-1,23
 283 470 283 470 285 449.5 c 128,-1,24
 287 429 287 429 287 421 c 1,25,26
 289 412 289 412 294 408 c 128,-1,27
 299 404 299 404 306 403 c 128,-1,28
 313 402 313 402 319.5 402.5 c 128,-1,29
 326 403 326 403 331 403 c 0,30,31
 359 403 359 403 379.5 414.5 c 128,-1,32
 400 426 400 426 418 452 c 1,33,34
 418 451 418 451 419 445 c 128,-1,35
 420 439 420 439 420 437 c 0,36,37
 426 408 426 408 419 392.5 c 128,-1,38
 412 377 412 377 397.5 370 c 128,-1,39
 383 363 383 363 364 362.5 c 128,-1,40
 345 362 345 362 327.5 363 c 128,-1,41
 310 364 310 364 296.5 363.5 c 128,-1,42
 283 363 283 363 281 356 c 1,43,-1
 281 33 l 1,44,-1
 259 0 l 1,45,-1
 244 16 l 1,46,-1
 244 372 l 1,0,-1
142 421 m 1,47,-1
 229 421 l 1,48,-1
 229 533 l 1,49,-1
 215 533 l 1,50,-1
 142 452 l 1,51,-1
 142 421 l 1,47,-1
EndSplineSet
EndChar

StartChar: five
Encoding: 53 53 24
Width: 463
Flags: W
LayerCount: 2
Fore
SplineSet
22 106 m 0,0,1
 22 108 22 108 22 114 c 128,-1,2
 22 120 22 120 23 121 c 1,3,4
 62 86 62 86 103.5 64.5 c 128,-1,5
 145 43 145 43 198 43 c 0,6,7
 246 43 246 43 282 59.5 c 128,-1,8
 318 76 318 76 342 105.5 c 128,-1,9
 366 135 366 135 378 174.5 c 128,-1,10
 390 214 390 214 390 259 c 0,11,12
 390 262 390 262 389.5 273 c 128,-1,13
 389 284 389 284 388.5 296 c 128,-1,14
 388 308 388 308 388 319 c 128,-1,15
 388 330 388 330 388 334 c 1,16,17
 385 340 385 340 375 352 c 128,-1,18
 365 364 365 364 353 376 c 128,-1,19
 341 388 341 388 329.5 398.5 c 128,-1,20
 318 409 318 409 312 411 c 1,21,-1
 307 411 l 1,22,23
 303 412 303 412 296.5 412 c 128,-1,24
 290 412 290 412 283 412 c 2,25,-1
 274 412 l 2,26,27
 238 412 238 412 209.5 401.5 c 128,-1,28
 181 391 181 391 157.5 379 c 128,-1,29
 134 367 134 367 114.5 356.5 c 128,-1,30
 95 346 95 346 78 346 c 1,31,32
 78 355 78 355 78.5 379 c 128,-1,33
 79 403 79 403 80.5 431 c 128,-1,34
 82 459 82 459 82.5 483.5 c 128,-1,35
 83 508 83 508 84 517 c 256,36,37
 85 526 85 526 86.5 539.5 c 128,-1,38
 88 553 88 553 92.5 565 c 128,-1,39
 97 577 97 577 106 585 c 128,-1,40
 115 593 115 593 130 593 c 2,41,-1
 358 593 l 1,42,-1
 358 571 l 1,43,-1
 160 571 l 2,44,45
 149 571 149 571 143 553 c 128,-1,46
 137 535 137 535 134 512.5 c 128,-1,47
 131 490 131 490 130.5 470.5 c 128,-1,48
 130 451 130 451 130 448 c 0,49,50
 130 439 130 439 132 435 c 128,-1,51
 134 431 134 431 145 425 c 1,52,53
 163 431 163 431 178 434.5 c 128,-1,54
 193 438 193 438 207.5 440 c 128,-1,55
 222 442 222 442 237 442 c 128,-1,56
 252 442 252 442 270 442 c 256,57,58
 288 442 288 442 302 442 c 128,-1,59
 316 442 316 442 329 439 c 128,-1,60
 342 436 342 436 356 429.5 c 128,-1,61
 370 423 370 423 388 411 c 1,62,63
 387 410 387 410 390.5 402.5 c 128,-1,64
 394 395 394 395 399 384 c 128,-1,65
 404 373 404 373 410 360 c 128,-1,66
 416 347 416 347 421.5 335.5 c 128,-1,67
 427 324 427 324 430.5 315.5 c 128,-1,68
 434 307 434 307 434 304 c 2,69,-1
 434 296 l 2,70,71
 434 290 434 290 434.5 281.5 c 128,-1,72
 435 273 435 273 435 265 c 2,73,-1
 435 251 l 2,74,75
 435 200 435 200 419 156 c 128,-1,76
 403 112 403 112 374 79 c 128,-1,77
 345 46 345 46 302 25 c 128,-1,78
 259 4 259 4 205 0 c 1,79,80
 193 -2 193 -2 174.5 1.5 c 128,-1,81
 156 5 156 5 135.5 12 c 128,-1,82
 115 19 115 19 94.5 29 c 128,-1,83
 74 39 74 39 58 51.5 c 128,-1,84
 42 64 42 64 32 77.5 c 128,-1,85
 22 91 22 91 22 106 c 0,0,1
EndSplineSet
EndChar

StartChar: six
Encoding: 54 54 25
Width: 448
Flags: W
LayerCount: 2
Fore
SplineSet
28 280 m 0,0,1
 28 313 28 313 32.5 352 c 128,-1,2
 37 391 37 391 46.5 430.5 c 128,-1,3
 56 470 56 470 71.5 506.5 c 128,-1,4
 87 543 87 543 108 571 c 128,-1,5
 129 599 129 599 156.5 616 c 128,-1,6
 184 633 184 633 218 633 c 0,7,8
 226 633 226 633 241.5 632 c 128,-1,9
 257 631 257 631 273 627.5 c 128,-1,10
 289 624 289 624 301 616.5 c 128,-1,11
 313 609 313 609 313 595 c 2,12,-1
 313 574 l 1,13,14
 302 574 302 574 292.5 577.5 c 128,-1,15
 283 581 283 581 273.5 585.5 c 128,-1,16
 264 590 264 590 253.5 593.5 c 128,-1,17
 243 597 243 597 231 597 c 0,18,19
 199 597 199 597 176 582.5 c 128,-1,20
 153 568 153 568 137 543.5 c 128,-1,21
 121 519 121 519 111 487.5 c 128,-1,22
 101 456 101 456 96 421.5 c 128,-1,23
 91 387 91 387 89 352.5 c 128,-1,24
 87 318 87 318 87 288 c 0,25,26
 87 269 87 269 88.5 245.5 c 128,-1,27
 90 222 90 222 94 198 c 128,-1,28
 98 174 98 174 105.5 151.5 c 128,-1,29
 113 129 113 129 125 111.5 c 128,-1,30
 137 94 137 94 154 83 c 128,-1,31
 171 72 171 72 194 72 c 0,32,33
 196 72 196 72 201.5 72.5 c 128,-1,34
 207 73 207 73 209 73 c 1,35,36
 219 105 219 105 232.5 137 c 128,-1,37
 246 169 246 169 265 195.5 c 128,-1,38
 284 222 284 222 309 239 c 128,-1,39
 334 256 334 256 366 256 c 0,40,41
 384 256 384 256 394.5 246.5 c 128,-1,42
 405 237 405 237 410.5 222.5 c 128,-1,43
 416 208 416 208 418 189.5 c 128,-1,44
 420 171 420 171 420 153 c 0,45,46
 420 122 420 122 414 96 c 128,-1,47
 408 70 408 70 395 50 c 128,-1,48
 382 30 382 30 362 17.5 c 128,-1,49
 342 5 342 5 313 2 c 0,50,51
 257 -4 257 -4 205.5 12.5 c 128,-1,52
 154 29 154 29 114.5 65 c 128,-1,53
 75 101 75 101 51.5 155.5 c 128,-1,54
 28 210 28 210 28 280 c 0,0,1
358 220 m 0,55,56
 334 220 334 220 316.5 202 c 128,-1,57
 299 184 299 184 288 157.5 c 128,-1,58
 277 131 277 131 271 102 c 128,-1,59
 265 73 265 73 265 49 c 1,60,61
 294 49 294 49 317 55 c 128,-1,62
 340 61 340 61 356 74.5 c 128,-1,63
 372 88 372 88 380.5 112 c 128,-1,64
 389 136 389 136 389 173 c 0,65,66
 389 195 389 195 383 207.5 c 128,-1,67
 377 220 377 220 358 220 c 0,55,56
EndSplineSet
EndChar

StartChar: seven
Encoding: 55 55 26
Width: 411
Flags: W
LayerCount: 2
Fore
SplineSet
211 51 m 0,0,1
 211 102 211 102 217.5 150.5 c 128,-1,2
 224 199 224 199 224 248 c 0,3,4
 224 259 224 259 222 263.5 c 128,-1,5
 220 268 220 268 211 275 c 1,6,7
 204 274 204 274 185.5 271 c 128,-1,8
 167 268 167 268 146.5 265 c 128,-1,9
 126 262 126 262 107.5 259.5 c 128,-1,10
 89 257 89 257 82 256 c 0,11,12
 80 256 80 256 75 256 c 128,-1,13
 70 256 70 256 68 256 c 1,14,-1
 68 293 l 2,15,16
 68 294 68 294 74.5 296 c 128,-1,17
 81 298 81 298 90 301 c 128,-1,18
 99 304 99 304 108.5 307 c 128,-1,19
 118 310 118 310 125 312 c 0,20,21
 130 313 130 313 145 316 c 128,-1,22
 160 319 160 319 175.5 321.5 c 128,-1,23
 191 324 191 324 205 326 c 128,-1,24
 219 328 219 328 224 329 c 1,25,26
 242 385 242 385 246 437 c 128,-1,27
 250 489 250 489 250 547 c 1,28,29
 223 547 223 547 197.5 541 c 128,-1,30
 172 535 172 535 146 528 c 128,-1,31
 120 521 120 521 93.5 515 c 128,-1,32
 67 509 67 509 40 509 c 1,33,-1
 40 532 l 2,34,35
 40 534 40 534 59.5 541 c 128,-1,36
 79 548 79 548 106 556.5 c 128,-1,37
 133 565 133 565 162.5 573.5 c 128,-1,38
 192 582 192 582 211 586 c 0,39,40
 216 587 216 587 228.5 589 c 128,-1,41
 241 591 241 591 254.5 592.5 c 128,-1,42
 268 594 268 594 280 595 c 128,-1,43
 292 596 292 596 297 596 c 1,44,45
 297 538 297 538 291.5 478 c 128,-1,46
 286 418 286 418 282 366 c 0,47,48
 281 361 281 361 281.5 353.5 c 128,-1,49
 282 346 282 346 283 338 c 0,50,51
 283 330 283 330 283 321 c 1,52,-1
 395 321 l 1,53,54
 395 303 395 303 387 294.5 c 128,-1,55
 379 286 379 286 367.5 283 c 128,-1,56
 356 280 356 280 342 280.5 c 128,-1,57
 328 281 328 281 315.5 280 c 128,-1,58
 303 279 303 279 293.5 274 c 128,-1,59
 284 269 284 269 282 256 c 2,60,-1
 238 19 l 1,61,-1
 224 0 l 1,62,63
 217 2 217 2 214 8 c 128,-1,64
 211 14 211 14 210 22 c 128,-1,65
 209 30 209 30 210 38 c 128,-1,66
 211 46 211 46 211 51 c 0,0,1
EndSplineSet
EndChar

StartChar: eight
Encoding: 56 56 27
Width: 349
Flags: W
LayerCount: 2
Fore
SplineSet
58 100 m 1,0,1
 58 104 58 104 58 115 c 128,-1,2
 58 126 58 126 58 138 c 128,-1,3
 58 150 58 150 57.5 160.5 c 128,-1,4
 57 171 57 171 57 175 c 0,5,6
 57 198 57 198 59.5 219 c 128,-1,7
 62 240 62 240 65.5 260.5 c 128,-1,8
 69 281 69 281 72 302 c 128,-1,9
 75 323 75 323 75 345 c 256,10,11
 75 367 75 367 65 384.5 c 128,-1,12
 55 402 55 402 43 419.5 c 128,-1,13
 31 437 31 437 21 457 c 128,-1,14
 11 477 11 477 11 502 c 0,15,16
 11 539 11 539 19 562.5 c 128,-1,17
 27 586 27 586 42 598.5 c 128,-1,18
 57 611 57 611 80 616 c 128,-1,19
 103 621 103 621 133 621 c 0,20,21
 147 621 147 621 174.5 620 c 128,-1,22
 202 619 202 619 229 612 c 128,-1,23
 256 605 256 605 277 591 c 128,-1,24
 298 577 298 577 298 552 c 0,25,26
 298 550 298 550 297 546 c 1,27,28
 298 542 298 542 298 538 c 0,29,30
 298 532 298 532 288.5 519.5 c 128,-1,31
 279 507 279 507 264.5 491.5 c 128,-1,32
 250 476 250 476 233 459 c 128,-1,33
 216 442 216 442 201.5 424 c 128,-1,34
 187 406 187 406 177.5 389.5 c 128,-1,35
 168 373 168 373 168 360 c 0,36,37
 168 358 168 358 168.5 355 c 128,-1,38
 169 352 169 352 169 352 c 1,39,40
 187 336 187 336 214 311.5 c 128,-1,41
 241 287 241 287 266.5 257 c 128,-1,42
 292 227 292 227 310 193.5 c 128,-1,43
 328 160 328 160 328 127 c 0,44,45
 328 103 328 103 317 80 c 128,-1,46
 306 57 306 57 287.5 39.5 c 128,-1,47
 269 22 269 22 246 11 c 128,-1,48
 223 0 223 0 201 0 c 0,49,50
 176 0 176 0 156 8 c 128,-1,51
 136 16 136 16 118.5 29.5 c 128,-1,52
 101 43 101 43 86.5 61 c 128,-1,53
 72 79 72 79 58 100 c 1,0,1
88 172 m 0,54,55
 88 111 88 111 121.5 80 c 128,-1,56
 155 49 155 49 211 49 c 0,57,58
 246 49 246 49 264 63 c 128,-1,59
 282 77 282 77 282 115 c 0,60,61
 282 143 282 143 268 175.5 c 128,-1,62
 254 208 254 208 232.5 236.5 c 128,-1,63
 211 265 211 265 184 283 c 128,-1,64
 157 301 157 301 130 301 c 0,65,66
 129 301 129 301 126 301 c 128,-1,67
 123 301 123 301 122 301 c 0,68,69
 109 286 109 286 102 271 c 128,-1,70
 95 256 95 256 91.5 240 c 128,-1,71
 88 224 88 224 88 207.5 c 128,-1,72
 88 191 88 191 88 172 c 0,54,55
257 565 m 0,73,74
 240 575 240 575 222.5 580.5 c 128,-1,75
 205 586 205 586 187 587.5 c 128,-1,76
 169 589 169 589 145 589 c 0,77,78
 142 589 142 589 134 588.5 c 128,-1,79
 126 588 126 588 117.5 587.5 c 128,-1,80
 109 587 109 587 101.5 586.5 c 128,-1,81
 94 586 94 586 91 586 c 1,82,83
 72 573 72 573 64.5 552.5 c 128,-1,84
 57 532 57 532 57 510 c 0,85,86
 57 494 57 494 61 475.5 c 128,-1,87
 65 457 65 457 73.5 440 c 128,-1,88
 82 423 82 423 94 411.5 c 128,-1,89
 106 400 106 400 124 400 c 0,90,91
 126 400 126 400 131 400.5 c 128,-1,92
 136 401 136 401 137 402 c 2,93,-1
 272 554 l 1,94,95
 265 560 265 560 257 565 c 0,73,74
EndSplineSet
EndChar

StartChar: nine
Encoding: 57 57 28
Width: 343
Flags: W
LayerCount: 2
Fore
SplineSet
229 55 m 2,0,1
 229 130 229 130 235.5 201.5 c 128,-1,2
 242 273 242 273 242 347 c 1,3,4
 228 347 228 347 214 344 c 2,5,-1
 160 334 l 2,6,7
 147 331 147 331 133 331 c 0,8,9
 113 331 113 331 93 337 c 128,-1,10
 73 343 73 343 56.5 355 c 128,-1,11
 40 367 40 367 30 385.5 c 128,-1,12
 20 404 20 404 20 430 c 0,13,14
 20 460 20 460 31.5 490 c 128,-1,15
 43 520 43 520 62.5 544 c 128,-1,16
 82 568 82 568 108 583 c 128,-1,17
 134 598 134 598 163 598 c 0,18,19
 178 598 178 598 204.5 593 c 128,-1,20
 231 588 231 588 256.5 576 c 128,-1,21
 282 564 282 564 300.5 545 c 128,-1,22
 319 526 319 526 319 499 c 0,23,24
 319 496 319 496 317.5 491 c 128,-1,25
 316 486 316 486 313.5 480.5 c 128,-1,26
 311 475 311 475 308.5 470.5 c 128,-1,27
 306 466 306 466 304 465 c 1,28,29
 304 450 304 450 302 419 c 128,-1,30
 300 388 300 388 297 348.5 c 128,-1,31
 294 309 294 309 291 265.5 c 128,-1,32
 288 222 288 222 285 182.5 c 128,-1,33
 282 143 282 143 279.5 112 c 128,-1,34
 277 81 277 81 275 66 c 0,35,36
 275 62 275 62 273 52.5 c 128,-1,37
 271 43 271 43 268.5 32.5 c 128,-1,38
 266 22 266 22 264 13 c 128,-1,39
 262 4 262 4 260 0 c 1,40,-1
 230 17 l 1,41,-1
 229 22 l 2,42,43
 229 26 229 26 229 32 c 128,-1,44
 229 38 229 38 229 44 c 2,45,-1
 229 55 l 2,0,1
66 441 m 0,46,47
 66 418 66 418 71 403 c 128,-1,48
 76 388 76 388 85 379 c 128,-1,49
 94 370 94 370 107.5 367 c 128,-1,50
 121 364 121 364 139 364 c 0,51,52
 168 364 168 364 193 376 c 128,-1,53
 218 388 218 388 236.5 410 c 128,-1,54
 255 432 255 432 265.5 461 c 128,-1,55
 276 490 276 490 276 524 c 0,56,57
 276 538 276 538 262.5 543.5 c 128,-1,58
 249 549 249 549 232.5 550.5 c 128,-1,59
 216 552 216 552 201.5 551 c 128,-1,60
 187 550 187 550 186 550 c 0,61,62
 160 556 160 556 138.5 548.5 c 128,-1,63
 117 541 117 541 101 524.5 c 128,-1,64
 85 508 85 508 76 486 c 128,-1,65
 67 464 67 464 66 441 c 0,46,47
EndSplineSet
EndChar

StartChar: colon
Encoding: 58 58 29
Width: 178
Flags: W
LayerCount: 2
Fore
SplineSet
55 23 m 256,0,1
 55 33 55 33 62 39.5 c 128,-1,2
 69 46 69 46 79 46 c 256,3,4
 89 46 89 46 95.5 39.5 c 128,-1,5
 102 33 102 33 102 23 c 256,6,7
 102 13 102 13 95.5 6 c 128,-1,8
 89 -1 89 -1 79 -1 c 256,9,10
 69 -1 69 -1 62 6 c 128,-1,11
 55 13 55 13 55 23 c 256,0,1
62 250 m 0,12,13
 62 259 62 259 69 266 c 128,-1,14
 76 273 76 273 86 273 c 256,15,16
 96 273 96 273 102.5 266 c 128,-1,17
 109 259 109 259 109 250 c 0,18,19
 109 239 109 239 102.5 232.5 c 128,-1,20
 96 226 96 226 86 226 c 256,21,22
 76 226 76 226 69 232.5 c 128,-1,23
 62 239 62 239 62 250 c 0,12,13
EndSplineSet
EndChar

StartChar: semicolon
Encoding: 59 59 30
Width: 172
Flags: W
LayerCount: 2
Fore
SplineSet
94 76 m 0,0,1
 106 76 106 76 112.5 73.5 c 128,-1,2
 119 71 119 71 122 66 c 128,-1,3
 125 61 125 61 125.5 54.5 c 128,-1,4
 126 48 126 48 126 40 c 0,5,6
 126 16 126 16 115 -11 c 128,-1,7
 104 -38 104 -38 86 -61.5 c 128,-1,8
 68 -85 68 -85 45 -100.5 c 128,-1,9
 22 -116 22 -116 -4 -116 c 1,10,11
 -4 -97 -4 -97 6 -74 c 128,-1,12
 16 -51 16 -51 30 -27 c 128,-1,13
 44 -3 44 -3 58 20 c 128,-1,14
 72 43 72 43 79 61 c 0,15,16
 80 65 80 65 86 70.5 c 128,-1,17
 92 76 92 76 94 76 c 0,0,1
64 305 m 1,18,19
 65 305 65 305 71 306 c 128,-1,20
 77 307 77 307 79 307 c 0,21,22
 94 307 94 307 104 298 c 128,-1,23
 114 289 114 289 114 274 c 1,24,-1
 64 274 l 1,25,-1
 64 305 l 1,18,19
EndSplineSet
EndChar

StartChar: less
Encoding: 60 60 31
Width: 487
Flags: W
LayerCount: 2
Fore
SplineSet
7 167 m 1,0,1
 13 174 13 174 21 180.5 c 128,-1,2
 29 187 29 187 37.5 193 c 128,-1,3
 46 199 46 199 54.5 204 c 128,-1,4
 63 209 63 209 68 213 c 0,5,6
 78 222 78 222 98.5 242 c 128,-1,7
 119 262 119 262 144.5 287.5 c 128,-1,8
 170 313 170 313 198 340 c 2,9,-1
 252 394 l 2,10,11
 277 420 277 420 297 440.5 c 128,-1,12
 317 461 317 461 327 472 c 0,13,14
 331 476 331 476 344.5 493.5 c 128,-1,15
 358 511 358 511 373 532 c 128,-1,16
 388 553 388 553 401.5 571 c 128,-1,17
 415 589 415 589 418 593 c 0,18,19
 427 605 427 605 433.5 608.5 c 128,-1,20
 440 612 440 612 456 612 c 1,21,22
 456 595 456 595 451.5 575 c 128,-1,23
 447 555 447 555 439.5 535.5 c 128,-1,24
 432 516 432 516 422.5 499 c 128,-1,25
 413 482 413 482 403 472 c 2,26,-1
 115 167 l 1,27,28
 125 160 125 160 151.5 151.5 c 128,-1,29
 178 143 178 143 212 132 c 128,-1,30
 246 121 246 121 282.5 109 c 128,-1,31
 319 97 319 97 349 83.5 c 128,-1,32
 379 70 379 70 399 54.5 c 128,-1,33
 419 39 419 39 419 23 c 0,34,35
 419 13 419 13 412.5 6 c 128,-1,36
 406 -1 406 -1 395 -1 c 0,37,38
 394 -1 394 -1 391 -0.5 c 128,-1,39
 388 0 388 0 388 0 c 1,40,41
 363 10 363 10 329 20.5 c 128,-1,42
 295 31 295 31 257.5 43.5 c 128,-1,43
 220 56 220 56 182 69.5 c 128,-1,44
 144 83 144 83 110 98.5 c 128,-1,45
 76 114 76 114 49 131 c 128,-1,46
 22 148 22 148 7 167 c 1,0,1
EndSplineSet
EndChar

StartChar: equal
Encoding: 61 61 32
Width: 418
Flags: W
LayerCount: 2
Fore
SplineSet
357 88 m 1,0,-1
 37 88 l 1,1,2
 39 91 39 91 45 97 c 128,-1,3
 51 103 51 103 53 103 c 0,4,5
 58 105 58 105 68.5 107 c 128,-1,6
 79 109 79 109 91 112 c 128,-1,7
 103 115 103 115 114 116.5 c 128,-1,8
 125 118 125 118 129 118 c 0,9,10
 137 119 137 119 155 119.5 c 128,-1,11
 173 120 173 120 195.5 120.5 c 128,-1,12
 218 121 218 121 243 121.5 c 128,-1,13
 268 122 268 122 290.5 122.5 c 128,-1,14
 313 123 313 123 330.5 123.5 c 128,-1,15
 348 124 348 124 357 124 c 1,16,-1
 357 88 l 1,0,-1
67 270 m 1,17,-1
 378 270 l 1,18,19
 378 264 378 264 374 258.5 c 128,-1,20
 370 253 370 253 364.5 249 c 128,-1,21
 359 245 359 245 353 243 c 128,-1,22
 347 241 347 241 342 241 c 2,23,-1
 37 241 l 1,24,-1
 22 256 l 1,25,-1
 67 270 l 1,17,-1
EndSplineSet
EndChar

StartChar: greater
Encoding: 62 62 33
Width: 463
Flags: W
LayerCount: 2
Fore
SplineSet
54 15 m 1,0,1
 73 38 73 38 104.5 62.5 c 128,-1,2
 136 87 136 87 171.5 111.5 c 128,-1,3
 207 136 207 136 243 161.5 c 128,-1,4
 279 187 279 187 308 212.5 c 128,-1,5
 337 238 337 238 355.5 265 c 128,-1,6
 374 292 374 292 374 319 c 0,7,8
 374 331 374 331 372 337 c 128,-1,9
 370 343 370 343 358 349 c 2,10,-1
 38 532 l 1,11,12
 30 538 30 538 24.5 545.5 c 128,-1,13
 19 553 19 553 19 563 c 1,14,-1
 68 563 l 2,15,16
 69 563 69 563 86 555 c 128,-1,17
 103 547 103 547 129.5 533.5 c 128,-1,18
 156 520 156 520 189.5 503.5 c 128,-1,19
 223 487 223 487 256 470.5 c 128,-1,20
 289 454 289 454 320 438 c 128,-1,21
 351 422 351 422 373 411 c 0,22,23
 382 406 382 406 395 398.5 c 128,-1,24
 408 391 408 391 420.5 380.5 c 128,-1,25
 433 370 433 370 441.5 358 c 128,-1,26
 450 346 450 346 450 334 c 0,27,28
 450 313 450 313 436 288.5 c 128,-1,29
 422 264 422 264 402.5 240.5 c 128,-1,30
 383 217 383 217 362 197.5 c 128,-1,31
 341 178 341 178 327 167 c 0,32,33
 322 164 322 164 308.5 153.5 c 128,-1,34
 295 143 295 143 275 129 c 128,-1,35
 255 115 255 115 232 98.5 c 128,-1,36
 209 82 209 82 186.5 66 c 128,-1,37
 164 50 164 50 145 36.5 c 128,-1,38
 126 23 126 23 115 15 c 0,39,40
 112 13 112 13 107 10.5 c 128,-1,41
 102 8 102 8 97 6 c 128,-1,42
 92 4 92 4 88.5 2 c 128,-1,43
 85 0 85 0 84 0 c 0,44,45
 82 0 82 0 77.5 2 c 128,-1,46
 73 4 73 4 68.5 6 c 128,-1,47
 64 8 64 8 59.5 10.5 c 128,-1,48
 55 13 55 13 54 15 c 1,0,1
EndSplineSet
EndChar

StartChar: question
Encoding: 63 63 34
Width: 453
Flags: W
LayerCount: 2
Fore
SplineSet
73 395 m 0,0,1
 72 397 72 397 71 403 c 128,-1,2
 70 409 70 409 70 411 c 0,3,4
 70 438 70 438 93 459 c 128,-1,5
 116 480 116 480 150 498.5 c 128,-1,6
 184 517 184 517 224.5 536 c 128,-1,7
 265 555 265 555 299 577 c 128,-1,8
 333 599 333 599 356 626.5 c 128,-1,9
 379 654 379 654 379 691 c 0,10,11
 379 719 379 719 367.5 736 c 128,-1,12
 356 753 356 753 338 762 c 128,-1,13
 320 771 320 771 297 774 c 128,-1,14
 274 777 274 777 251 777 c 0,15,16
 220 777 220 777 190.5 762.5 c 128,-1,17
 161 748 161 748 134.5 730 c 128,-1,18
 108 712 108 712 86.5 697.5 c 128,-1,19
 65 683 65 683 51 683 c 0,20,21
 40 683 40 683 33.5 690 c 128,-1,22
 27 697 27 697 27 708 c 0,23,24
 27 727 27 727 41.5 742 c 128,-1,25
 56 757 56 757 79 770 c 128,-1,26
 102 783 102 783 129.5 792.5 c 128,-1,27
 157 802 157 802 184.5 808 c 128,-1,28
 212 814 212 814 235 817.5 c 128,-1,29
 258 821 258 821 271 821 c 0,30,31
 343 821 343 821 384 789 c 128,-1,32
 425 757 425 757 425 684 c 0,33,34
 425 682 425 682 424.5 675.5 c 128,-1,35
 424 669 424 669 424 661.5 c 128,-1,36
 424 654 424 654 423.5 647.5 c 128,-1,37
 423 641 423 641 423 639 c 1,38,39
 410 621 410 621 382.5 599 c 128,-1,40
 355 577 355 577 321.5 554.5 c 128,-1,41
 288 532 288 532 252 510 c 128,-1,42
 216 488 216 488 186 469.5 c 128,-1,43
 156 451 156 451 137 437.5 c 128,-1,44
 118 424 118 424 118 418 c 0,45,46
 118 406 118 406 129 396 c 128,-1,47
 140 386 140 386 149 380 c 2,48,-1
 172 364 l 1,49,50
 190 353 190 353 209.5 341 c 128,-1,51
 229 329 229 329 246.5 318.5 c 128,-1,52
 264 308 264 308 271 304 c 0,53,54
 271 303 271 303 271 300.5 c 128,-1,55
 271 298 271 298 271 296 c 0,56,57
 271 286 271 286 265 279.5 c 128,-1,58
 259 273 259 273 249 273 c 0,59,60
 223 273 223 273 197.5 286 c 128,-1,61
 172 299 172 299 149 318 c 128,-1,62
 126 337 126 337 106.5 358 c 128,-1,63
 87 379 87 379 73 395 c 0,0,1
320 31 m 1,64,65
 320 20 320 20 313 9.5 c 128,-1,66
 306 -1 306 -1 294 -1 c 256,67,68
 282 -1 282 -1 274.5 9.5 c 128,-1,69
 267 20 267 20 267 31 c 1,70,-1
 320 31 l 1,64,65
EndSplineSet
EndChar

StartChar: at
Encoding: 64 64 35
Width: 1057
Flags: W
LayerCount: 2
Fore
SplineSet
22 418 m 0,0,1
 22 481 22 481 34.5 543 c 128,-1,2
 47 605 47 605 72 660.5 c 128,-1,3
 97 716 97 716 133.5 762.5 c 128,-1,4
 170 809 170 809 218 843 c 128,-1,5
 266 877 266 877 325.5 896 c 128,-1,6
 385 915 385 915 456 915 c 0,7,8
 490 915 490 915 531 907.5 c 128,-1,9
 572 900 572 900 613.5 885 c 128,-1,10
 655 870 655 870 694 848 c 128,-1,11
 733 826 733 826 763 797.5 c 128,-1,12
 793 769 793 769 811.5 733.5 c 128,-1,13
 830 698 830 698 830 657 c 0,14,15
 830 622 830 622 820 583.5 c 128,-1,16
 810 545 810 545 789.5 513 c 128,-1,17
 769 481 769 481 738.5 460 c 128,-1,18
 708 439 708 439 667 439 c 0,19,20
 656 439 656 439 649 444.5 c 128,-1,21
 642 450 642 450 636.5 456 c 128,-1,22
 631 462 631 462 624.5 467 c 128,-1,23
 618 472 618 472 608 472 c 0,24,25
 589 472 589 472 569.5 462.5 c 128,-1,26
 550 453 550 453 529.5 441.5 c 128,-1,27
 509 430 509 430 487 420 c 128,-1,28
 465 410 465 410 441 410 c 0,29,30
 385 410 385 410 355 441.5 c 128,-1,31
 325 473 325 473 325 526 c 0,32,33
 325 562 325 562 337 589.5 c 128,-1,34
 349 617 349 617 369 635 c 128,-1,35
 389 653 389 653 417.5 661.5 c 128,-1,36
 446 670 446 670 480 670 c 0,37,38
 515 670 515 670 541.5 655.5 c 128,-1,39
 568 641 568 641 587.5 619 c 128,-1,40
 607 597 607 597 621 571 c 128,-1,41
 635 545 635 545 645 523 c 128,-1,42
 655 501 655 501 662.5 486.5 c 128,-1,43
 670 472 670 472 676 472 c 0,44,45
 694 472 694 472 710.5 482.5 c 128,-1,46
 727 493 727 493 740.5 509.5 c 128,-1,47
 754 526 754 526 765 547 c 128,-1,48
 776 568 776 568 783 589 c 128,-1,49
 790 610 790 610 794.5 629.5 c 128,-1,50
 799 649 799 649 799 661 c 0,51,52
 799 703 799 703 780 734.5 c 128,-1,53
 761 766 761 766 730.5 788.5 c 128,-1,54
 700 811 700 811 661 826.5 c 128,-1,55
 622 842 622 842 581.5 851.5 c 128,-1,56
 541 861 541 861 502.5 864.5 c 128,-1,57
 464 868 464 868 435 868 c 0,58,59
 370 868 370 868 318 850 c 128,-1,60
 266 832 266 832 226.5 800.5 c 128,-1,61
 187 769 187 769 160 725.5 c 128,-1,62
 133 682 133 682 115.5 631.5 c 128,-1,63
 98 581 98 581 90 525 c 128,-1,64
 82 469 82 469 82 412 c 0,65,66
 82 314 82 314 109 244.5 c 128,-1,67
 136 175 136 175 187.5 130 c 128,-1,68
 239 85 239 85 312.5 64 c 128,-1,69
 386 43 386 43 479 43 c 0,70,71
 511 43 511 43 560.5 47 c 128,-1,72
 610 51 610 51 664.5 60 c 128,-1,73
 719 69 719 69 775 84.5 c 128,-1,74
 831 100 831 100 878 124 c 128,-1,75
 925 148 925 148 956.5 181 c 128,-1,76
 988 214 988 214 996 259 c 0,77,78
 999 277 999 277 984 294 c 128,-1,79
 969 311 969 311 948 325.5 c 128,-1,80
 927 340 927 340 905.5 353.5 c 128,-1,81
 884 367 884 367 874 380 c 1,82,-1
 890 395 l 2,83,84
 895 400 895 400 907.5 396 c 128,-1,85
 920 392 920 392 935.5 381.5 c 128,-1,86
 951 371 951 371 967 355.5 c 128,-1,87
 983 340 983 340 997 324.5 c 128,-1,88
 1011 309 1011 309 1019.5 293.5 c 128,-1,89
 1028 278 1028 278 1028 268 c 0,90,91
 1028 215 1028 215 997.5 175 c 128,-1,92
 967 135 967 135 917.5 105 c 128,-1,93
 868 75 868 75 807.5 54.5 c 128,-1,94
 747 34 747 34 686 22 c 128,-1,95
 625 10 625 10 571.5 4.5 c 128,-1,96
 518 -1 518 -1 484 -1 c 0,97,98
 373 -1 373 -1 287.5 22.5 c 128,-1,99
 202 46 202 46 143 96 c 128,-1,100
 84 146 84 146 53 225.5 c 128,-1,101
 22 305 22 305 22 418 c 0,0,1
372 508 m 0,102,103
 372 496 372 496 378 484 c 128,-1,104
 384 472 384 472 393.5 461.5 c 128,-1,105
 403 451 403 451 415 445 c 128,-1,106
 427 439 427 439 440 439 c 0,107,108
 467 439 467 439 495 446 c 128,-1,109
 523 453 523 453 544.5 468 c 128,-1,110
 566 483 566 483 578 506 c 128,-1,111
 590 529 590 529 586 563 c 0,112,113
 583 586 583 586 575 601 c 128,-1,114
 567 616 567 616 554 624 c 128,-1,115
 541 632 541 632 524 635.5 c 128,-1,116
 507 639 507 639 487 639 c 0,117,118
 457 639 457 639 435.5 629 c 128,-1,119
 414 619 414 619 400 602 c 128,-1,120
 386 585 386 585 379 561 c 128,-1,121
 372 537 372 537 372 508 c 0,102,103
EndSplineSet
EndChar

StartChar: A
Encoding: 65 65 36
Width: 730
Flags: W
LayerCount: 2
Fore
SplineSet
9 10 m 1,0,1
 9 28 9 28 16 45 c 128,-1,2
 23 62 23 62 33 78 c 128,-1,3
 43 94 43 94 55 108.5 c 128,-1,4
 67 123 67 123 76 136 c 0,5,6
 130 214 130 214 172 290.5 c 128,-1,7
 214 367 214 367 250 445 c 128,-1,8
 286 523 286 523 317 605 c 128,-1,9
 348 687 348 687 380 775 c 1,10,11
 385 785 385 785 390 788.5 c 128,-1,12
 395 792 395 792 403 792 c 0,13,14
 415 792 415 792 422.5 781.5 c 128,-1,15
 430 771 430 771 434 758 c 128,-1,16
 438 745 438 745 439.5 732 c 128,-1,17
 441 719 441 719 441 715 c 0,18,19
 442 707 442 707 443 685 c 128,-1,20
 444 663 444 663 445.5 633.5 c 128,-1,21
 447 604 447 604 448.5 570 c 128,-1,22
 450 536 450 536 451.5 506.5 c 128,-1,23
 453 477 453 477 454 455 c 128,-1,24
 455 433 455 433 456 425 c 0,25,26
 456 421 456 421 458 412 c 128,-1,27
 460 403 460 403 462.5 393.5 c 128,-1,28
 465 384 465 384 467.5 375.5 c 128,-1,29
 470 367 470 367 472 364 c 0,30,31
 472 363 472 363 477 359 c 128,-1,32
 482 355 482 355 487.5 350 c 128,-1,33
 493 345 493 345 497.5 340.5 c 128,-1,34
 502 336 502 336 502 334 c 0,35,36
 503 332 503 332 503 323 c 128,-1,37
 503 314 503 314 502.5 304 c 128,-1,38
 502 294 502 294 502 285 c 128,-1,39
 502 276 502 276 502 274 c 0,40,41
 508 255 508 255 524.5 229 c 128,-1,42
 541 203 541 203 563.5 175.5 c 128,-1,43
 586 148 586 148 610 121 c 128,-1,44
 634 94 634 94 654.5 73 c 128,-1,45
 675 52 675 52 688 38 c 128,-1,46
 701 24 701 24 701 22 c 0,47,48
 701 11 701 11 691.5 5.5 c 128,-1,49
 682 0 682 0 669 0 c 0,50,51
 643 0 643 0 616 20 c 128,-1,52
 589 40 589 40 563.5 70.5 c 128,-1,53
 538 101 538 101 514 136.5 c 128,-1,54
 490 172 490 172 472 202.5 c 128,-1,55
 454 233 454 233 441.5 253.5 c 128,-1,56
 429 274 429 274 426 274 c 2,57,-1
 244 274 l 2,58,59
 214 274 214 274 194 254.5 c 128,-1,60
 174 235 174 235 158.5 205.5 c 128,-1,61
 143 176 143 176 130.5 142 c 128,-1,62
 118 108 118 108 101.5 78.5 c 128,-1,63
 85 49 85 49 63.5 29.5 c 128,-1,64
 42 10 42 10 9 10 c 1,0,1
380 653 m 1,65,66
 379 652 379 652 377 647.5 c 128,-1,67
 375 643 375 643 372.5 638.5 c 128,-1,68
 370 634 370 634 367.5 629.5 c 128,-1,69
 365 625 365 625 364 623 c 0,70,71
 356 604 356 604 345 575.5 c 128,-1,72
 334 547 334 547 322 517 c 2,73,-1
 299 457 l 2,74,75
 288 427 288 427 279 403.5 c 128,-1,76
 270 380 270 380 264.5 365 c 128,-1,77
 259 350 259 350 259 349 c 2,78,-1
 259 334 l 1,79,-1
 412 334 l 1,80,-1
 380 653 l 1,65,66
EndSplineSet
EndChar

StartChar: B
Encoding: 66 66 37
Width: 524
Flags: W
LayerCount: 2
Fore
SplineSet
46 593 m 2,0,1
 47 637 47 637 64.5 659.5 c 128,-1,2
 82 682 82 682 109.5 691 c 128,-1,3
 137 700 137 700 171.5 700.5 c 128,-1,4
 206 701 206 701 242 701 c 0,5,6
 274 701 274 701 297.5 696 c 128,-1,7
 321 691 321 691 336.5 678 c 128,-1,8
 352 665 352 665 359.5 643.5 c 128,-1,9
 367 622 367 622 367 589 c 0,10,11
 367 545 367 545 345 514.5 c 128,-1,12
 323 484 323 484 289 456 c 1,13,14
 313 436 313 436 338.5 428 c 128,-1,15
 364 420 364 420 388 415.5 c 128,-1,16
 412 411 412 411 433 405.5 c 128,-1,17
 454 400 454 400 470 386 c 128,-1,18
 486 372 486 372 495 344.5 c 128,-1,19
 504 317 504 317 504 269 c 0,20,21
 504 209 504 209 479.5 159.5 c 128,-1,22
 455 110 455 110 414 74.5 c 128,-1,23
 373 39 373 39 318.5 19 c 128,-1,24
 264 -1 264 -1 204 -1 c 0,25,26
 200 -1 200 -1 192 -0.5 c 128,-1,27
 184 0 184 0 183 0 c 0,28,29
 168 4 168 4 144.5 10.5 c 128,-1,30
 121 17 121 17 99 24.5 c 128,-1,31
 77 32 77 32 61.5 37.5 c 128,-1,32
 46 43 46 43 46 45 c 2,33,-1
 31 121 l 1,34,-1
 46 593 l 2,0,1
283 397 m 2,35,-1
 262 397 l 2,36,37
 247 397 247 397 227.5 395.5 c 128,-1,38
 208 394 208 394 186.5 391 c 128,-1,39
 165 388 165 388 147.5 383 c 128,-1,40
 130 378 130 378 118 369.5 c 128,-1,41
 106 361 106 361 106 349 c 2,42,-1
 106 61 l 2,43,44
 106 59 106 59 109.5 57 c 128,-1,45
 113 55 113 55 118.5 52 c 128,-1,46
 124 49 124 49 128.5 47.5 c 128,-1,47
 133 46 133 46 137 45 c 1,48,-1
 143 45 l 2,49,50
 148 45 148 45 155 44.5 c 128,-1,51
 162 44 162 44 169 44 c 2,52,-1
 181 44 l 2,53,54
 232 44 232 44 279 56 c 128,-1,55
 326 68 326 68 363 93.5 c 128,-1,56
 400 119 400 119 421.5 159 c 128,-1,57
 443 199 443 199 443 256 c 0,58,59
 443 298 443 298 433.5 325.5 c 128,-1,60
 424 353 424 353 404 369 c 128,-1,61
 384 385 384 385 353.5 391 c 128,-1,62
 323 397 323 397 283 397 c 2,35,-1
232 655 m 0,63,64
 220 655 220 655 198.5 655.5 c 128,-1,65
 177 656 177 656 156.5 652.5 c 128,-1,66
 136 649 136 649 121 639 c 128,-1,67
 106 629 106 629 106 608 c 2,68,-1
 106 422 l 1,69,70
 132 422 132 422 166.5 436 c 128,-1,71
 201 450 201 450 232.5 473 c 128,-1,72
 264 496 264 496 285.5 524.5 c 128,-1,73
 307 553 307 553 307 583 c 0,74,75
 307 625 307 625 290 640 c 128,-1,76
 273 655 273 655 232 655 c 0,63,64
EndSplineSet
EndChar

StartChar: C
Encoding: 67 67 38
Width: 601
Flags: W
LayerCount: 2
Fore
SplineSet
22 280 m 0,0,1
 22 369 22 369 49 448.5 c 128,-1,2
 76 528 76 528 115 608 c 1,3,4
 133 630 133 630 146.5 644.5 c 128,-1,5
 160 659 160 659 175 668 c 128,-1,6
 190 677 190 677 208.5 681 c 128,-1,7
 227 685 227 685 253 685 c 256,8,9
 279 685 279 685 312 677.5 c 128,-1,10
 345 670 345 670 374 654.5 c 128,-1,11
 403 639 403 639 423 615 c 128,-1,12
 443 591 443 591 443 558 c 1,13,14
 421 558 421 558 398.5 573 c 128,-1,15
 376 588 376 588 352 605.5 c 128,-1,16
 328 623 328 623 299.5 638 c 128,-1,17
 271 653 271 653 235 653 c 0,18,19
 211 653 211 653 190 632.5 c 128,-1,20
 169 612 169 612 152 579.5 c 128,-1,21
 135 547 135 547 122 507 c 128,-1,22
 109 467 109 467 100.5 428 c 128,-1,23
 92 389 92 389 87.5 355.5 c 128,-1,24
 83 322 83 322 83 303 c 0,25,26
 83 242 83 242 102 194 c 128,-1,27
 121 146 121 146 155.5 113 c 128,-1,28
 190 80 190 80 239.5 62.5 c 128,-1,29
 289 45 289 45 350 45 c 0,30,31
 392 45 392 45 425 54.5 c 128,-1,32
 458 64 458 64 482.5 76 c 128,-1,33
 507 88 507 88 523 97.5 c 128,-1,34
 539 107 539 107 547 107 c 0,35,36
 556 107 556 107 561.5 103 c 128,-1,37
 567 99 567 99 569 93 c 128,-1,38
 571 87 571 87 572 79.5 c 128,-1,39
 573 72 573 72 573 65 c 0,40,41
 573 45 573 45 557.5 32 c 128,-1,42
 542 19 542 19 518 11.5 c 128,-1,43
 494 4 494 4 464.5 1 c 128,-1,44
 435 -2 435 -2 406.5 -2 c 128,-1,45
 378 -2 378 -2 353.5 -1.5 c 128,-1,46
 329 -1 329 -1 316 -1 c 0,47,48
 253 -1 253 -1 199.5 19.5 c 128,-1,49
 146 40 146 40 106.5 77 c 128,-1,50
 67 114 67 114 44.5 165.5 c 128,-1,51
 22 217 22 217 22 280 c 0,0,1
EndSplineSet
EndChar

StartChar: D
Encoding: 68 68 39
Width: 623
Flags: W
LayerCount: 2
Fore
SplineSet
46 61 m 1,0,-1
 46 639 l 2,1,2
 46 655 46 655 55 664.5 c 128,-1,3
 64 674 64 674 78 679 c 128,-1,4
 92 684 92 684 110 686 c 128,-1,5
 128 688 128 688 145.5 687.5 c 128,-1,6
 163 687 163 687 178 686 c 128,-1,7
 193 685 193 685 203 685 c 0,8,9
 251 685 251 685 298.5 675.5 c 128,-1,10
 346 666 346 666 390 647 c 128,-1,11
 434 628 434 628 471.5 601 c 128,-1,12
 509 574 509 574 537 537.5 c 128,-1,13
 565 501 565 501 581 456.5 c 128,-1,14
 597 412 597 412 597 359 c 0,15,16
 597 307 597 307 575 259.5 c 128,-1,17
 553 212 553 212 516 172 c 128,-1,18
 479 132 479 132 430.5 100 c 128,-1,19
 382 68 382 68 329.5 45.5 c 128,-1,20
 277 23 277 23 223 11 c 128,-1,21
 169 -1 169 -1 122 -1 c 0,22,23
 98 -1 98 -1 74.5 8.5 c 128,-1,24
 51 18 51 18 31 31 c 1,25,-1
 46 61 l 1,0,-1
106 557 m 2,26,27
 106 495 106 495 107.5 428.5 c 128,-1,28
 109 362 109 362 111 295.5 c 128,-1,29
 113 229 113 229 116 165.5 c 128,-1,30
 119 102 119 102 122 45 c 0,31,32
 123 45 123 45 125.5 44.5 c 128,-1,33
 128 44 128 44 130 44 c 0,34,35
 169 44 169 44 214.5 54 c 128,-1,36
 260 64 260 64 305 83.5 c 128,-1,37
 350 103 350 103 391.5 130 c 128,-1,38
 433 157 433 157 464.5 191 c 128,-1,39
 496 225 496 225 515 264.5 c 128,-1,40
 534 304 534 304 534 349 c 0,41,42
 534 421 534 421 502.5 476.5 c 128,-1,43
 471 532 471 532 420 568.5 c 128,-1,44
 369 605 369 605 304 623.5 c 128,-1,45
 239 642 239 642 172 642 c 0,46,47
 167 642 167 642 159.5 641.5 c 128,-1,48
 152 641 152 641 144 640.5 c 128,-1,49
 136 640 136 640 130 639.5 c 128,-1,50
 124 639 124 639 122 639 c 1,51,-1
 106 623 l 1,52,-1
 106 615 l 2,53,54
 106 607 106 607 106 596.5 c 128,-1,55
 106 586 106 586 106 575 c 2,56,-1
 106 557 l 2,26,27
EndSplineSet
EndChar

StartChar: E
Encoding: 69 69 40
Width: 502
Flags: W
LayerCount: 2
Fore
SplineSet
30 349 m 0,0,1
 30 382 30 382 30.5 407.5 c 128,-1,2
 31 433 31 433 32.5 458 c 128,-1,3
 34 483 34 483 37.5 511 c 128,-1,4
 41 539 41 539 46 577 c 1,5,6
 91 593 91 593 128.5 603 c 128,-1,7
 166 613 166 613 202 618.5 c 128,-1,8
 238 624 238 624 275 626 c 128,-1,9
 312 628 312 628 356 628 c 0,10,11
 363 628 363 628 376.5 627.5 c 128,-1,12
 390 627 390 627 403.5 626 c 128,-1,13
 417 625 417 625 428 624.5 c 128,-1,14
 439 624 439 624 442 623 c 2,15,-1
 472 608 l 1,16,-1
 456 593 l 1,17,18
 448 594 448 594 426.5 594.5 c 128,-1,19
 405 595 405 595 380.5 595 c 128,-1,20
 356 595 356 595 334.5 594.5 c 128,-1,21
 313 594 313 594 304 593 c 0,22,23
 289 591 289 591 266.5 587 c 128,-1,24
 244 583 244 583 220.5 578.5 c 128,-1,25
 197 574 197 574 174 569.5 c 128,-1,26
 151 565 151 565 132.5 560.5 c 128,-1,27
 114 556 114 556 102.5 552.5 c 128,-1,28
 91 549 91 549 91 547 c 2,29,-1
 91 349 l 1,30,-1
 386 349 l 1,31,32
 386 338 386 338 368.5 331 c 128,-1,33
 351 324 351 324 323 319 c 128,-1,34
 295 314 295 314 262 310.5 c 128,-1,35
 229 307 229 307 197.5 304 c 128,-1,36
 166 301 166 301 141.5 297.5 c 128,-1,37
 117 294 117 294 106 289 c 1,38,39
 106 283 106 283 106 270.5 c 128,-1,40
 106 258 106 258 105.5 243.5 c 128,-1,41
 105 229 105 229 105 215 c 2,42,-1
 105 197 l 2,43,44
 105 178 105 178 104 152 c 128,-1,45
 103 126 103 126 106.5 102 c 128,-1,46
 110 78 110 78 123 61 c 128,-1,47
 136 44 136 44 163 44 c 0,48,49
 201 44 201 44 238.5 46.5 c 128,-1,50
 276 49 276 49 313.5 52 c 128,-1,51
 351 55 351 55 388.5 58 c 128,-1,52
 426 61 426 61 463 61 c 2,53,-1
 487 61 l 1,54,55
 479 50 479 50 466.5 39 c 128,-1,56
 454 28 454 28 439.5 19.5 c 128,-1,57
 425 11 425 11 409.5 5.5 c 128,-1,58
 394 0 394 0 380 0 c 2,59,-1
 137 0 l 2,60,61
 102 0 102 0 80.5 20.5 c 128,-1,62
 59 41 59 41 47 73.5 c 128,-1,63
 35 106 35 106 31 145.5 c 128,-1,64
 27 185 27 185 26.5 224 c 128,-1,65
 26 263 26 263 28 296.5 c 128,-1,66
 30 330 30 330 30 349 c 0,0,1
EndSplineSet
EndChar

StartChar: F
Encoding: 70 70 41
Width: 532
Flags: W
LayerCount: 2
Fore
SplineSet
68 15 m 0,0,1
 58 85 58 85 50 166 c 128,-1,2
 42 247 42 247 36 330.5 c 128,-1,3
 30 414 30 414 26.5 495 c 128,-1,4
 23 576 23 576 23 647 c 2,5,-1
 23 653 l 1,6,7
 24 655 24 655 26 659.5 c 128,-1,8
 28 664 28 664 30 668.5 c 128,-1,9
 32 673 32 673 34.5 677.5 c 128,-1,10
 37 682 37 682 38 684 c 1,11,12
 91 682 91 682 142.5 684 c 128,-1,13
 194 686 194 686 245.5 690 c 128,-1,14
 297 694 297 694 348 697.5 c 128,-1,15
 399 701 399 701 451 701 c 2,16,-1
 463 701 l 2,17,18
 469 701 469 701 476 700.5 c 128,-1,19
 483 700 483 700 488 700 c 128,-1,20
 493 700 493 700 494 700 c 2,21,-1
 510 684 l 1,22,-1
 494 669 l 2,23,24
 493 668 493 668 476.5 666 c 128,-1,25
 460 664 460 664 434 661.5 c 128,-1,26
 408 659 408 659 375 655.5 c 128,-1,27
 342 652 342 652 308 649 c 128,-1,28
 274 646 274 646 243.5 643 c 128,-1,29
 213 640 213 640 190 639 c 0,30,31
 162 637 162 637 144 638.5 c 128,-1,32
 126 640 126 640 116 637 c 128,-1,33
 106 634 106 634 102 622 c 128,-1,34
 98 610 98 610 98 581 c 2,35,-1
 98 569 l 2,36,37
 98 562 98 562 98.5 554 c 128,-1,38
 99 546 99 546 99 539 c 2,39,-1
 99 532 l 1,40,41
 100 517 100 517 102 494.5 c 128,-1,42
 104 472 104 472 106.5 450 c 128,-1,43
 109 428 109 428 111.5 412 c 128,-1,44
 114 396 114 396 115 395 c 2,45,-1
 130 380 l 1,46,-1
 407 380 l 1,47,48
 407 361 407 361 395.5 354.5 c 128,-1,49
 384 348 384 348 368 347 c 128,-1,50
 352 346 352 346 336.5 348 c 128,-1,51
 321 350 321 350 312 349 c 0,52,53
 305 349 305 349 291 348 c 128,-1,54
 277 347 277 347 259 345.5 c 128,-1,55
 241 344 241 344 221 342.5 c 128,-1,56
 201 341 201 341 183 339.5 c 128,-1,57
 165 338 165 338 150.5 336.5 c 128,-1,58
 136 335 136 335 130 334 c 1,59,60
 127 331 127 331 121.5 319.5 c 128,-1,61
 116 308 116 308 115 304 c 1,62,-1
 115 289 l 2,63,64
 115 279 115 279 116.5 258.5 c 128,-1,65
 118 238 118 238 119.5 213 c 128,-1,66
 121 188 121 188 122.5 159.5 c 128,-1,67
 124 131 124 131 125.5 106 c 128,-1,68
 127 81 127 81 128 60.5 c 128,-1,69
 129 40 129 40 130 31 c 1,70,71
 127 26 127 26 121 21 c 128,-1,72
 115 16 115 16 108.5 11.5 c 128,-1,73
 102 7 102 7 95 3.5 c 128,-1,74
 88 0 88 0 84 0 c 256,75,76
 80 0 80 0 74 5.5 c 128,-1,77
 68 11 68 11 68 15 c 0,0,1
EndSplineSet
EndChar

StartChar: G
Encoding: 71 71 42
Width: 829
Flags: W
LayerCount: 2
Fore
SplineSet
547 106 m 1,0,1
 541 101 541 101 523 91.5 c 128,-1,2
 505 82 505 82 484.5 72.5 c 128,-1,3
 464 63 464 63 445.5 55 c 128,-1,4
 427 47 427 47 418 45 c 1,5,6
 418 45 418 45 410 44.5 c 128,-1,7
 402 44 402 44 391 43.5 c 128,-1,8
 380 43 380 43 369 43 c 2,9,-1
 351 43 l 2,10,11
 288 43 288 43 228.5 64 c 128,-1,12
 169 85 169 85 122.5 124 c 128,-1,13
 76 163 76 163 48.5 218.5 c 128,-1,14
 21 274 21 274 21 343 c 0,15,16
 21 380 21 380 27.5 425.5 c 128,-1,17
 34 471 34 471 47.5 518 c 128,-1,18
 61 565 61 565 82 608.5 c 128,-1,19
 103 652 103 652 133 686.5 c 128,-1,20
 163 721 163 721 202 742 c 128,-1,21
 241 763 241 763 290 763 c 0,22,23
 317 763 317 763 348.5 753 c 128,-1,24
 380 743 380 743 407 724.5 c 128,-1,25
 434 706 434 706 452.5 680.5 c 128,-1,26
 471 655 471 655 471 623 c 1,27,-1
 448 623 l 1,28,29
 427 648 427 648 412 665.5 c 128,-1,30
 397 683 397 683 380.5 694.5 c 128,-1,31
 364 706 364 706 344.5 711 c 128,-1,32
 325 716 325 716 296 716 c 0,33,34
 259 716 259 716 229 699.5 c 128,-1,35
 199 683 199 683 175 656 c 128,-1,36
 151 629 151 629 133.5 594 c 128,-1,37
 116 559 116 559 105 522 c 128,-1,38
 94 485 94 485 88 449 c 128,-1,39
 82 413 82 413 82 384 c 0,40,41
 82 325 82 325 98.5 272 c 128,-1,42
 115 219 115 219 147 178.5 c 128,-1,43
 179 138 179 138 226.5 114 c 128,-1,44
 274 90 274 90 337 90 c 0,45,46
 389 90 389 90 424.5 99.5 c 128,-1,47
 460 109 460 109 486 130 c 128,-1,48
 512 151 512 151 531.5 186.5 c 128,-1,49
 551 222 551 222 571 274 c 1,50,-1
 540 289 l 1,51,52
 493 282 493 282 453.5 277.5 c 128,-1,53
 414 273 414 273 370 273 c 0,54,55
 365 273 365 273 358.5 272.5 c 128,-1,56
 352 272 352 272 345.5 273 c 128,-1,57
 339 274 339 274 333.5 277.5 c 128,-1,58
 328 281 328 281 327 289 c 1,59,60
 331 298 331 298 343 305 c 128,-1,61
 355 312 355 312 370 317 c 128,-1,62
 385 322 385 322 402 325 c 128,-1,63
 419 328 419 328 434.5 330 c 128,-1,64
 450 332 450 332 462 333 c 128,-1,65
 474 334 474 334 479 334 c 0,66,67
 491 335 491 335 516 336 c 128,-1,68
 541 337 541 337 573 337.5 c 128,-1,69
 605 338 605 338 640.5 339 c 128,-1,70
 676 340 676 340 708 340 c 128,-1,71
 740 340 740 340 765.5 340.5 c 128,-1,72
 791 341 791 341 803 341 c 1,73,74
 803 340 803 340 802.5 331 c 128,-1,75
 802 322 802 322 800 310.5 c 128,-1,76
 798 299 798 299 794 290 c 128,-1,77
 790 281 790 281 783 281 c 2,78,-1
 631 281 l 2,79,80
 621 281 621 281 618 262.5 c 128,-1,81
 615 244 615 244 615.5 216 c 128,-1,82
 616 188 616 188 617.5 155 c 128,-1,83
 619 122 619 122 617.5 92.5 c 128,-1,84
 616 63 616 63 608.5 41 c 128,-1,85
 601 19 601 19 586 15 c 0,86,87
 575 13 575 13 562 11 c 1,88,-1
 547 10 l 1,89,-1
 547 106 l 1,0,1
EndSplineSet
EndChar

StartChar: H
Encoding: 72 72 43
Width: 577
Flags: W
LayerCount: 2
Fore
SplineSet
46 304 m 1,0,1
 39 315 39 315 34.5 323 c 128,-1,2
 30 331 30 331 30 343 c 0,3,4
 30 351 30 351 33 355.5 c 128,-1,5
 36 360 36 360 46 364 c 1,6,-1
 46 724 l 1,7,8
 64 724 64 724 77 714 c 128,-1,9
 90 704 90 704 91 684 c 1,10,-1
 122 380 l 1,11,-1
 442 380 l 1,12,-1
 456 395 l 2,13,14
 457 396 457 396 459 417.5 c 128,-1,15
 461 439 461 439 463.5 467.5 c 128,-1,16
 466 496 466 496 468.5 527 c 128,-1,17
 471 558 471 558 472 577 c 0,18,19
 472 584 472 584 472 601.5 c 128,-1,20
 472 619 472 619 472 638.5 c 128,-1,21
 472 658 472 658 472 675.5 c 128,-1,22
 472 693 472 693 472 700 c 1,23,-1
 502 730 l 1,24,25
 505 730 505 730 511 724 c 128,-1,26
 517 718 517 718 517 715 c 1,27,28
 519 710 519 710 521 699 c 128,-1,29
 523 688 523 688 526 676 c 128,-1,30
 529 664 529 664 530.5 653.5 c 128,-1,31
 532 643 532 643 532 639 c 0,32,33
 533 630 533 630 533 610 c 2,34,-1
 533 466 l 2,35,36
 533 442 533 442 532.5 423 c 128,-1,37
 532 404 532 404 532 395 c 1,38,39
 540 385 540 385 544 376.5 c 128,-1,40
 548 368 548 368 548 357 c 256,41,42
 548 346 548 346 544 338 c 128,-1,43
 540 330 540 330 532 319 c 1,44,-1
 532 76 l 2,45,46
 532 70 532 70 529 66.5 c 128,-1,47
 526 63 526 63 521 61.5 c 128,-1,48
 516 60 516 60 511 60 c 2,49,-1
 502 60 l 2,50,51
 499 60 499 60 492.5 60.5 c 128,-1,52
 486 61 486 61 479.5 62.5 c 128,-1,53
 473 64 473 64 468 67 c 128,-1,54
 463 70 463 70 463 76 c 2,55,-1
 463 304 l 1,56,-1
 442 334 l 1,57,-1
 122 319 l 1,58,-1
 91 15 l 2,59,60
 91 13 91 13 87.5 10.5 c 128,-1,61
 84 8 84 8 79 6 c 128,-1,62
 74 4 74 4 69 2 c 128,-1,63
 64 0 64 0 61 0 c 256,64,65
 58 0 58 0 52 5.5 c 128,-1,66
 46 11 46 11 46 15 c 2,67,-1
 46 304 l 1,0,1
EndSplineSet
EndChar

StartChar: I
Encoding: 73 73 44
Width: 121
Flags: W
LayerCount: 2
Fore
SplineSet
54 775 m 1,0,1
 58 772 58 772 63 766.5 c 128,-1,2
 68 761 68 761 72.5 754.5 c 128,-1,3
 77 748 77 748 80.5 741 c 128,-1,4
 84 734 84 734 84 730 c 2,5,-1
 84 15 l 2,6,7
 84 11 84 11 78 5.5 c 128,-1,8
 72 0 72 0 68 0 c 0,9,10
 65 0 65 0 60 2 c 128,-1,11
 55 4 55 4 50 6 c 128,-1,12
 45 8 45 8 41.5 10.5 c 128,-1,13
 38 13 38 13 38 15 c 2,14,-1
 38 745 l 1,15,-1
 54 775 l 1,0,1
EndSplineSet
EndChar

StartChar: J
Encoding: 74 74 45
Width: 669
Flags: W
LayerCount: 2
Fore
SplineSet
23 136 m 0,0,1
 23 139 23 139 25 143.5 c 128,-1,2
 27 148 27 148 29 153 c 128,-1,3
 31 158 31 158 34 162 c 128,-1,4
 37 166 37 166 38 167 c 1,5,6
 48 133 48 133 68.5 109.5 c 128,-1,7
 89 86 89 86 115.5 71.5 c 128,-1,8
 142 57 142 57 173.5 50.5 c 128,-1,9
 205 44 205 44 236 44 c 256,10,11
 267 44 267 44 287.5 55.5 c 128,-1,12
 308 67 308 67 327 91 c 1,13,14
 339 130 339 130 345.5 159.5 c 128,-1,15
 352 189 352 189 355 217 c 128,-1,16
 358 245 358 245 358.5 274.5 c 128,-1,17
 359 304 359 304 359 340 c 2,18,-1
 359 365 l 2,19,20
 359 381 359 381 358.5 397.5 c 128,-1,21
 358 414 358 414 358 426.5 c 128,-1,22
 358 439 358 439 358 441 c 0,23,24
 356 459 356 459 354 484 c 128,-1,25
 352 509 352 509 348.5 536 c 128,-1,26
 345 563 345 563 341.5 589.5 c 128,-1,27
 338 616 338 616 335 637 c 128,-1,28
 332 658 332 658 330 671 c 128,-1,29
 328 684 328 684 327 684 c 2,30,-1
 54 684 l 1,31,-1
 54 715 l 2,32,33
 54 716 54 716 60.5 718.5 c 128,-1,34
 67 721 67 721 77 723.5 c 128,-1,35
 87 726 87 726 97.5 728 c 128,-1,36
 108 730 108 730 115 730 c 2,37,-1
 126 730 l 2,38,39
 136 730 136 730 149.5 730 c 128,-1,40
 163 730 163 730 178 730 c 2,41,-1
 200 730 l 2,42,43
 217 730 217 730 258 731 c 128,-1,44
 299 732 299 732 349.5 731 c 128,-1,45
 400 730 400 730 454 726.5 c 128,-1,46
 508 723 508 723 553 714.5 c 128,-1,47
 598 706 598 706 626.5 691 c 128,-1,48
 655 676 655 676 655 653 c 1,49,-1
 406 653 l 1,50,51
 406 567 406 567 412.5 481.5 c 128,-1,52
 419 396 419 396 419 310 c 0,53,54
 419 277 419 277 417.5 241 c 128,-1,55
 416 205 416 205 410 170.5 c 128,-1,56
 404 136 404 136 392 105 c 128,-1,57
 380 74 380 74 360 50.5 c 128,-1,58
 340 27 340 27 309.5 13 c 128,-1,59
 279 -1 279 -1 236 -1 c 0,60,61
 207 -1 207 -1 170 6 c 128,-1,62
 133 13 133 13 100.5 29.5 c 128,-1,63
 68 46 68 46 45.5 72 c 128,-1,64
 23 98 23 98 23 136 c 0,0,1
EndSplineSet
EndChar

StartChar: K
Encoding: 75 75 46
Width: 684
Flags: W
LayerCount: 2
Fore
SplineSet
46 623 m 1,0,1
 37 652 37 652 32.5 683.5 c 128,-1,2
 28 715 28 715 28 745 c 1,3,-1
 76 745 l 2,4,5
 77 745 77 745 81 731 c 128,-1,6
 85 717 85 717 90 698 c 128,-1,7
 95 679 95 679 99.5 658 c 128,-1,8
 104 637 104 637 106 623 c 0,9,10
 108 613 108 613 110.5 587.5 c 128,-1,11
 113 562 113 562 115.5 532.5 c 128,-1,12
 118 503 118 503 120 477 c 128,-1,13
 122 451 122 451 122 441 c 1,14,-1
 152 441 l 2,15,16
 153 441 153 441 167 449.5 c 128,-1,17
 181 458 181 458 200.5 470 c 128,-1,18
 220 482 220 482 240.5 495 c 128,-1,19
 261 508 261 508 274 517 c 0,20,21
 326 552 326 552 375 590 c 128,-1,22
 424 628 424 628 472 669 c 1,23,-1
 502 669 l 1,24,-1
 502 653 l 2,25,26
 502 652 502 652 491.5 641.5 c 128,-1,27
 481 631 481 631 466.5 616 c 128,-1,28
 452 601 452 601 436.5 586.5 c 128,-1,29
 421 572 421 572 411 563 c 0,30,31
 397 551 397 551 373 534.5 c 128,-1,32
 349 518 349 518 320 500 c 128,-1,33
 291 482 291 482 261 463 c 128,-1,34
 231 444 231 444 206.5 427 c 128,-1,35
 182 410 182 410 166.5 396 c 128,-1,36
 151 382 151 382 151 373 c 0,37,38
 151 371 151 371 151 368 c 128,-1,39
 151 365 151 365 152 364 c 2,40,-1
 244 259 l 1,41,-1
 472 116 l 1,42,43
 501 116 501 116 523.5 113 c 128,-1,44
 546 110 546 110 567.5 106 c 128,-1,45
 589 102 589 102 613 98 c 128,-1,46
 637 94 637 94 670 91 c 1,47,48
 670 91 670 91 670 88 c 128,-1,49
 670 85 670 85 670 84 c 0,50,51
 670 76 670 76 667 70.5 c 128,-1,52
 664 65 664 65 654 61 c 1,53,54
 651 61 651 61 643.5 60 c 128,-1,55
 636 59 636 59 627.5 58.5 c 128,-1,56
 619 58 619 58 611.5 58 c 128,-1,57
 604 58 604 58 601 58 c 0,58,59
 544 58 544 58 488.5 75 c 128,-1,60
 433 92 433 92 379.5 119 c 128,-1,61
 326 146 326 146 276.5 179 c 128,-1,62
 227 212 227 212 183 244 c 1,63,64
 168 253 168 253 162.5 259.5 c 128,-1,65
 157 266 157 266 154 271 c 128,-1,66
 151 276 151 276 145 280 c 128,-1,67
 139 284 139 284 122 289 c 1,68,69
 122 284 122 284 122.5 273.5 c 128,-1,70
 123 263 123 263 123 250.5 c 128,-1,71
 123 238 123 238 122.5 227.5 c 128,-1,72
 122 217 122 217 122 213 c 0,73,74
 121 199 121 199 119.5 181 c 128,-1,75
 118 163 118 163 116.5 142.5 c 128,-1,76
 115 122 115 122 113.5 102 c 128,-1,77
 112 82 112 82 110.5 66.5 c 128,-1,78
 109 51 109 51 107 40 c 2,79,-1
 106 31 l 1,80,-1
 76 0 l 1,81,-1
 46 31 l 1,82,-1
 46 623 l 1,0,1
EndSplineSet
EndChar

StartChar: L
Encoding: 76 76 47
Width: 723
Flags: W
LayerCount: 2
Fore
SplineSet
129 31 m 0,0,1
 115 31 115 31 103 28 c 128,-1,2
 91 25 91 25 78.5 21.5 c 128,-1,3
 66 18 66 18 53.5 15 c 128,-1,4
 41 12 41 12 28 12 c 1,5,6
 28 49 28 49 31.5 83 c 128,-1,7
 35 117 35 117 46 152 c 1,8,-1
 46 715 l 1,9,-1
 76 715 l 2,10,11
 77 715 77 715 79.5 703.5 c 128,-1,12
 82 692 82 692 85 673.5 c 128,-1,13
 88 655 88 655 91 632 c 128,-1,14
 94 609 94 609 97 585.5 c 128,-1,15
 100 562 100 562 102.5 539.5 c 128,-1,16
 105 517 105 517 106 502 c 256,17,18
 107 487 107 487 109 456 c 128,-1,19
 111 425 111 425 112.5 386 c 128,-1,20
 114 347 114 347 116 304 c 128,-1,21
 118 261 118 261 119.5 222 c 128,-1,22
 121 183 121 183 121.5 152 c 128,-1,23
 122 121 122 121 122 106 c 1,24,25
 127 93 127 93 152.5 83.5 c 128,-1,26
 178 74 178 74 215.5 67 c 128,-1,27
 253 60 253 60 296.5 55.5 c 128,-1,28
 340 51 340 51 379.5 48.5 c 128,-1,29
 419 46 419 46 450 45 c 128,-1,30
 481 44 481 44 492 44 c 0,31,32
 519 44 519 44 543.5 51.5 c 128,-1,33
 568 59 568 59 592.5 68 c 128,-1,34
 617 77 617 77 642 84.5 c 128,-1,35
 667 92 667 92 693 92 c 0,36,37
 703 92 703 92 709 85.5 c 128,-1,38
 715 79 715 79 715 68 c 0,39,40
 715 55 715 55 696 44 c 128,-1,41
 677 33 677 33 647.5 25.5 c 128,-1,42
 618 18 618 18 582.5 12.5 c 128,-1,43
 547 7 547 7 512.5 4 c 128,-1,44
 478 1 478 1 451 0 c 128,-1,45
 424 -1 424 -1 411 -1 c 0,46,47
 375 -1 375 -1 339.5 4 c 128,-1,48
 304 9 304 9 269.5 15.5 c 128,-1,49
 235 22 235 22 199.5 26.5 c 128,-1,50
 164 31 164 31 129 31 c 0,0,1
EndSplineSet
EndChar

StartChar: M
Encoding: 77 77 48
Width: 791
Flags: W
LayerCount: 2
Fore
SplineSet
99 653 m 1,0,-1
 130 684 l 1,1,-1
 160 653 l 1,2,-1
 296 319 l 1,3,4
 296 319 296 319 298.5 318.5 c 128,-1,5
 301 318 301 318 303 318 c 0,6,7
 319 318 319 318 327 334 c 2,8,-1
 448 577 l 1,9,-1
 535 664 l 1,10,-1
 571 593 l 1,11,12
 577 541 577 541 582.5 476 c 128,-1,13
 588 411 588 411 598.5 342.5 c 128,-1,14
 609 274 609 274 627.5 208.5 c 128,-1,15
 646 143 646 143 676 91 c 0,16,17
 686 74 686 74 698.5 65 c 128,-1,18
 711 56 711 56 723.5 49.5 c 128,-1,19
 736 43 736 43 747.5 35.5 c 128,-1,20
 759 28 759 28 768 15 c 1,21,22
 764 1 764 1 752.5 0 c 128,-1,23
 741 -1 741 -1 731 -1 c 0,24,25
 696 -1 696 -1 665.5 21 c 128,-1,26
 635 43 635 43 612 76 c 128,-1,27
 589 109 589 109 574 146 c 128,-1,28
 559 183 559 183 555 213 c 0,29,30
 553 226 553 226 549 253 c 128,-1,31
 545 280 545 280 540.5 314.5 c 128,-1,32
 536 349 536 349 531 387.5 c 128,-1,33
 526 426 526 426 521.5 460.5 c 128,-1,34
 517 495 517 495 514 522.5 c 128,-1,35
 511 550 511 550 510 563 c 1,36,37
 477 536 477 536 451 493 c 128,-1,38
 425 450 425 450 405 402 c 128,-1,39
 385 354 385 354 370 307.5 c 128,-1,40
 355 261 355 261 343 228 c 1,41,42
 339 214 339 214 326.5 212.5 c 128,-1,43
 314 211 314 211 304 211 c 0,44,45
 301 211 301 211 292.5 211.5 c 128,-1,46
 284 212 284 212 282 213 c 1,47,48
 241 280 241 280 212 354 c 128,-1,49
 183 428 183 428 160 502 c 1,50,-1
 145 517 l 1,51,52
 142 501 142 501 137.5 467.5 c 128,-1,53
 133 434 133 434 127 392 c 128,-1,54
 121 350 121 350 114.5 304 c 128,-1,55
 108 258 108 258 102 216 c 128,-1,56
 96 174 96 174 91 140.5 c 128,-1,57
 86 107 86 107 84 91 c 1,58,59
 80 71 80 71 73 45 c 128,-1,60
 66 19 66 19 54 0 c 1,61,62
 49 2 49 2 44 8 c 128,-1,63
 39 14 39 14 34 21 c 128,-1,64
 29 28 29 28 25.5 34.5 c 128,-1,65
 22 41 22 41 23 45 c 2,66,-1
 99 653 l 1,0,-1
EndSplineSet
EndChar

StartChar: N
Encoding: 78 78 49
Width: 623
Flags: W
LayerCount: 2
Fore
SplineSet
388 45 m 0,0,1
 349 102 349 102 310 165 c 128,-1,2
 271 228 271 228 235 294 c 128,-1,3
 199 360 199 360 168 428 c 128,-1,4
 137 496 137 496 115 563 c 1,5,-1
 97 563 l 1,6,7
 97 554 97 554 97 532.5 c 128,-1,8
 97 511 97 511 98 487 c 128,-1,9
 99 463 99 463 99 441 c 2,10,-1
 99 411 l 1,11,12
 98 397 98 397 97.5 370 c 128,-1,13
 97 343 97 343 95.5 308.5 c 128,-1,14
 94 274 94 274 92.5 236 c 128,-1,15
 91 198 91 198 89 163.5 c 128,-1,16
 87 129 87 129 86 101.5 c 128,-1,17
 85 74 85 74 84 61 c 1,18,19
 81 56 81 56 75.5 51 c 128,-1,20
 70 46 70 46 63 41.5 c 128,-1,21
 56 37 56 37 49.5 34 c 128,-1,22
 43 31 43 31 38 31 c 0,23,24
 31 31 31 31 27.5 36 c 128,-1,25
 24 41 24 41 23 48 c 128,-1,26
 22 55 22 55 22 61.5 c 128,-1,27
 22 68 22 68 22 71 c 0,28,29
 22 139 22 139 25.5 205.5 c 128,-1,30
 29 272 29 272 32.5 339 c 128,-1,31
 36 406 36 406 38 473.5 c 128,-1,32
 40 541 40 541 38 608 c 1,33,34
 52 636 52 636 67 645.5 c 128,-1,35
 82 655 82 655 106 655 c 0,36,37
 109 655 109 655 118 654.5 c 128,-1,38
 127 654 127 654 130 653 c 1,39,40
 165 578 165 578 198.5 510 c 128,-1,41
 232 442 232 442 266.5 377 c 128,-1,42
 301 312 301 312 338 249 c 128,-1,43
 375 186 375 186 418 121 c 0,44,45
 420 119 420 119 425.5 113.5 c 128,-1,46
 431 108 431 108 434 106 c 1,47,48
 434 120 434 120 435 148.5 c 128,-1,49
 436 177 436 177 437.5 213.5 c 128,-1,50
 439 250 439 250 440.5 289 c 128,-1,51
 442 328 442 328 443.5 364.5 c 128,-1,52
 445 401 445 401 446.5 429.5 c 128,-1,53
 448 458 448 458 448 472 c 1,54,55
 450 492 450 492 453.5 522.5 c 128,-1,56
 457 553 457 553 464 587.5 c 128,-1,57
 471 622 471 622 481.5 656 c 128,-1,58
 492 690 492 690 507.5 717.5 c 128,-1,59
 523 745 523 745 543 762.5 c 128,-1,60
 563 780 563 780 590 780 c 1,61,62
 590 754 590 754 582.5 731 c 128,-1,63
 575 708 575 708 563.5 687 c 128,-1,64
 552 666 552 666 538.5 645.5 c 128,-1,65
 525 625 525 625 513.5 602.5 c 128,-1,66
 502 580 502 580 494.5 555.5 c 128,-1,67
 487 531 487 531 487 502 c 2,68,-1
 487 15 l 2,69,70
 487 14 487 14 482.5 12 c 128,-1,71
 478 10 478 10 472 8 c 128,-1,72
 466 6 466 6 459.5 3.5 c 128,-1,73
 453 1 453 1 448 0 c 2,74,75
 448 0 448 0 445 -0.5 c 128,-1,76
 442 -1 442 -1 441 -1 c 2,77,-1
 437 -1 l 2,78,79
 436 -1 436 -1 434 0 c 0,80,81
 431 2 431 2 424.5 8.5 c 128,-1,82
 418 15 418 15 410.5 22 c 128,-1,83
 403 29 403 29 396.5 36 c 128,-1,84
 390 43 390 43 388 45 c 0,0,1
EndSplineSet
EndChar

StartChar: O
Encoding: 79 79 50
Width: 502
Flags: W
LayerCount: 2
Fore
SplineSet
22 202 m 0,0,1
 22 238 22 238 26.5 284.5 c 128,-1,2
 31 331 31 331 41.5 380 c 128,-1,3
 52 429 52 429 69.5 476 c 128,-1,4
 87 523 87 523 113 559.5 c 128,-1,5
 139 596 139 596 174.5 618.5 c 128,-1,6
 210 641 210 641 256 641 c 0,7,8
 319 641 319 641 359.5 615 c 128,-1,9
 400 589 400 589 423.5 547.5 c 128,-1,10
 447 506 447 506 456.5 454 c 128,-1,11
 466 402 466 402 466 350 c 0,12,13
 466 283 466 283 452.5 220 c 128,-1,14
 439 157 439 157 407.5 107.5 c 128,-1,15
 376 58 376 58 325 28.5 c 128,-1,16
 274 -1 274 -1 197 -1 c 0,17,18
 148 -1 148 -1 115 15 c 128,-1,19
 82 31 82 31 61 58 c 128,-1,20
 40 85 40 85 31 122.5 c 128,-1,21
 22 160 22 160 22 202 c 0,0,1
83 219 m 0,22,23
 83 184 83 184 87.5 152 c 128,-1,24
 92 120 92 120 106 96.5 c 128,-1,25
 120 73 120 73 145.5 59 c 128,-1,26
 171 45 171 45 214 45 c 0,27,28
 274 45 274 45 314 70.5 c 128,-1,29
 354 96 354 96 377.5 137 c 128,-1,30
 401 178 401 178 410.5 229 c 128,-1,31
 420 280 420 280 420 331 c 0,32,33
 420 344 420 344 419.5 367.5 c 128,-1,34
 419 391 419 391 416 418 c 128,-1,35
 413 445 413 445 407.5 473.5 c 128,-1,36
 402 502 402 502 392 525 c 128,-1,37
 382 548 382 548 365.5 562.5 c 128,-1,38
 349 577 349 577 327 577 c 0,39,40
 273 577 273 577 233.5 564.5 c 128,-1,41
 194 552 194 552 167 528.5 c 128,-1,42
 140 505 140 505 123.5 472 c 128,-1,43
 107 439 107 439 98 399.5 c 128,-1,44
 89 360 89 360 86 314 c 128,-1,45
 83 268 83 268 83 219 c 0,22,23
EndSplineSet
EndChar

StartChar: P
Encoding: 80 80 51
Width: 508
Flags: W
LayerCount: 2
Fore
SplineSet
40 682 m 2,0,1
 41 683 41 683 46 685.5 c 128,-1,2
 51 688 51 688 53 688 c 0,3,4
 59 688 59 688 64 686 c 1,5,6
 64 688 64 688 63 688 c 0,7,8
 61 693 61 693 61 695 c 0,9,10
 61 712 61 712 71.5 721.5 c 128,-1,11
 82 731 82 731 97.5 736.5 c 128,-1,12
 113 742 113 742 132 743.5 c 128,-1,13
 151 745 151 745 168.5 745 c 128,-1,14
 186 745 186 745 200 743.5 c 128,-1,15
 214 742 214 742 220 742 c 0,16,17
 247 742 247 742 279.5 741 c 128,-1,18
 312 740 312 740 343.5 735.5 c 128,-1,19
 375 731 375 731 404 721.5 c 128,-1,20
 433 712 433 712 455.5 695 c 128,-1,21
 478 678 478 678 491 652 c 128,-1,22
 504 626 504 626 504 589 c 0,23,24
 504 549 504 549 494 516 c 128,-1,25
 484 483 484 483 457 451 c 1,26,27
 425 430 425 430 387.5 407.5 c 128,-1,28
 350 385 350 385 310 368 c 128,-1,29
 270 351 270 351 228 340 c 128,-1,30
 186 329 186 329 145 329 c 0,31,32
 139 329 139 329 130 329.5 c 128,-1,33
 121 330 121 330 112 332 c 128,-1,34
 103 334 103 334 97 339 c 128,-1,35
 91 344 91 344 91 353 c 0,36,37
 91 355 91 355 91 357.5 c 128,-1,38
 91 360 91 360 92 361 c 1,39,40
 128 359 128 359 164 367 c 128,-1,41
 200 375 200 375 235 388.5 c 128,-1,42
 270 402 270 402 303 418.5 c 128,-1,43
 336 435 336 435 365 451 c 0,44,45
 374 457 374 457 387 466 c 128,-1,46
 400 475 400 475 412 485 c 128,-1,47
 424 495 424 495 433 503 c 128,-1,48
 442 511 442 511 442 513 c 2,49,-1
 442 634 l 2,50,51
 442 636 442 636 438.5 640.5 c 128,-1,52
 435 645 435 645 429.5 650 c 128,-1,53
 424 655 424 655 419 659.5 c 128,-1,54
 414 664 414 664 411 665 c 0,55,56
 382 679 382 679 358 686 c 128,-1,57
 334 693 334 693 311 696 c 128,-1,58
 288 699 288 699 262 699 c 2,59,-1
 205 699 l 2,60,61
 197 699 197 699 184 698.5 c 128,-1,62
 171 698 171 698 158 697.5 c 128,-1,63
 145 697 145 697 134.5 696.5 c 128,-1,64
 124 696 124 696 122 695 c 2,65,-1
 81 668 l 1,66,67
 83 662 83 662 85 655 c 1,68,69
 86 646 86 646 86 637 c 2,70,-1
 86 59 l 2,71,72
 86 58 86 58 80 51.5 c 128,-1,73
 74 45 74 45 70 43 c 0,74,75
 68 42 68 42 61.5 39.5 c 128,-1,76
 55 37 55 37 47.5 35 c 128,-1,77
 40 33 40 33 34 31 c 128,-1,78
 28 29 28 29 25 28 c 1,79,-1
 25 606 l 1,80,-1
 40 682 l 2,0,1
EndSplineSet
EndChar

StartChar: Q
Encoding: 81 81 52
Width: 585
Flags: W
LayerCount: 2
Fore
SplineSet
22 212 m 0,0,1
 22 240 22 240 28 284.5 c 128,-1,2
 34 329 34 329 46 380 c 128,-1,3
 58 431 58 431 76.5 483 c 128,-1,4
 95 535 95 535 120.5 576.5 c 128,-1,5
 146 618 146 618 179 644 c 128,-1,6
 212 670 212 670 253 670 c 0,7,8
 316 670 316 670 366.5 647.5 c 128,-1,9
 417 625 417 625 452.5 586 c 128,-1,10
 488 547 488 547 507 494 c 128,-1,11
 526 441 526 441 526 380 c 0,12,13
 526 355 526 355 521 332.5 c 128,-1,14
 516 310 516 310 509.5 287.5 c 128,-1,15
 503 265 503 265 498 242.5 c 128,-1,16
 493 220 493 220 493 195 c 0,17,18
 493 174 493 174 502 161 c 128,-1,19
 511 148 511 148 522.5 136 c 128,-1,20
 534 124 534 124 543.5 110.5 c 128,-1,21
 553 97 553 97 555 76 c 1,22,23
 553 75 553 75 544 74 c 128,-1,24
 535 73 535 73 532 73 c 0,25,26
 517 73 517 73 507.5 81 c 128,-1,27
 498 89 498 89 489.5 98.5 c 128,-1,28
 481 108 481 108 472 116 c 128,-1,29
 463 124 463 124 448 124 c 0,30,31
 447 124 447 124 441.5 123 c 128,-1,32
 436 122 436 122 434 121 c 0,33,34
 404 91 404 91 373.5 68.5 c 128,-1,35
 343 46 343 46 310.5 30 c 128,-1,36
 278 14 278 14 242 6 c 128,-1,37
 206 -2 206 -2 163 -2 c 0,38,39
 122 -2 122 -2 94.5 18.5 c 128,-1,40
 67 39 67 39 51 70.5 c 128,-1,41
 35 102 35 102 28.5 139.5 c 128,-1,42
 22 177 22 177 22 212 c 0,0,1
82 231 m 0,43,44
 82 199 82 199 85 168.5 c 128,-1,45
 88 138 88 138 98.5 113.5 c 128,-1,46
 109 89 109 89 131 74 c 128,-1,47
 153 59 153 59 192 59 c 0,48,49
 227 59 227 59 256 66 c 128,-1,50
 285 73 285 73 310 86.5 c 128,-1,51
 335 100 335 100 357.5 120 c 128,-1,52
 380 140 380 140 403 167 c 1,53,-1
 296 274 l 1,54,-1
 296 300 l 1,55,56
 320 300 320 300 337 294.5 c 128,-1,57
 354 289 354 289 368.5 278.5 c 128,-1,58
 383 268 383 268 398 255 c 128,-1,59
 413 242 413 242 434 228 c 1,60,61
 453 239 453 239 462.5 256.5 c 128,-1,62
 472 274 472 274 476 294.5 c 128,-1,63
 480 315 480 315 480.5 336 c 128,-1,64
 481 357 481 357 481 375 c 0,65,66
 481 420 481 420 470 467 c 128,-1,67
 459 514 459 514 435.5 552.5 c 128,-1,68
 412 591 412 591 374 615.5 c 128,-1,69
 336 640 336 640 281 640 c 0,70,71
 241 640 241 640 211 617.5 c 128,-1,72
 181 595 181 595 158.5 558.5 c 128,-1,73
 136 522 136 522 121.5 476.5 c 128,-1,74
 107 431 107 431 98.5 385.5 c 128,-1,75
 90 340 90 340 86 299 c 128,-1,76
 82 258 82 258 82 231 c 0,43,44
EndSplineSet
EndChar

StartChar: R
Encoding: 82 82 53
Width: 692
Flags: W
LayerCount: 2
Fore
SplineSet
38 608 m 1,0,1
 28 622 28 622 25 631 c 128,-1,2
 22 640 22 640 22 653 c 0,3,4
 22 677 22 677 35.5 696 c 128,-1,5
 49 715 49 715 70 728.5 c 128,-1,6
 91 742 91 742 117 751 c 128,-1,7
 143 760 143 760 170 766 c 128,-1,8
 197 772 197 772 221.5 774.5 c 128,-1,9
 246 777 246 777 264 777 c 0,10,11
 338 777 338 777 371.5 745.5 c 128,-1,12
 405 714 405 714 405 640 c 0,13,14
 405 541 405 541 357 479.5 c 128,-1,15
 309 418 309 418 220 380 c 0,16,17
 220 379 220 379 220 376.5 c 128,-1,18
 220 374 220 374 220 373 c 0,19,20
 220 338 220 338 245.5 308.5 c 128,-1,21
 271 279 271 279 312 255.5 c 128,-1,22
 353 232 353 232 403.5 214 c 128,-1,23
 454 196 454 196 503 184 c 128,-1,24
 552 172 552 172 594.5 168 c 128,-1,25
 637 164 637 164 662 167 c 1,26,-1
 676 152 l 1,27,28
 670 139 670 139 656 132 c 128,-1,29
 642 125 642 125 625.5 122.5 c 128,-1,30
 609 120 609 120 592.5 120.5 c 128,-1,31
 576 121 576 121 564 121 c 0,32,33
 507 121 507 121 449 136.5 c 128,-1,34
 391 152 391 152 337.5 180.5 c 128,-1,35
 284 209 284 209 238 248 c 128,-1,36
 192 287 192 287 160 334 c 1,37,-1
 130 334 l 1,38,-1
 130 6 l 1,39,40
 109 6 109 6 100 14 c 128,-1,41
 91 22 91 22 88 35 c 128,-1,42
 85 48 85 48 85 63 c 128,-1,43
 85 78 85 78 84 91 c 0,44,45
 82 111 82 111 78.5 151.5 c 128,-1,46
 75 192 75 192 70.5 242.5 c 128,-1,47
 66 293 66 293 61 349.5 c 128,-1,48
 56 406 56 406 51.5 457 c 128,-1,49
 47 508 47 508 43.5 548.5 c 128,-1,50
 40 589 40 589 38 608 c 1,0,1
115 441 m 1,51,52
 125 421 125 421 133.5 415.5 c 128,-1,53
 142 410 142 410 158 410 c 0,54,55
 196 410 196 410 232.5 428.5 c 128,-1,56
 269 447 269 447 297 476 c 128,-1,57
 325 505 325 505 341.5 542 c 128,-1,58
 358 579 358 579 358 616 c 0,59,60
 358 635 358 635 355.5 655.5 c 128,-1,61
 353 676 353 676 345 693 c 128,-1,62
 337 710 337 710 322 720.5 c 128,-1,63
 307 731 307 731 284 731 c 0,64,65
 254 731 254 731 221.5 727.5 c 128,-1,66
 189 724 189 724 161.5 712.5 c 128,-1,67
 134 701 134 701 116 681 c 128,-1,68
 98 661 98 661 98 628 c 0,69,70
 98 602 98 602 99 580.5 c 128,-1,71
 100 559 100 559 101.5 537.5 c 128,-1,72
 103 516 103 516 106.5 492.5 c 128,-1,73
 110 469 110 469 115 441 c 1,51,52
EndSplineSet
EndChar

StartChar: S
Encoding: 83 83 54
Width: 532
Flags: W
LayerCount: 2
Fore
SplineSet
38 152 m 0,0,1
 38 161 38 161 46.5 164.5 c 128,-1,2
 55 168 55 168 61 168 c 256,3,4
 67 168 67 168 78.5 159.5 c 128,-1,5
 90 151 90 151 107 139 c 128,-1,6
 124 127 124 127 145 113 c 128,-1,7
 166 99 166 99 189.5 87 c 128,-1,8
 213 75 213 75 237.5 66.5 c 128,-1,9
 262 58 262 58 287 58 c 0,10,11
 323 58 323 58 353 67.5 c 128,-1,12
 383 77 383 77 404.5 96 c 128,-1,13
 426 115 426 115 438 143.5 c 128,-1,14
 450 172 450 172 450 210 c 0,15,16
 450 273 450 273 431.5 309.5 c 128,-1,17
 413 346 413 346 383 365.5 c 128,-1,18
 353 385 353 385 314.5 392 c 128,-1,19
 276 399 276 399 236 404 c 128,-1,20
 196 409 196 409 157 416.5 c 128,-1,21
 118 424 118 424 88 443.5 c 128,-1,22
 58 463 58 463 40 500.5 c 128,-1,23
 22 538 22 538 22 603 c 0,24,25
 22 635 22 635 25.5 666 c 128,-1,26
 29 697 29 697 41.5 722 c 128,-1,27
 54 747 54 747 77 762 c 128,-1,28
 100 777 100 777 137 777 c 0,29,30
 158 777 158 777 183.5 769.5 c 128,-1,31
 209 762 209 762 231 748 c 128,-1,32
 253 734 253 734 268 714 c 128,-1,33
 283 694 283 694 283 669 c 0,34,35
 283 667 283 667 282.5 661 c 128,-1,36
 282 655 282 655 282 653 c 1,37,38
 265 673 265 673 251.5 688 c 128,-1,39
 238 703 238 703 223.5 712.5 c 128,-1,40
 209 722 209 722 191.5 726.5 c 128,-1,41
 174 731 174 731 149 731 c 256,42,43
 124 731 124 731 108.5 722.5 c 128,-1,44
 93 714 93 714 83.5 699.5 c 128,-1,45
 74 685 74 685 70.5 665.5 c 128,-1,46
 67 646 67 646 67 625 c 0,47,48
 67 565 67 565 85 531 c 128,-1,49
 103 497 103 497 133.5 478.5 c 128,-1,50
 164 460 164 460 202.5 452.5 c 128,-1,51
 241 445 241 445 281.5 439 c 128,-1,52
 322 433 322 433 360.5 423 c 128,-1,53
 399 413 399 413 429.5 390 c 128,-1,54
 460 367 460 367 478 325.5 c 128,-1,55
 496 284 496 284 496 215 c 0,56,57
 496 158 496 158 479.5 117 c 128,-1,58
 463 76 463 76 432.5 50 c 128,-1,59
 402 24 402 24 357.5 11.5 c 128,-1,60
 313 -1 313 -1 256 -1 c 0,61,62
 244 -1 244 -1 223 5 c 128,-1,63
 202 11 202 11 178 22 c 128,-1,64
 154 33 154 33 129 47.5 c 128,-1,65
 104 62 104 62 84 79 c 128,-1,66
 64 96 64 96 51 114.5 c 128,-1,67
 38 133 38 133 38 152 c 0,0,1
EndSplineSet
EndChar

StartChar: T
Encoding: 84 84 55
Width: 737
Flags: W
LayerCount: 2
Fore
SplineSet
31 715 m 1,0,-1
 15 730 l 1,1,2
 22 739 22 739 36 749 c 128,-1,3
 50 759 50 759 61 760 c 1,4,5
 71 762 71 762 97 764 c 128,-1,6
 123 766 123 766 152 769 c 128,-1,7
 181 772 181 772 207 773.5 c 128,-1,8
 233 775 233 775 244 775 c 0,9,10
 262 775 262 775 298.5 776 c 128,-1,11
 335 777 335 777 381.5 777.5 c 128,-1,12
 428 778 428 778 479 778.5 c 128,-1,13
 530 779 530 779 576.5 779.5 c 128,-1,14
 623 780 623 780 660 780.5 c 128,-1,15
 697 781 697 781 715 781 c 1,16,-1
 715 745 l 1,17,18
 703 745 703 745 679 743.5 c 128,-1,19
 655 742 655 742 625 740.5 c 128,-1,20
 595 739 595 739 562 737.5 c 128,-1,21
 529 736 529 736 499 734.5 c 128,-1,22
 469 733 469 733 445.5 731.5 c 128,-1,23
 422 730 422 730 411 730 c 0,24,25
 405 730 405 730 389.5 727.5 c 128,-1,26
 374 725 374 725 357 723 c 128,-1,27
 340 721 340 721 325 718 c 128,-1,28
 310 715 310 715 304 715 c 1,29,30
 304 709 304 709 303.5 692.5 c 128,-1,31
 303 676 303 676 302.5 658 c 128,-1,32
 302 640 302 640 302 623 c 2,33,-1
 302 601 l 2,34,35
 302 535 302 535 307.5 471 c 128,-1,36
 313 407 313 407 319.5 343 c 128,-1,37
 326 279 326 279 331.5 214.5 c 128,-1,38
 337 150 337 150 337 85 c 0,39,40
 337 79 337 79 337 70 c 128,-1,41
 337 61 337 61 336.5 52.5 c 128,-1,42
 336 44 336 44 335 37.5 c 128,-1,43
 334 31 334 31 334 31 c 1,44,-1
 304 0 l 1,45,46
 290 7 290 7 284 20 c 128,-1,47
 278 33 278 33 276 48.5 c 128,-1,48
 274 64 274 64 274.5 79 c 128,-1,49
 275 94 275 94 274 106 c 0,50,51
 273 124 273 124 270.5 155 c 128,-1,52
 268 186 268 186 265 227 c 128,-1,53
 262 268 262 268 258.5 314.5 c 128,-1,54
 255 361 255 361 251 410 c 128,-1,55
 247 459 247 459 244 506 c 128,-1,56
 241 553 241 553 237.5 593.5 c 128,-1,57
 234 634 234 634 231.5 665.5 c 128,-1,58
 229 697 229 697 228 715 c 1,59,-1
 31 715 l 1,0,-1
EndSplineSet
EndChar

StartChar: U
Encoding: 85 85 56
Width: 745
Flags: W
LayerCount: 2
Fore
SplineSet
403 213 m 1,0,1
 374 191 374 191 352 162 c 128,-1,2
 330 133 330 133 306.5 107 c 128,-1,3
 283 81 283 81 254 62.5 c 128,-1,4
 225 44 225 44 182 44 c 0,5,6
 150 44 150 44 126 65 c 128,-1,7
 102 86 102 86 84.5 119.5 c 128,-1,8
 67 153 67 153 55.5 194.5 c 128,-1,9
 44 236 44 236 37.5 277 c 128,-1,10
 31 318 31 318 27.5 353.5 c 128,-1,11
 24 389 24 389 23 411 c 0,12,13
 23 419 23 419 22.5 437 c 128,-1,14
 22 455 22 455 21.5 477.5 c 128,-1,15
 21 500 21 500 20 525 c 128,-1,16
 19 550 19 550 19 572.5 c 128,-1,17
 19 595 19 595 18.5 612.5 c 128,-1,18
 18 630 18 630 18 639 c 1,19,-1
 68 639 l 1,20,21
 69 627 69 627 71 602 c 128,-1,22
 73 577 73 577 76 545.5 c 128,-1,23
 79 514 79 514 82.5 479 c 128,-1,24
 86 444 86 444 89.5 412.5 c 128,-1,25
 93 381 93 381 95 356 c 128,-1,26
 97 331 97 331 99 319 c 0,27,28
 102 292 102 292 106.5 255.5 c 128,-1,29
 111 219 111 219 122 185 c 128,-1,30
 133 151 133 151 153.5 128 c 128,-1,31
 174 105 174 105 208 105 c 0,32,33
 226 105 226 105 238.5 107.5 c 128,-1,34
 251 110 251 110 262.5 117 c 128,-1,35
 274 124 274 124 285.5 136 c 128,-1,36
 297 148 297 148 312 167 c 0,37,38
 316 173 316 173 326.5 191.5 c 128,-1,39
 337 210 337 210 349.5 231.5 c 128,-1,40
 362 253 362 253 372.5 274 c 128,-1,41
 383 295 383 295 388 304 c 1,42,43
 392 331 392 331 392 370.5 c 128,-1,44
 392 410 392 410 391 451.5 c 128,-1,45
 390 493 390 493 390.5 532 c 128,-1,46
 391 571 391 571 398 597 c 128,-1,47
 405 623 405 623 420.5 632 c 128,-1,48
 436 641 436 641 463 623 c 1,49,50
 463 612 463 612 463 589.5 c 128,-1,51
 463 567 463 567 462.5 538.5 c 128,-1,52
 462 510 462 510 462.5 479 c 128,-1,53
 463 448 463 448 463 419 c 2,54,-1
 463 367 l 2,55,56
 463 345 463 345 463 334 c 0,57,58
 464 312 464 312 466.5 283 c 128,-1,59
 469 254 469 254 474.5 223.5 c 128,-1,60
 480 193 480 193 489.5 163.5 c 128,-1,61
 499 134 499 134 515.5 111 c 128,-1,62
 532 88 532 88 555 73.5 c 128,-1,63
 578 59 578 59 610 59 c 0,64,65
 637 59 637 59 660 60.5 c 128,-1,66
 683 62 683 62 707 76 c 1,67,68
 708 74 708 74 709.5 68 c 128,-1,69
 711 62 711 62 711 61 c 0,70,71
 711 42 711 42 697.5 32 c 128,-1,72
 684 22 684 22 665.5 18 c 128,-1,73
 647 14 647 14 627.5 13.5 c 128,-1,74
 608 13 608 13 597 13 c 0,75,76
 557 13 557 13 523 29.5 c 128,-1,77
 489 46 489 46 463 73 c 128,-1,78
 437 100 437 100 421.5 136 c 128,-1,79
 406 172 406 172 403 213 c 1,0,1
EndSplineSet
EndChar

StartChar: V
Encoding: 86 86 57
Width: 571
Flags: W
LayerCount: 2
Fore
SplineSet
228 31 m 0,0,1
 202 85 202 85 172 151 c 128,-1,2
 142 217 142 217 113 287 c 128,-1,3
 84 357 84 357 58 428 c 128,-1,4
 32 499 32 499 15 563 c 1,5,6
 19 574 19 574 28.5 577 c 128,-1,7
 38 580 38 580 49 580 c 0,8,9
 52 580 52 580 56.5 579 c 128,-1,10
 61 578 61 578 61 577 c 2,11,-1
 259 121 l 1,12,13
 259 121 259 121 261.5 120 c 128,-1,14
 264 119 264 119 265 119 c 0,15,16
 273 119 273 119 283 144 c 128,-1,17
 293 169 293 169 305 210 c 128,-1,18
 317 251 317 251 331 303 c 128,-1,19
 345 355 345 355 361 409.5 c 128,-1,20
 377 464 377 464 395.5 516 c 128,-1,21
 414 568 414 568 434 609 c 128,-1,22
 454 650 454 650 476.5 675 c 128,-1,23
 499 700 499 700 524 700 c 0,24,25
 532 700 532 700 537.5 697 c 128,-1,26
 543 694 543 694 547 684 c 1,27,28
 543 676 543 676 534.5 661 c 128,-1,29
 526 646 526 646 515.5 626.5 c 128,-1,30
 505 607 505 607 493.5 585.5 c 128,-1,31
 482 564 482 564 471.5 544.5 c 128,-1,32
 461 525 461 525 453 509.5 c 128,-1,33
 445 494 445 494 441 487 c 0,34,35
 412 431 412 431 395.5 372 c 128,-1,36
 379 313 379 313 364 253 c 128,-1,37
 349 193 349 193 332.5 133 c 128,-1,38
 316 73 316 73 289 15 c 0,39,40
 288 13 288 13 284 10 c 128,-1,41
 280 7 280 7 275.5 4.5 c 128,-1,42
 271 2 271 2 266 0.5 c 128,-1,43
 261 -1 261 -1 259 0 c 0,44,45
 256 1 256 1 251 4.5 c 128,-1,46
 246 8 246 8 241 13 c 128,-1,47
 236 18 236 18 232.5 23 c 128,-1,48
 229 28 229 28 228 31 c 0,0,1
EndSplineSet
EndChar

StartChar: W
Encoding: 87 87 58
Width: 760
Flags: W
LayerCount: 2
Fore
SplineSet
14 601 m 0,0,1
 14 611 14 611 21 618 c 128,-1,2
 28 625 28 625 38 625 c 0,3,4
 46 625 46 625 52 619 c 128,-1,5
 58 613 58 613 62.5 605.5 c 128,-1,6
 67 598 67 598 70.5 590.5 c 128,-1,7
 74 583 74 583 76 577 c 2,8,-1
 198 183 l 1,9,-1
 213 197 l 1,10,-1
 304 577 l 1,11,-1
 346 619 l 1,12,-1
 532 228 l 1,13,-1
 563 197 l 1,14,-1
 578 228 l 1,15,16
 580 242 580 242 584.5 271.5 c 128,-1,17
 589 301 589 301 594.5 338.5 c 128,-1,18
 600 376 600 376 606.5 418 c 128,-1,19
 613 460 613 460 619.5 497.5 c 128,-1,20
 626 535 626 535 631 564.5 c 128,-1,21
 636 594 636 594 639 608 c 0,22,23
 640 617 640 617 646 639 c 128,-1,24
 652 661 652 661 659.5 685 c 128,-1,25
 667 709 667 709 673.5 730.5 c 128,-1,26
 680 752 680 752 684 760 c 0,27,28
 685 762 685 762 689.5 764.5 c 128,-1,29
 694 767 694 767 699 769.5 c 128,-1,30
 704 772 704 772 708 773.5 c 128,-1,31
 712 775 712 775 715 775 c 0,32,33
 722 775 722 775 725.5 770.5 c 128,-1,34
 729 766 729 766 730.5 760 c 128,-1,35
 732 754 732 754 732 747 c 2,36,-1
 732 738 l 2,37,38
 732 722 732 722 729.5 710 c 128,-1,39
 727 698 727 698 715 684 c 1,40,-1
 608 106 l 2,41,42
 605 90 605 90 590 81.5 c 128,-1,43
 575 73 575 73 561 73 c 0,44,45
 558 73 558 73 553 74 c 128,-1,46
 548 75 548 75 547 76 c 2,47,-1
 350 456 l 1,48,-1
 334 472 l 1,49,50
 331 457 331 457 324 424.5 c 128,-1,51
 317 392 317 392 308 351.5 c 128,-1,52
 299 311 299 311 289.5 266 c 128,-1,53
 280 221 280 221 271 180.5 c 128,-1,54
 262 140 262 140 254.5 108 c 128,-1,55
 247 76 247 76 244 61 c 0,56,57
 242 55 242 55 240 44.5 c 128,-1,58
 238 34 238 34 233.5 24 c 128,-1,59
 229 14 229 14 222 6.5 c 128,-1,60
 215 -1 215 -1 205 -1 c 0,61,62
 198 -1 198 -1 192 2.5 c 128,-1,63
 186 6 186 6 183 15 c 2,64,-1
 15 593 l 2,65,66
 15 594 15 594 14.5 597 c 128,-1,67
 14 600 14 600 14 601 c 0,0,1
EndSplineSet
EndChar

StartChar: X
Encoding: 88 88 59
Width: 563
Flags: W
LayerCount: 2
Fore
SplineSet
295 290 m 0,0,1
 294 290 294 290 291.5 289.5 c 128,-1,2
 289 289 289 289 289 289 c 1,3,-1
 61 31 l 1,4,-1
 15 31 l 1,5,-1
 15 61 l 1,6,7
 21 67 21 67 33 80 c 128,-1,8
 45 93 45 93 60.5 109.5 c 128,-1,9
 76 126 76 126 92.5 144 c 128,-1,10
 109 162 109 162 123.5 178.5 c 128,-1,11
 138 195 138 195 150 208 c 128,-1,12
 162 221 162 221 167 228 c 1,13,14
 178 240 178 240 193 260 c 128,-1,15
 208 280 208 280 223 299.5 c 128,-1,16
 238 319 238 319 248.5 333.5 c 128,-1,17
 259 348 259 348 259 349 c 2,18,-1
 259 380 l 1,19,-1
 152 608 l 2,20,21
 151 609 151 609 151 614.5 c 128,-1,22
 151 620 151 620 151 622 c 0,23,24
 151 633 151 633 153 641 c 128,-1,25
 155 649 155 649 167 653 c 1,26,27
 184 643 184 643 197.5 623 c 128,-1,28
 211 603 211 603 221.5 579.5 c 128,-1,29
 232 556 232 556 241.5 531 c 128,-1,30
 251 506 251 506 261 486 c 128,-1,31
 271 466 271 466 283.5 453 c 128,-1,32
 296 440 296 440 312 440 c 0,33,34
 313 440 313 440 316 440.5 c 128,-1,35
 319 441 319 441 319 441 c 1,36,37
 325 449 325 449 335.5 466 c 128,-1,38
 346 483 346 483 359.5 504 c 128,-1,39
 373 525 373 525 388 548 c 128,-1,40
 403 571 403 571 416.5 592 c 128,-1,41
 430 613 430 613 440.5 629.5 c 128,-1,42
 451 646 451 646 456 653 c 0,43,44
 470 673 470 673 483.5 682 c 128,-1,45
 497 691 497 691 520 691 c 1,46,47
 520 679 520 679 519.5 671 c 128,-1,48
 519 663 519 663 517 655.5 c 128,-1,49
 515 648 515 648 511.5 640.5 c 128,-1,50
 508 633 508 633 502 623 c 0,51,52
 496 614 496 614 484 595 c 128,-1,53
 472 576 472 576 457 552 c 128,-1,54
 442 528 442 528 425.5 501.5 c 128,-1,55
 409 475 409 475 394 451 c 128,-1,56
 379 427 379 427 367 408 c 128,-1,57
 355 389 355 389 350 380 c 1,58,-1
 350 364 l 1,59,-1
 532 45 l 2,60,61
 533 43 533 43 534 38 c 128,-1,62
 535 33 535 33 535 31 c 0,63,64
 535 25 535 25 533.5 18.5 c 128,-1,65
 532 12 532 12 528.5 6.5 c 128,-1,66
 525 1 525 1 518.5 -1.5 c 128,-1,67
 512 -4 512 -4 502 0 c 0,68,69
 479 9 479 9 460.5 34 c 128,-1,70
 442 59 442 59 425.5 91.5 c 128,-1,71
 409 124 409 124 394.5 159 c 128,-1,72
 380 194 380 194 364.5 223 c 128,-1,73
 349 252 349 252 332.5 271 c 128,-1,74
 316 290 316 290 295 290 c 0,0,1
EndSplineSet
EndChar

StartChar: Y
Encoding: 89 89 60
Width: 509
Flags: W
LayerCount: 2
Fore
SplineSet
13 707 m 0,0,1
 13 714 13 714 14 720.5 c 128,-1,2
 15 727 15 727 17 733 c 128,-1,3
 19 739 19 739 24 742 c 128,-1,4
 29 745 29 745 38 745 c 0,5,6
 46 745 46 745 51.5 742 c 128,-1,7
 57 739 57 739 61 730 c 2,8,-1
 152 532 l 1,9,-1
 183 532 l 1,10,11
 189 540 189 540 203 555.5 c 128,-1,12
 217 571 217 571 235 590.5 c 128,-1,13
 253 610 253 610 272.5 631.5 c 128,-1,14
 292 653 292 653 310 672.5 c 128,-1,15
 328 692 328 692 343 707 c 128,-1,16
 358 722 358 722 364 730 c 1,17,18
 371 736 371 736 382.5 747.5 c 128,-1,19
 394 759 394 759 409 770.5 c 128,-1,20
 424 782 424 782 440.5 790.5 c 128,-1,21
 457 799 457 799 472 799 c 1,22,-1
 472 760 l 1,23,-1
 228 502 l 2,24,25
 208 481 208 481 202.5 465 c 128,-1,26
 197 449 197 449 197 427 c 0,27,28
 197 374 197 374 200 321 c 128,-1,29
 203 268 203 268 207 214.5 c 128,-1,30
 211 161 211 161 214 107.5 c 128,-1,31
 217 54 217 54 217 0 c 1,32,-1
 183 0 l 2,33,34
 178 0 178 0 174.5 27.5 c 128,-1,35
 171 55 171 55 167.5 98.5 c 128,-1,36
 164 142 164 142 160.5 193 c 128,-1,37
 157 244 157 244 153.5 291.5 c 128,-1,38
 150 339 150 339 146 375.5 c 128,-1,39
 142 412 142 412 136 425 c 1,40,41
 135 430 135 430 128 445.5 c 128,-1,42
 121 461 121 461 112 481.5 c 128,-1,43
 103 502 103 502 92 524.5 c 128,-1,44
 81 547 81 547 71.5 567.5 c 128,-1,45
 62 588 62 588 55 603 c 128,-1,46
 48 618 48 618 46 623 c 0,47,48
 42 631 42 631 36.5 641.5 c 128,-1,49
 31 652 31 652 26 663.5 c 128,-1,50
 21 675 21 675 17 686 c 128,-1,51
 13 697 13 697 13 707 c 0,0,1
EndSplineSet
EndChar

StartChar: Z
Encoding: 90 90 61
Width: 844
Flags: W
LayerCount: 2
Fore
SplineSet
27 97 m 1,0,1
 27 118 27 118 39 133 c 128,-1,2
 51 148 51 148 70 158.5 c 128,-1,3
 89 169 89 169 113 176.5 c 128,-1,4
 137 184 137 184 161.5 191.5 c 128,-1,5
 186 199 186 199 207.5 207.5 c 128,-1,6
 229 216 229 216 244 228 c 0,7,8
 256 238 256 238 274 255 c 128,-1,9
 292 272 292 272 309 289 c 128,-1,10
 326 306 326 306 338 319 c 128,-1,11
 350 332 350 332 350 334 c 2,12,-1
 350 357 l 1,13,-1
 228 357 l 1,14,-1
 213 395 l 1,15,16
 214 397 214 397 218.5 399.5 c 128,-1,17
 223 402 223 402 227.5 404 c 128,-1,18
 232 406 232 406 236.5 408.5 c 128,-1,19
 241 411 241 411 244 411 c 0,20,21
 251 412 251 412 271 412 c 2,22,-1
 353 412 l 2,23,24
 373 412 373 412 380 411 c 1,25,-1
 426 456 l 1,26,-1
 426 623 l 2,27,28
 426 625 426 625 414 628 c 128,-1,29
 402 631 402 631 385 633 c 128,-1,30
 368 635 368 635 349.5 637 c 128,-1,31
 331 639 331 639 319 639 c 0,32,33
 291 639 291 639 265.5 631.5 c 128,-1,34
 240 624 240 624 215 614.5 c 128,-1,35
 190 605 190 605 164.5 597.5 c 128,-1,36
 139 590 139 590 112 590 c 1,37,38
 112 613 112 613 127 629.5 c 128,-1,39
 142 646 142 646 164.5 656.5 c 128,-1,40
 187 667 187 667 215.5 673 c 128,-1,41
 244 679 244 679 272 682 c 128,-1,42
 300 685 300 685 323.5 685 c 128,-1,43
 347 685 347 685 361 685 c 0,44,45
 394 685 394 685 418 679.5 c 128,-1,46
 442 674 442 674 457.5 661 c 128,-1,47
 473 648 473 648 480.5 626 c 128,-1,48
 488 604 488 604 488 572 c 0,49,50
 488 530 488 530 481 491 c 128,-1,51
 474 452 474 452 474 411 c 1,52,-1
 719 411 l 1,53,54
 719 409 719 409 718.5 400.5 c 128,-1,55
 718 392 718 392 715.5 382.5 c 128,-1,56
 713 373 713 373 709.5 365 c 128,-1,57
 706 357 706 357 700 357 c 2,58,-1
 441 357 l 1,59,60
 416 327 416 327 388.5 296 c 128,-1,61
 361 265 361 265 330 236.5 c 128,-1,62
 299 208 299 208 265.5 182 c 128,-1,63
 232 156 232 156 198 136 c 1,64,65
 245 109 245 109 296.5 94 c 128,-1,66
 348 79 348 79 401 71 c 128,-1,67
 454 63 454 63 508 61 c 128,-1,68
 562 59 562 59 616 59 c 2,69,-1
 639 59 l 2,70,71
 655 59 655 59 673 59.5 c 128,-1,72
 691 60 691 60 707.5 60.5 c 128,-1,73
 724 61 724 61 730 61 c 0,74,75
 742 63 742 63 751.5 68.5 c 128,-1,76
 761 74 761 74 770.5 80 c 128,-1,77
 780 86 780 86 789.5 90.5 c 128,-1,78
 799 95 799 95 810 95 c 1,79,80
 810 79 810 79 807 64.5 c 128,-1,81
 804 50 804 50 797 39 c 128,-1,82
 790 28 790 28 777 21.5 c 128,-1,83
 764 15 764 15 745 15 c 0,84,85
 736 15 736 15 715 14.5 c 128,-1,86
 694 14 694 14 669.5 14 c 128,-1,87
 645 14 645 14 623 13.5 c 128,-1,88
 601 13 601 13 593 13 c 0,89,90
 558 13 558 13 526 13 c 128,-1,91
 494 13 494 13 462.5 14 c 128,-1,92
 431 15 431 15 399.5 18.5 c 128,-1,93
 368 22 368 22 334 31 c 0,94,95
 328 32 328 32 308.5 37.5 c 128,-1,96
 289 43 289 43 264.5 50.5 c 128,-1,97
 240 58 240 58 217 65 c 128,-1,98
 194 72 194 72 183 76 c 0,99,100
 181 76 181 76 176.5 78.5 c 128,-1,101
 172 81 172 81 167.5 84 c 128,-1,102
 163 87 163 87 158 89 c 128,-1,103
 153 91 153 91 152 91 c 0,104,105
 145 92 145 92 127 93 c 128,-1,106
 109 94 109 94 89 95 c 128,-1,107
 69 96 69 96 51.5 96.5 c 128,-1,108
 34 97 34 97 27 97 c 1,0,1
EndSplineSet
EndChar

StartChar: bracketleft
Encoding: 91 91 62
Width: 479
Flags: W
LayerCount: 2
Fore
SplineSet
52 -44 m 1,0,1
 53 0 53 0 54 63 c 128,-1,2
 55 126 55 126 55 199 c 2,3,-1
 55 351 l 2,4,5
 55 430 55 430 54.5 503.5 c 128,-1,6
 54 577 54 577 53.5 640 c 128,-1,7
 53 703 53 703 53 745 c 2,8,-1
 53 760 l 2,9,10
 53 769 53 769 53.5 778 c 128,-1,11
 54 787 54 787 54.5 793 c 128,-1,12
 55 799 55 799 55 800 c 2,13,-1
 70 815 l 1,14,-1
 435 815 l 1,15,16
 434 812 434 812 428 806.5 c 128,-1,17
 422 801 422 801 419 800 c 0,18,19
 388 791 388 791 349 787 c 128,-1,20
 310 783 310 783 271 782 c 128,-1,21
 232 781 232 781 195 782.5 c 128,-1,22
 158 784 158 784 130 785 c 1,23,-1
 115 770 l 2,24,25
 115 769 115 769 115 760.5 c 128,-1,26
 115 752 115 752 115 740.5 c 128,-1,27
 115 729 115 729 114.5 717 c 128,-1,28
 114 705 114 705 114 698 c 0,29,30
 114 661 114 661 113 605 c 128,-1,31
 112 549 112 549 111 482.5 c 128,-1,32
 110 416 110 416 109.5 345 c 128,-1,33
 109 274 109 274 108.5 207 c 128,-1,34
 108 140 108 140 108.5 82.5 c 128,-1,35
 109 25 109 25 112 -14 c 1,36,37
 119 -16 119 -16 136.5 -18.5 c 128,-1,38
 154 -21 154 -21 173.5 -23.5 c 128,-1,39
 193 -26 193 -26 209.5 -27.5 c 128,-1,40
 226 -29 226 -29 233 -29 c 0,41,42
 238 -29 238 -29 253 -27 c 128,-1,43
 268 -25 268 -25 286 -22 c 2,44,-1
 320 -16 l 2,45,46
 336 -14 336 -14 340 -14 c 0,47,48
 347 -13 347 -13 364.5 -12.5 c 128,-1,49
 382 -12 382 -12 401.5 -11.5 c 128,-1,50
 421 -11 421 -11 437.5 -10.5 c 128,-1,51
 454 -10 454 -10 461 -10 c 1,52,-1
 461 -44 l 1,53,-1
 449 -46 l 2,54,55
 437 -48 437 -48 420 -50.5 c 128,-1,56
 403 -53 403 -53 385 -55.5 c 128,-1,57
 367 -58 367 -58 355 -59 c 1,58,-1
 340 -59 l 1,59,60
 336 -60 336 -60 320 -62.5 c 128,-1,61
 304 -65 304 -65 286 -67.5 c 128,-1,62
 268 -70 268 -70 253 -72 c 128,-1,63
 238 -74 238 -74 233 -74 c 0,64,65
 216 -74 216 -74 188.5 -72.5 c 128,-1,66
 161 -71 161 -71 134.5 -68.5 c 128,-1,67
 108 -66 108 -66 88 -63.5 c 128,-1,68
 68 -61 68 -61 67 -59 c 2,69,-1
 52 -44 l 1,0,1
EndSplineSet
EndChar

StartChar: backslash
Encoding: 92 92 63
Width: 349
Flags: W
LayerCount: 2
Fore
SplineSet
15 547 m 0,0,1
 15 551 15 551 21 557 c 128,-1,2
 27 563 27 563 31 563 c 1,3,-1
 76 517 l 1,4,5
 83 502 83 502 100 471 c 128,-1,6
 117 440 117 440 138 401 c 128,-1,7
 159 362 159 362 182 319.5 c 128,-1,8
 205 277 205 277 226 238 c 128,-1,9
 247 199 247 199 263.5 167.5 c 128,-1,10
 280 136 280 136 289 121 c 0,11,12
 298 104 298 104 307 90 c 128,-1,13
 316 76 316 76 323 61.5 c 128,-1,14
 330 47 330 47 334 31.5 c 128,-1,15
 338 16 338 16 338 -5 c 1,16,17
 316 -5 316 -5 296.5 11.5 c 128,-1,18
 277 28 277 28 260 53.5 c 128,-1,19
 243 79 243 79 228 111.5 c 128,-1,20
 213 144 213 144 200 176.5 c 128,-1,21
 187 209 187 209 175 238.5 c 128,-1,22
 163 268 163 268 152 289 c 0,23,24
 149 294 149 294 139.5 310.5 c 128,-1,25
 130 327 130 327 117.5 349 c 128,-1,26
 105 371 105 371 91 395.5 c 128,-1,27
 77 420 77 420 64.5 442 c 128,-1,28
 52 464 52 464 43 480 c 128,-1,29
 34 496 34 496 31 502 c 0,30,31
 29 505 29 505 26.5 511.5 c 128,-1,32
 24 518 24 518 21.5 525.5 c 128,-1,33
 19 533 19 533 17 539 c 128,-1,34
 15 545 15 545 15 547 c 0,0,1
EndSplineSet
EndChar

StartChar: bracketright
Encoding: 93 93 64
Width: 547
Flags: W
LayerCount: 2
Fore
SplineSet
23 -47 m 0,0,1
 23 -46 23 -46 28.5 -40.5 c 128,-1,2
 34 -35 34 -35 38 -33 c 0,3,4
 40 -32 40 -32 46.5 -29.5 c 128,-1,5
 53 -27 53 -27 60.5 -25 c 128,-1,6
 68 -23 68 -23 74.5 -21 c 128,-1,7
 81 -19 81 -19 84 -18 c 0,8,9
 95 -16 95 -16 119 -12 c 128,-1,10
 143 -8 143 -8 173 -3.5 c 128,-1,11
 203 1 203 1 236 6 c 128,-1,12
 269 11 269 11 299 15.5 c 128,-1,13
 329 20 329 20 352.5 23.5 c 128,-1,14
 376 27 376 27 388 28 c 1,15,-1
 403 58 l 1,16,-1
 373 666 l 2,17,18
 373 667 373 667 373.5 671.5 c 128,-1,19
 374 676 374 676 374.5 682 c 128,-1,20
 375 688 375 688 375 693 c 2,21,-1
 375 712 l 2,22,23
 375 718 375 718 374.5 724.5 c 128,-1,24
 374 731 374 731 373.5 736 c 128,-1,25
 373 741 373 741 373 742 c 0,26,27
 373 747 373 747 367 755.5 c 128,-1,28
 361 764 361 764 358 764 c 2,29,-1
 69 764 l 1,30,-1
 69 787 l 1,31,32
 123 793 123 793 176 798 c 128,-1,33
 229 803 229 803 283 803 c 0,34,35
 302 803 302 803 316.5 802.5 c 128,-1,36
 331 802 331 802 346 800 c 128,-1,37
 361 798 361 798 377.5 795 c 128,-1,38
 394 792 394 792 418 787 c 1,39,40
 418 784 418 784 418.5 774 c 128,-1,41
 419 764 419 764 419.5 753 c 128,-1,42
 420 742 420 742 420.5 732.5 c 128,-1,43
 421 723 421 723 421 718 c 0,44,45
 421 712 421 712 420 701 c 2,46,-1
 419 679 l 2,47,48
 419 669 419 669 418.5 660.5 c 128,-1,49
 418 652 418 652 418 650 c 0,50,51
 415 629 415 629 415 590 c 128,-1,52
 415 551 415 551 417.5 502 c 128,-1,53
 420 453 420 453 423.5 396.5 c 128,-1,54
 427 340 427 340 430.5 284.5 c 128,-1,55
 434 229 434 229 438 178 c 128,-1,56
 442 127 442 127 444.5 87 c 128,-1,57
 447 47 447 47 448.5 23 c 128,-1,58
 450 -1 450 -1 448 -2 c 2,59,-1
 434 -18 l 1,60,61
 332 -18 332 -18 233 -33.5 c 128,-1,62
 134 -49 134 -49 38 -78 c 1,63,64
 37 -77 37 -77 34 -72.5 c 128,-1,65
 31 -68 31 -68 29 -63.5 c 128,-1,66
 27 -59 27 -59 25 -54.5 c 128,-1,67
 23 -50 23 -50 23 -47 c 0,0,1
EndSplineSet
EndChar

StartChar: asciicircum
Encoding: 94 94 65
Width: 661
Flags: W
LayerCount: 2
Fore
SplineSet
227 732 m 0,0,1
 229 736 229 736 236.5 752.5 c 128,-1,2
 244 769 244 769 253.5 791.5 c 128,-1,3
 263 814 263 814 274.5 839 c 128,-1,4
 286 864 286 864 297 884.5 c 128,-1,5
 308 905 308 905 317.5 919 c 128,-1,6
 327 933 327 933 334 933 c 0,7,8
 336 933 336 933 341.5 931.5 c 128,-1,9
 347 930 347 930 349 929 c 1,10,11
 349 925 349 925 350.5 914 c 128,-1,12
 352 903 352 903 354.5 891 c 128,-1,13
 357 879 357 879 359.5 868 c 128,-1,14
 362 857 362 857 364 853 c 0,15,16
 367 847 367 847 374.5 829 c 128,-1,17
 382 811 382 811 392 788 c 128,-1,18
 402 765 402 765 413.5 738.5 c 128,-1,19
 425 712 425 712 436 687 c 128,-1,20
 447 662 447 662 456.5 641.5 c 128,-1,21
 466 621 466 621 471 610 c 1,22,23
 495 573 495 573 500 558.5 c 128,-1,24
 505 544 505 544 496.5 545.5 c 128,-1,25
 488 547 488 547 470.5 562 c 128,-1,26
 453 577 453 577 431 600 c 128,-1,27
 409 623 409 623 387.5 651 c 128,-1,28
 366 679 366 679 350 707 c 128,-1,29
 334 735 334 735 327 759 c 0,30,31
 322 777 322 777 325 790 c 1,32,33
 318 776 318 776 308 755 c 0,34,35
 295 727 295 727 278.5 696 c 128,-1,36
 262 665 262 665 244.5 634.5 c 128,-1,37
 227 604 227 604 213 583 c 128,-1,38
 199 562 199 562 190 554 c 128,-1,39
 181 546 181 546 180.5 560.5 c 128,-1,40
 180 575 180 575 191 615.5 c 128,-1,41
 202 656 202 656 227 732 c 0,0,1
328 799 m 2,42,43
 326 795 326 795 325 791 c 2,44,-1
 328 799 l 2,42,43
EndSplineSet
EndChar

StartChar: underscore
Encoding: 95 95 66
Width: 682
Flags: W
LayerCount: 2
Fore
SplineSet
37 46 m 1,0,-1
 198 46 l 2,1,2
 257 46 257 46 294.5 46.5 c 128,-1,3
 332 47 332 47 355.5 48 c 128,-1,4
 379 49 379 49 393 49.5 c 128,-1,5
 407 50 407 50 419 50.5 c 128,-1,6
 431 51 431 51 445.5 51 c 128,-1,7
 460 51 460 51 485.5 50.5 c 128,-1,8
 511 50 511 50 551 48.5 c 128,-1,9
 591 47 591 47 653 44 c 1,10,-1
 661 5 l 1,11,-1
 22 13 l 1,12,-1
 37 46 l 1,0,-1
EndSplineSet
EndChar

StartChar: grave
Encoding: 96 96 67
Width: 423
Flags: W
LayerCount: 2
Fore
SplineSet
211 814 m 1,0,1
 215 804 215 804 232.5 783.5 c 128,-1,2
 250 763 250 763 270.5 739 c 128,-1,3
 291 715 291 715 310 691 c 128,-1,4
 329 667 329 667 337 650 c 0,5,6
 346 632 346 632 340 628 c 128,-1,7
 334 624 334 624 319.5 629.5 c 128,-1,8
 305 635 305 635 284 649 c 128,-1,9
 263 663 263 663 241.5 680.5 c 128,-1,10
 220 698 220 698 201 718 c 128,-1,11
 182 738 182 738 171 755.5 c 128,-1,12
 160 773 160 773 160 787 c 128,-1,13
 160 801 160 801 175 807 c 1,14,-1
 211 814 l 1,0,1
EndSplineSet
EndChar

StartChar: a
Encoding: 97 97 68
Width: 639
Flags: W
LayerCount: 2
Fore
SplineSet
21 123 m 0,0,1
 21 166 21 166 31.5 213.5 c 128,-1,2
 42 261 42 261 61 307 c 128,-1,3
 80 353 80 353 107 394.5 c 128,-1,4
 134 436 134 436 166.5 467.5 c 128,-1,5
 199 499 199 499 236.5 518 c 128,-1,6
 274 537 274 537 316 537 c 0,7,8
 324 537 324 537 341.5 533 c 128,-1,9
 359 529 359 529 376.5 523 c 128,-1,10
 394 517 394 517 407.5 508 c 128,-1,11
 421 499 421 499 421 490 c 1,12,-1
 229 466 l 1,13,14
 208 466 208 466 189 445.5 c 128,-1,15
 170 425 170 425 154 393 c 128,-1,16
 138 361 138 361 125 321.5 c 128,-1,17
 112 282 112 282 102.5 244.5 c 128,-1,18
 93 207 93 207 88 176 c 128,-1,19
 83 145 83 145 83 129 c 2,20,-1
 83 118 l 2,21,22
 83 111 83 111 83.5 102.5 c 128,-1,23
 84 94 84 94 84 86 c 2,24,-1
 84 76 l 1,25,26
 85 73 85 73 89 69 c 2,27,-1
 108 51 l 2,28,29
 112 46 112 46 115 45 c 0,30,31
 116 44 116 44 118 44 c 2,32,-1
 121 44 l 2,33,34
 147 44 147 44 171 57.5 c 128,-1,35
 195 71 195 71 215.5 90 c 128,-1,36
 236 109 236 109 253 130.5 c 128,-1,37
 270 152 270 152 282 167 c 0,38,39
 289 175 289 175 293 201 c 128,-1,40
 297 227 297 227 300.5 261 c 128,-1,41
 304 295 304 295 308.5 333 c 128,-1,42
 313 371 313 371 320 402.5 c 128,-1,43
 327 434 327 434 336.5 454.5 c 128,-1,44
 346 475 346 475 360 475 c 0,45,46
 361 475 361 475 364 475 c 128,-1,47
 367 475 367 475 367 475 c 1,48,49
 367 469 367 469 367.5 446.5 c 128,-1,50
 368 424 368 424 368.5 393.5 c 128,-1,51
 369 363 369 363 369.5 328.5 c 128,-1,52
 370 294 370 294 370 263.5 c 128,-1,53
 370 233 370 233 371 211 c 128,-1,54
 372 189 372 189 373 183 c 0,55,56
 373 178 373 178 378.5 167.5 c 128,-1,57
 384 157 384 157 391 147 c 128,-1,58
 398 137 398 137 405.5 129 c 128,-1,59
 413 121 413 121 418 121 c 2,60,-1
 607 121 l 1,61,62
 607 109 607 109 596.5 100 c 128,-1,63
 586 91 586 91 570.5 84.5 c 128,-1,64
 555 78 555 78 536 73 c 128,-1,65
 517 68 517 68 499 65 c 128,-1,66
 481 62 481 62 465.5 61 c 128,-1,67
 450 60 450 60 442 60 c 0,68,69
 398 60 398 60 368 80 c 128,-1,70
 338 100 338 100 312 136 c 1,71,72
 298 118 298 118 278.5 95.5 c 128,-1,73
 259 73 259 73 235 52.5 c 128,-1,74
 211 32 211 32 184 17.5 c 128,-1,75
 157 3 157 3 130 0 c 0,76,77
 96 -4 96 -4 75 5 c 128,-1,78
 54 14 54 14 42 31 c 128,-1,79
 30 48 30 48 25.5 72 c 128,-1,80
 21 96 21 96 21 123 c 0,0,1
EndSplineSet
EndChar

StartChar: b
Encoding: 98 98 69
Width: 524
Flags: W
LayerCount: 2
Fore
SplineSet
46 15 m 1,0,1
 45 35 45 35 44 76.5 c 128,-1,2
 43 118 43 118 41.5 170.5 c 128,-1,3
 40 223 40 223 38.5 281.5 c 128,-1,4
 37 340 37 340 35.5 392.5 c 128,-1,5
 34 445 34 445 32.5 486 c 128,-1,6
 31 527 31 527 31 547 c 2,7,-1
 31 563 l 2,8,9
 31 570 31 570 33.5 587 c 128,-1,10
 36 604 36 604 38 623.5 c 128,-1,11
 40 643 40 643 42.5 660 c 128,-1,12
 45 677 45 677 46 684 c 0,13,14
 46 685 46 685 49 685 c 128,-1,15
 52 685 52 685 54 685 c 0,16,17
 65 685 65 685 69.5 674.5 c 128,-1,18
 74 664 74 664 76 653 c 1,19,-1
 106 319 l 1,20,-1
 122 304 l 1,21,22
 172 363 172 363 235.5 387.5 c 128,-1,23
 299 412 299 412 376 412 c 0,24,25
 405 412 405 412 428.5 400 c 128,-1,26
 452 388 452 388 469 368 c 128,-1,27
 486 348 486 348 495 322 c 128,-1,28
 504 296 504 296 504 268 c 0,29,30
 504 212 504 212 483.5 170 c 128,-1,31
 463 128 463 128 429.5 98.5 c 128,-1,32
 396 69 396 69 351.5 50 c 128,-1,33
 307 31 307 31 259 19.5 c 128,-1,34
 211 8 211 8 161.5 4 c 128,-1,35
 112 0 112 0 68 0 c 0,36,37
 60 0 60 0 56 2 c 128,-1,38
 52 4 52 4 46 15 c 1,0,1
106 76 m 1,39,40
 108 67 108 67 115 63.5 c 128,-1,41
 122 60 122 60 130.5 59 c 128,-1,42
 139 58 139 58 147 58.5 c 128,-1,43
 155 59 155 59 159 59 c 0,44,45
 210 59 210 59 260.5 69 c 128,-1,46
 311 79 311 79 351.5 103 c 128,-1,47
 392 127 392 127 417 167 c 128,-1,48
 442 207 442 207 442 267 c 0,49,50
 442 293 442 293 429.5 313.5 c 128,-1,51
 417 334 417 334 395 349 c 1,52,53
 391 349 391 349 382 349.5 c 128,-1,54
 373 350 373 350 362 350.5 c 128,-1,55
 351 351 351 351 341 351.5 c 128,-1,56
 331 352 331 352 327 352 c 0,57,58
 262 352 262 352 221.5 329.5 c 128,-1,59
 181 307 181 307 156.5 269.5 c 128,-1,60
 132 232 132 232 121.5 182 c 128,-1,61
 111 132 111 132 106 76 c 1,39,40
EndSplineSet
EndChar

StartChar: c
Encoding: 99 99 70
Width: 571
Flags: W
LayerCount: 2
Fore
SplineSet
21 173 m 0,0,1
 21 204 21 204 27.5 243.5 c 128,-1,2
 34 283 34 283 47.5 323.5 c 128,-1,3
 61 364 61 364 80 403 c 128,-1,4
 99 442 99 442 123.5 472 c 128,-1,5
 148 502 148 502 178 520.5 c 128,-1,6
 208 539 208 539 244 539 c 2,7,-1
 272 539 l 2,8,9
 292 539 292 539 311 535 c 128,-1,10
 330 531 330 531 344 521 c 128,-1,11
 358 511 358 511 358 492 c 1,12,-1
 202 492 l 2,13,14
 187 492 187 492 172.5 473.5 c 128,-1,15
 158 455 158 455 145 426.5 c 128,-1,16
 132 398 132 398 120.5 363.5 c 128,-1,17
 109 329 109 329 101 297 c 128,-1,18
 93 265 93 265 88 240 c 128,-1,19
 83 215 83 215 83 205 c 0,20,21
 83 171 83 171 91.5 141.5 c 128,-1,22
 100 112 100 112 116.5 90.5 c 128,-1,23
 133 69 133 69 158.5 56.5 c 128,-1,24
 184 44 184 44 219 44 c 0,25,26
 259 44 259 44 295 54 c 128,-1,27
 331 64 331 64 362 78.5 c 128,-1,28
 393 93 393 93 420.5 110 c 128,-1,29
 448 127 448 127 470.5 141.5 c 128,-1,30
 493 156 493 156 511 165.5 c 128,-1,31
 529 175 529 175 544 175 c 1,32,33
 544 140 544 140 524.5 113 c 128,-1,34
 505 86 505 86 474.5 66.5 c 128,-1,35
 444 47 444 47 405.5 34 c 128,-1,36
 367 21 367 21 327 13.5 c 128,-1,37
 287 6 287 6 250.5 2.5 c 128,-1,38
 214 -1 214 -1 189 -1 c 0,39,40
 151 -1 151 -1 119.5 12 c 128,-1,41
 88 25 88 25 66.5 48.5 c 128,-1,42
 45 72 45 72 33 104 c 128,-1,43
 21 136 21 136 21 173 c 0,0,1
EndSplineSet
EndChar

StartChar: d
Encoding: 100 100 71
Width: 692
Flags: W
LayerCount: 2
Fore
SplineSet
319 167 m 1,0,1
 307 155 307 155 291 137 c 128,-1,2
 275 119 275 119 258 99.5 c 128,-1,3
 241 80 241 80 221.5 60.5 c 128,-1,4
 202 41 202 41 182.5 25.5 c 128,-1,5
 163 10 163 10 143.5 1 c 128,-1,6
 124 -8 124 -8 105 -8 c 0,7,8
 80 -8 80 -8 61.5 1 c 128,-1,9
 43 10 43 10 30.5 26.5 c 128,-1,10
 18 43 18 43 11.5 63.5 c 128,-1,11
 5 84 5 84 5 106 c 1,12,13
 1 135 1 135 7 176 c 128,-1,14
 13 217 13 217 28 262 c 128,-1,15
 43 307 43 307 65.5 351 c 128,-1,16
 88 395 88 395 115.5 430.5 c 128,-1,17
 143 466 143 466 175.5 487 c 128,-1,18
 208 508 208 508 242 508 c 0,19,20
 256 508 256 508 266.5 507.5 c 128,-1,21
 277 507 277 507 287.5 505 c 128,-1,22
 298 503 298 503 308.5 500 c 128,-1,23
 319 497 319 497 334 492 c 1,24,25
 343 502 343 502 346.5 512.5 c 128,-1,26
 350 523 350 523 350.5 535 c 128,-1,27
 351 547 351 547 350 559 c 128,-1,28
 349 571 349 571 349 583 c 0,29,30
 349 593 349 593 350.5 614.5 c 128,-1,31
 352 636 352 636 353.5 663 c 128,-1,32
 355 690 355 690 356.5 720 c 128,-1,33
 358 750 358 750 359.5 777 c 128,-1,34
 361 804 361 804 362.5 825.5 c 128,-1,35
 364 847 364 847 364 857 c 1,36,37
 365 857 365 857 368 857.5 c 128,-1,38
 371 858 371 858 373 858 c 0,39,40
 381 858 381 858 386 854.5 c 128,-1,41
 391 851 391 851 394 841 c 0,42,43
 398 823 398 823 397.5 779 c 128,-1,44
 397 735 397 735 394.5 674.5 c 128,-1,45
 392 614 392 614 389.5 543 c 128,-1,46
 387 472 387 472 386.5 401.5 c 128,-1,47
 386 331 386 331 390 265 c 128,-1,48
 394 199 394 199 405.5 149.5 c 128,-1,49
 417 100 417 100 436.5 71 c 128,-1,50
 456 42 456 42 487 45 c 0,51,52
 497 46 497 46 519 53.5 c 128,-1,53
 541 61 541 61 566 70 c 128,-1,54
 591 79 591 79 615 86 c 128,-1,55
 639 93 639 93 654 93 c 0,56,57
 656 93 656 93 661.5 92 c 128,-1,58
 667 91 667 91 669 91 c 1,59,60
 649 71 649 71 624.5 54 c 128,-1,61
 600 37 600 37 572 24.5 c 128,-1,62
 544 12 544 12 514.5 5 c 128,-1,63
 485 -2 485 -2 457 -2 c 0,64,65
 425 -2 425 -2 400 13.5 c 128,-1,66
 375 29 375 29 357.5 53.5 c 128,-1,67
 340 78 340 78 330 108 c 128,-1,68
 320 138 320 138 319 167 c 1,0,1
259 463 m 1,69,70
 211 448 211 448 174.5 413.5 c 128,-1,71
 138 379 138 379 111.5 337 c 128,-1,72
 85 295 85 295 69 248 c 128,-1,73
 53 201 53 201 48 159.5 c 128,-1,74
 43 118 43 118 47.5 86.5 c 128,-1,75
 52 55 52 55 68 43 c 1,76,77
 100 43 100 43 132 58.5 c 128,-1,78
 164 74 164 74 193.5 100 c 128,-1,79
 223 126 223 126 249 160 c 128,-1,80
 275 194 275 194 294 231 c 128,-1,81
 313 268 313 268 324 306 c 128,-1,82
 335 344 335 344 335 378 c 2,83,-1
 335 388 l 2,84,85
 335 396 335 396 334.5 404.5 c 128,-1,86
 334 413 334 413 334 420.5 c 128,-1,87
 334 428 334 428 334 430 c 0,88,89
 330 445 330 445 321.5 452 c 128,-1,90
 313 459 313 459 302.5 461.5 c 128,-1,91
 292 464 292 464 280 463.5 c 128,-1,92
 268 463 268 463 259 463 c 1,69,70
EndSplineSet
EndChar

StartChar: e
Encoding: 101 101 72
Width: 512
Flags: W
LayerCount: 2
Fore
SplineSet
43 334 m 0,0,1
 43 386 43 386 55 429.5 c 128,-1,2
 67 473 67 473 92.5 504.5 c 128,-1,3
 118 536 118 536 158.5 553.5 c 128,-1,4
 199 571 199 571 255 571 c 0,5,6
 287 571 287 571 311 565.5 c 128,-1,7
 335 560 335 560 351 546 c 128,-1,8
 367 532 367 532 374.5 509.5 c 128,-1,9
 382 487 382 487 382 453 c 256,10,11
 382 419 382 419 368.5 395 c 128,-1,12
 355 371 355 371 331.5 355.5 c 128,-1,13
 308 340 308 340 279 332.5 c 128,-1,14
 250 325 250 325 220 325 c 0,15,16
 215 325 215 325 205 322.5 c 128,-1,17
 195 320 195 320 182 317 c 128,-1,18
 169 314 169 314 155.5 311 c 128,-1,19
 142 308 142 308 130.5 307.5 c 128,-1,20
 119 307 119 307 112 308.5 c 128,-1,21
 105 310 105 310 105 318 c 0,22,23
 105 319 105 319 110 325 c 128,-1,24
 115 331 115 331 120.5 338 c 128,-1,25
 126 345 126 345 130 351 c 1,26,-1
 136 357 l 1,27,28
 166 361 166 361 201 364 c 128,-1,29
 236 367 236 367 265.5 376 c 128,-1,30
 295 385 295 385 314.5 405 c 128,-1,31
 334 425 334 425 334 463 c 0,32,33
 334 483 334 483 328 495 c 128,-1,34
 322 507 322 507 310.5 513.5 c 128,-1,35
 299 520 299 520 283.5 522.5 c 128,-1,36
 268 525 268 525 250 525 c 0,37,38
 211 525 211 525 183 512 c 128,-1,39
 155 499 155 499 138 475.5 c 128,-1,40
 121 452 121 452 112.5 420 c 128,-1,41
 104 388 104 388 104 349 c 0,42,43
 104 324 104 324 105.5 291.5 c 128,-1,44
 107 259 107 259 112 225.5 c 128,-1,45
 117 192 117 192 126 159.5 c 128,-1,46
 135 127 135 127 149.5 101.5 c 128,-1,47
 164 76 164 76 185 60.5 c 128,-1,48
 206 45 206 45 235 45 c 0,49,50
 240 45 240 45 251 47 c 128,-1,51
 262 49 262 49 274 51.5 c 128,-1,52
 286 54 286 54 296.5 56.5 c 128,-1,53
 307 59 307 59 312 61 c 0,54,55
 321 64 321 64 339 72 c 128,-1,56
 357 80 357 80 379.5 90 c 128,-1,57
 402 100 402 100 426.5 112 c 128,-1,58
 451 124 451 124 473.5 134.5 c 128,-1,59
 496 145 496 145 514 154 c 128,-1,60
 532 163 532 163 540 167 c 1,61,62
 541 166 541 166 541 160 c 128,-1,63
 541 154 541 154 541 152 c 0,64,65
 541 132 541 132 521.5 112.5 c 128,-1,66
 502 93 502 93 472 76 c 128,-1,67
 442 59 442 59 404.5 44.5 c 128,-1,68
 367 30 367 30 332.5 20 c 128,-1,69
 298 10 298 10 269 4 c 128,-1,70
 240 -2 240 -2 226 -2 c 0,71,72
 191 -2 191 -2 163.5 13.5 c 128,-1,73
 136 29 136 29 116 55.5 c 128,-1,74
 96 82 96 82 81.5 116.5 c 128,-1,75
 67 151 67 151 58.5 188 c 128,-1,76
 50 225 50 225 46.5 263 c 128,-1,77
 43 301 43 301 43 334 c 0,0,1
EndSplineSet
EndChar

StartChar: f
Encoding: 102 102 73
Width: 555
Flags: W
LayerCount: 2
Fore
SplineSet
22 -231 m 0,0,1
 22 -230 22 -230 22 -224 c 128,-1,2
 22 -218 22 -218 22 -216 c 1,3,4
 24 -218 24 -218 28.5 -220 c 128,-1,5
 33 -222 33 -222 38 -224.5 c 128,-1,6
 43 -227 43 -227 47.5 -228.5 c 128,-1,7
 52 -230 52 -230 53 -231 c 0,8,9
 55 -232 55 -232 56 -232 c 2,10,-1
 61 -232 l 2,11,12
 97 -232 97 -232 121.5 -211.5 c 128,-1,13
 146 -191 146 -191 162 -159.5 c 128,-1,14
 178 -128 178 -128 187 -88.5 c 128,-1,15
 196 -49 196 -49 200.5 -9.5 c 128,-1,16
 205 30 205 30 205.5 64.5 c 128,-1,17
 206 99 206 99 206 121 c 2,18,-1
 206 159 l 2,19,20
 206 186 206 186 204 219.5 c 128,-1,21
 202 253 202 253 198.5 289 c 128,-1,22
 195 325 195 325 187.5 355 c 128,-1,23
 180 385 180 385 168 404.5 c 128,-1,24
 156 424 156 424 138 424 c 0,25,26
 124 424 124 424 111.5 421 c 128,-1,27
 99 418 99 418 86 414.5 c 128,-1,28
 73 411 73 411 60.5 408 c 128,-1,29
 48 405 48 405 34 405 c 1,30,31
 34 427 34 427 50 438.5 c 128,-1,32
 66 450 66 450 87 457.5 c 128,-1,33
 108 465 108 465 128.5 473.5 c 128,-1,34
 149 482 149 482 159 499 c 1,35,36
 151 520 151 520 148 539.5 c 128,-1,37
 145 559 145 559 143.5 578.5 c 128,-1,38
 142 598 142 598 142 617 c 2,39,-1
 142 659 l 2,40,41
 142 697 142 697 146 741 c 128,-1,42
 150 785 150 785 165 823 c 128,-1,43
 180 861 180 861 209 886 c 128,-1,44
 238 911 238 911 288 911 c 0,45,46
 299 911 299 911 318.5 909.5 c 128,-1,47
 338 908 338 908 357 903 c 128,-1,48
 376 898 376 898 390.5 889 c 128,-1,49
 405 880 405 880 405 864 c 0,50,51
 405 862 405 862 404 856 c 128,-1,52
 403 850 403 850 403 849 c 1,53,54
 397 851 397 851 381.5 855 c 128,-1,55
 366 859 366 859 349 864 c 128,-1,56
 332 869 332 869 316.5 873 c 128,-1,57
 301 877 301 877 295 879 c 2,58,59
 295 879 295 879 292.5 879.5 c 128,-1,60
 290 880 290 880 289 880 c 0,61,62
 266 880 266 880 250.5 868 c 128,-1,63
 235 856 235 856 226 837.5 c 128,-1,64
 217 819 217 819 212 795.5 c 128,-1,65
 207 772 207 772 205 749.5 c 128,-1,66
 203 727 203 727 203 706 c 2,67,-1
 203 675 l 2,68,69
 203 656 203 656 202.5 635.5 c 128,-1,70
 202 615 202 615 203.5 594.5 c 128,-1,71
 205 574 205 574 208 553 c 128,-1,72
 211 532 211 532 220 514 c 1,73,-1
 235 514 l 2,74,75
 273 514 273 514 311 517 c 128,-1,76
 349 520 349 520 387 523.5 c 128,-1,77
 425 527 425 527 463 530 c 128,-1,78
 501 533 501 533 539 533 c 1,79,-1
 539 499 l 1,80,-1
 250 453 l 2,81,82
 240 451 240 451 237 445 c 128,-1,83
 234 439 234 439 234 431 c 0,84,85
 234 394 234 394 239 358 c 128,-1,86
 244 322 244 322 250 286 c 128,-1,87
 256 250 256 250 261.5 214 c 128,-1,88
 267 178 267 178 267 141 c 0,89,90
 267 111 267 111 266 68 c 128,-1,91
 265 25 265 25 260 -21.5 c 128,-1,92
 255 -68 255 -68 244 -113.5 c 128,-1,93
 233 -159 233 -159 213 -196 c 128,-1,94
 193 -233 193 -233 161 -255.5 c 128,-1,95
 129 -278 129 -278 83 -278 c 0,96,97
 73 -278 73 -278 62 -275 c 128,-1,98
 51 -272 51 -272 42 -266 c 128,-1,99
 33 -260 33 -260 27.5 -251 c 128,-1,100
 22 -242 22 -242 22 -231 c 0,0,1
EndSplineSet
EndChar

StartChar: g
Encoding: 103 103 74
Width: 502
Flags: W
LayerCount: 2
Fore
SplineSet
45 -335 m 0,0,1
 45 -320 45 -320 47.5 -311 c 128,-1,2
 50 -302 50 -302 61 -289 c 1,3,4
 92 -345 92 -345 135.5 -371.5 c 128,-1,5
 179 -398 179 -398 244 -398 c 0,6,7
 247 -398 247 -398 256 -397.5 c 128,-1,8
 265 -397 265 -397 274.5 -396.5 c 128,-1,9
 284 -396 284 -396 292.5 -395.5 c 128,-1,10
 301 -395 301 -395 305 -395 c 1,11,12
 342 -366 342 -366 363.5 -325 c 128,-1,13
 385 -284 385 -284 395.5 -238.5 c 128,-1,14
 406 -193 406 -193 409 -145.5 c 128,-1,15
 412 -98 412 -98 412 -53 c 0,16,17
 412 -29 412 -29 411.5 -9 c 128,-1,18
 411 11 411 11 409 30 c 128,-1,19
 407 49 407 49 403.5 70.5 c 128,-1,20
 400 92 400 92 395 121 c 0,21,22
 394 121 394 121 392 122 c 128,-1,23
 390 123 390 123 388 123 c 0,24,25
 379 123 379 123 358.5 108.5 c 128,-1,26
 338 94 338 94 310 76 c 128,-1,27
 282 58 282 58 248 43.5 c 128,-1,28
 214 29 214 29 180 29 c 0,29,30
 166 29 166 29 151 33 c 128,-1,31
 136 37 136 37 124 44.5 c 128,-1,32
 112 52 112 52 103 64 c 128,-1,33
 94 76 94 76 91 91 c 0,34,35
 91 96 91 96 91 107.5 c 128,-1,36
 91 119 91 119 90.5 132.5 c 128,-1,37
 90 146 90 146 90 158 c 2,38,-1
 90 175 l 2,39,40
 90 208 90 208 93.5 247 c 128,-1,41
 97 286 97 286 104.5 326.5 c 128,-1,42
 112 367 112 367 125.5 405 c 128,-1,43
 139 443 139 443 159.5 472.5 c 128,-1,44
 180 502 180 502 208 519.5 c 128,-1,45
 236 537 236 537 273 537 c 0,46,47
 325 537 325 537 371.5 520 c 128,-1,48
 418 503 418 503 451 459 c 1,49,50
 456 401 456 401 459.5 336.5 c 128,-1,51
 463 272 463 272 466 207.5 c 128,-1,52
 469 143 469 143 470.5 82.5 c 128,-1,53
 472 22 472 22 472 -27 c 0,54,55
 472 -68 472 -68 470 -115.5 c 128,-1,56
 468 -163 468 -163 460 -210.5 c 128,-1,57
 452 -258 452 -258 436.5 -302.5 c 128,-1,58
 421 -347 421 -347 394.5 -381 c 128,-1,59
 368 -415 368 -415 329.5 -435.5 c 128,-1,60
 291 -456 291 -456 236 -456 c 0,61,62
 214 -456 214 -456 181.5 -448.5 c 128,-1,63
 149 -441 149 -441 118.5 -426 c 128,-1,64
 88 -411 88 -411 66.5 -388 c 128,-1,65
 45 -365 45 -365 45 -335 c 0,0,1
153 106 m 1,66,67
 156 102 156 102 161.5 96.5 c 128,-1,68
 167 91 167 91 174 86.5 c 128,-1,69
 181 82 181 82 187 79 c 128,-1,70
 193 76 193 76 198 76 c 0,71,72
 225 76 225 76 250 92.5 c 128,-1,73
 275 109 275 109 296.5 137 c 128,-1,74
 318 165 318 165 335.5 200 c 128,-1,75
 353 235 353 235 365.5 271.5 c 128,-1,76
 378 308 378 308 384.5 342 c 128,-1,77
 391 376 391 376 391 403 c 0,78,79
 391 428 391 428 382.5 447 c 128,-1,80
 374 466 374 466 358.5 479.5 c 128,-1,81
 343 493 343 493 322 499 c 128,-1,82
 301 505 301 505 276 505 c 0,83,84
 250 505 250 505 230.5 486.5 c 128,-1,85
 211 468 211 468 197.5 438.5 c 128,-1,86
 184 409 184 409 175 372 c 128,-1,87
 166 335 166 335 160.5 299.5 c 128,-1,88
 155 264 155 264 153 233 c 128,-1,89
 151 202 151 202 151 183 c 0,90,91
 151 178 151 178 151 167.5 c 128,-1,92
 151 157 151 157 151.5 145 c 128,-1,93
 152 133 152 133 152.5 122 c 128,-1,94
 153 111 153 111 153 106 c 1,66,67
EndSplineSet
EndChar

StartChar: h
Encoding: 104 104 75
Width: 668
Flags: W
LayerCount: 2
Fore
SplineSet
411 152 m 1,0,1
 409 161 409 161 406 180 c 128,-1,2
 403 199 403 199 398.5 223 c 128,-1,3
 394 247 394 247 389 273.5 c 128,-1,4
 384 300 384 300 379.5 324 c 128,-1,5
 375 348 375 348 371 367 c 128,-1,6
 367 386 367 386 365 395 c 0,7,8
 361 414 361 414 356 430.5 c 128,-1,9
 351 447 351 447 341.5 459.5 c 128,-1,10
 332 472 332 472 318 479.5 c 128,-1,11
 304 487 304 487 282 487 c 0,12,13
 266 487 266 487 247.5 474.5 c 128,-1,14
 229 462 229 462 212.5 446 c 128,-1,15
 196 430 196 430 183.5 415 c 128,-1,16
 171 400 171 400 167 395 c 0,17,18
 139 364 139 364 124.5 317.5 c 128,-1,19
 110 271 110 271 103 220 c 128,-1,20
 96 169 96 169 94.5 119.5 c 128,-1,21
 93 70 93 70 91 31 c 1,22,-1
 46 15 l 1,23,-1
 46 715 l 2,24,25
 46 720 46 720 47.5 735 c 128,-1,26
 49 750 49 750 52 767 c 128,-1,27
 55 784 55 784 57.5 799 c 128,-1,28
 60 814 60 814 61 821 c 0,29,30
 62 824 62 824 67.5 829.5 c 128,-1,31
 73 835 73 835 76 836 c 1,32,-1
 91 821 l 1,33,-1
 122 441 l 1,34,-1
 137 441 l 1,35,36
 151 454 151 454 170 470 c 128,-1,37
 189 486 189 486 211 500 c 128,-1,38
 233 514 233 514 257 523 c 128,-1,39
 281 532 281 532 304 532 c 0,40,41
 346 532 346 532 370 512 c 128,-1,42
 394 492 394 492 409 458.5 c 128,-1,43
 424 425 424 425 431.5 382.5 c 128,-1,44
 439 340 439 340 446.5 295.5 c 128,-1,45
 454 251 454 251 463.5 208.5 c 128,-1,46
 473 166 473 166 491.5 133 c 128,-1,47
 510 100 510 100 540.5 79.5 c 128,-1,48
 571 59 571 59 619 59 c 0,49,50
 643 59 643 59 661 60 c 128,-1,51
 679 61 679 61 696.5 65.5 c 128,-1,52
 714 70 714 70 732.5 79.5 c 128,-1,53
 751 89 751 89 775 106 c 1,54,55
 775 106 775 106 775.5 103 c 128,-1,56
 776 100 776 100 776 99 c 0,57,58
 776 81 776 81 755.5 63 c 128,-1,59
 735 45 735 45 706.5 30.5 c 128,-1,60
 678 16 678 16 648.5 7 c 128,-1,61
 619 -2 619 -2 600 -2 c 0,62,63
 563 -2 563 -2 535.5 11.5 c 128,-1,64
 508 25 508 25 485.5 47 c 128,-1,65
 463 69 463 69 445 96.5 c 128,-1,66
 427 124 427 124 411 152 c 1,0,1
EndSplineSet
EndChar

StartChar: i
Encoding: 105 105 76
Width: 316
Flags: W
LayerCount: 2
Fore
SplineSet
23 244 m 1,0,1
 24 253 24 253 25 273 c 128,-1,2
 26 293 26 293 27.5 318.5 c 128,-1,3
 29 344 29 344 30.5 372 c 128,-1,4
 32 400 32 400 33.5 425.5 c 128,-1,5
 35 451 35 451 36 471.5 c 128,-1,6
 37 492 37 492 38 502 c 1,7,8
 43 511 43 511 48 514 c 128,-1,9
 53 517 53 517 61 517 c 0,10,11
 62 517 62 517 64.5 517 c 128,-1,12
 67 517 67 517 68 517 c 0,13,14
 79 485 79 485 79.5 438 c 128,-1,15
 80 391 80 391 79.5 338.5 c 128,-1,16
 79 286 79 286 80.5 233.5 c 128,-1,17
 82 181 82 181 94 139 c 128,-1,18
 106 97 106 97 131.5 71 c 128,-1,19
 157 45 157 45 205 45 c 0,20,21
 255 45 255 45 291.5 64.5 c 128,-1,22
 328 84 328 84 358 121 c 1,23,24
 358 120 358 120 359 114 c 128,-1,25
 360 108 360 108 360 106 c 0,26,27
 360 81 360 81 339.5 61 c 128,-1,28
 319 41 319 41 291 27 c 128,-1,29
 263 13 263 13 232.5 6 c 128,-1,30
 202 -1 202 -1 183 -1 c 0,31,32
 133 -1 133 -1 102 18 c 128,-1,33
 71 37 71 37 53.5 69 c 128,-1,34
 36 101 36 101 29.5 142 c 128,-1,35
 23 183 23 183 23 227 c 2,36,-1
 23 244 l 1,0,1
61 640 m 0,37,38
 43 640 43 640 36 650.5 c 128,-1,39
 29 661 29 661 31.5 674.5 c 128,-1,40
 34 688 34 688 43 699 c 128,-1,41
 52 710 52 710 66 710 c 0,42,43
 85 710 85 710 95 699 c 128,-1,44
 105 688 105 688 105.5 674.5 c 128,-1,45
 106 661 106 661 95.5 650.5 c 128,-1,46
 85 640 85 640 61 640 c 0,37,38
EndSplineSet
EndChar

StartChar: j
Encoding: 106 106 77
Width: 196
Flags: W
LayerCount: 2
Fore
SplineSet
-219 -327 m 0,0,1
 -219 -326 -219 -326 -218.5 -320 c 128,-1,2
 -218 -314 -218 -314 -218 -312 c 1,3,4
 -194 -328 -194 -328 -178.5 -345.5 c 128,-1,5
 -163 -363 -163 -363 -150 -380 c 128,-1,6
 -137 -397 -137 -397 -125 -412.5 c 128,-1,7
 -113 -428 -113 -428 -95 -440 c 128,-1,8
 -77 -452 -77 -452 -52.5 -459 c 128,-1,9
 -28 -466 -28 -466 10 -466 c 0,10,11
 46 -466 46 -466 70 -454.5 c 128,-1,12
 94 -443 94 -443 109 -423.5 c 128,-1,13
 124 -404 124 -404 133 -378 c 128,-1,14
 142 -352 142 -352 145.5 -323 c 128,-1,15
 149 -294 149 -294 149.5 -263.5 c 128,-1,16
 150 -233 150 -233 150 -206 c 0,17,18
 150 -196 150 -196 149 -179 c 2,19,-1
 148 -145 l 2,20,21
 148 -128 148 -128 147.5 -114.5 c 128,-1,22
 147 -101 147 -101 147 -99 c 2,23,-1
 55 463 l 1,24,-1
 55 499 l 1,25,26
 61 499 61 499 69 495 c 128,-1,27
 77 491 77 491 84 485.5 c 128,-1,28
 91 480 91 480 95.5 474 c 128,-1,29
 100 468 100 468 101 463 c 2,30,-1
 207 -99 l 1,31,-1
 207 -342 l 2,32,33
 207 -374 207 -374 191 -407 c 128,-1,34
 175 -440 175 -440 149 -466 c 128,-1,35
 123 -492 123 -492 91 -508.5 c 128,-1,36
 59 -525 59 -525 28 -525 c 0,37,38
 -13 -525 -13 -525 -56.5 -511 c 128,-1,39
 -100 -497 -100 -497 -136 -471.5 c 128,-1,40
 -172 -446 -172 -446 -195.5 -409.5 c 128,-1,41
 -219 -373 -219 -373 -219 -327 c 0,0,1
28 654 m 0,42,43
 23 654 23 654 18 667.5 c 128,-1,44
 13 681 13 681 11.5 697 c 128,-1,45
 10 713 10 713 15 726.5 c 128,-1,46
 20 740 20 740 35 740 c 0,47,48
 60 740 60 740 68.5 726.5 c 128,-1,49
 77 713 77 713 73.5 697 c 128,-1,50
 70 681 70 681 58 667.5 c 128,-1,51
 46 654 46 654 28 654 c 0,42,43
EndSplineSet
EndChar

StartChar: k
Encoding: 107 107 78
Width: 684
Flags: W
LayerCount: 2
Fore
SplineSet
133 337 m 0,0,1
 129 337 129 337 122 336 c 128,-1,2
 115 335 115 335 115 334 c 2,3,-1
 84 76 l 2,4,5
 82 62 82 62 76.5 54 c 128,-1,6
 71 46 71 46 62.5 41.5 c 128,-1,7
 54 37 54 37 43 36 c 128,-1,8
 32 35 32 35 20 35 c 1,9,10
 20 71 20 71 24 101 c 128,-1,11
 28 131 28 131 38 167 c 1,12,-1
 38 765 l 1,13,14
 45 765 45 765 53 761 c 128,-1,15
 61 757 61 757 67.5 751 c 128,-1,16
 74 745 74 745 79 739 c 128,-1,17
 84 733 84 733 84 730 c 2,18,-1
 115 403 l 1,19,-1
 434 593 l 1,20,-1
 469 593 l 1,21,22
 469 571 469 571 450.5 551.5 c 128,-1,23
 432 532 432 532 403 514 c 128,-1,24
 374 496 374 496 340 480 c 128,-1,25
 306 464 306 464 275 449 c 128,-1,26
 244 434 244 434 220.5 420.5 c 128,-1,27
 197 407 197 407 190 395 c 1,28,29
 228 370 228 370 255.5 334 c 128,-1,30
 283 298 283 298 307 259 c 128,-1,31
 331 220 331 220 354.5 181 c 128,-1,32
 378 142 378 142 408.5 112 c 128,-1,33
 439 82 439 82 478 62.5 c 128,-1,34
 517 43 517 43 573 43 c 0,35,36
 588 43 588 43 599 49 c 128,-1,37
 610 55 610 55 621 61.5 c 128,-1,38
 632 68 632 68 643.5 73.5 c 128,-1,39
 655 79 655 79 669 79 c 1,40,41
 669 55 669 55 657.5 39 c 128,-1,42
 646 23 646 23 629 14 c 128,-1,43
 612 5 612 5 591.5 1.5 c 128,-1,44
 571 -2 571 -2 551 -2 c 0,45,46
 496 -2 496 -2 455.5 13 c 128,-1,47
 415 28 415 28 385 51.5 c 128,-1,48
 355 75 355 75 333.5 105.5 c 128,-1,49
 312 136 312 136 294.5 167.5 c 128,-1,50
 277 199 277 199 261 230 c 128,-1,51
 245 261 245 261 227 284.5 c 128,-1,52
 209 308 209 308 186.5 322.5 c 128,-1,53
 164 337 164 337 133 337 c 0,0,1
EndSplineSet
EndChar

StartChar: l
Encoding: 108 108 79
Width: 169
Flags: W
LayerCount: 2
Fore
SplineSet
43 633 m 1,0,1
 43 645 43 645 44.5 664.5 c 128,-1,2
 46 684 46 684 47.5 703.5 c 128,-1,3
 49 723 49 723 50.5 737.5 c 128,-1,4
 52 752 52 752 52 754 c 1,5,-1
 83 782 l 1,6,-1
 97 767 l 2,7,8
 97 766 97 766 98.5 746.5 c 128,-1,9
 100 727 100 727 101 693 c 128,-1,10
 102 659 102 659 103.5 613.5 c 128,-1,11
 105 568 105 568 107 517 c 128,-1,12
 109 466 109 466 110.5 412 c 128,-1,13
 112 358 112 358 113.5 306.5 c 128,-1,14
 115 255 115 255 116 208.5 c 128,-1,15
 117 162 117 162 118 127 c 1,16,-1
 118 118 l 2,17,18
 118 112 118 112 117.5 103.5 c 128,-1,19
 117 95 117 95 116.5 87 c 128,-1,20
 116 79 116 79 116 73 c 0,21,22
 116 70 116 70 115.5 62.5 c 128,-1,23
 115 55 115 55 115 46.5 c 128,-1,24
 115 38 115 38 114.5 31 c 128,-1,25
 114 24 114 24 114 21 c 1,26,27
 112 19 112 19 107.5 16.5 c 128,-1,28
 103 14 103 14 98.5 12 c 128,-1,29
 94 10 94 10 89.5 8.5 c 128,-1,30
 85 7 85 7 82 7 c 256,31,32
 79 7 79 7 74 13 c 128,-1,33
 69 19 69 19 67 23 c 0,34,35
 66 26 66 26 64 34.5 c 128,-1,36
 62 43 62 43 60 53 c 128,-1,37
 58 63 58 63 56.5 71.5 c 128,-1,38
 55 80 55 80 55 84 c 0,39,40
 55 100 55 100 53 131 c 128,-1,41
 51 162 51 162 49 199 c 128,-1,42
 47 236 47 236 45.5 276 c 128,-1,43
 44 316 44 316 42.5 350.5 c 128,-1,44
 41 385 41 385 40 412 c 128,-1,45
 39 439 39 439 39 449 c 2,46,-1
 39 465 l 2,47,48
 39 477 39 477 39.5 494 c 128,-1,49
 40 511 40 511 40 531 c 128,-1,50
 40 551 40 551 40.5 570 c 128,-1,51
 41 589 41 589 41.5 605.5 c 128,-1,52
 42 622 42 622 43 633 c 1,0,1
EndSplineSet
EndChar

StartChar: m
Encoding: 109 109 80
Width: 846
Flags: W
LayerCount: 2
Fore
SplineSet
577 518 m 1,0,1
 526 514 526 514 493 486.5 c 128,-1,2
 460 459 460 459 440.5 417.5 c 128,-1,3
 421 376 421 376 411.5 326 c 128,-1,4
 402 276 402 276 399.5 227 c 128,-1,5
 397 178 397 178 398.5 134 c 128,-1,6
 400 90 400 90 403 61 c 1,7,-1
 345 64 l 1,8,9
 344 70 344 70 343 93 c 128,-1,10
 342 116 342 116 340 147.5 c 128,-1,11
 338 179 338 179 336 214.5 c 128,-1,12
 334 250 334 250 332.5 281.5 c 128,-1,13
 331 313 331 313 329.5 335.5 c 128,-1,14
 328 358 328 358 327 364 c 0,15,16
 325 381 325 381 319 407 c 128,-1,17
 313 433 313 433 301.5 457.5 c 128,-1,18
 290 482 290 482 274 500 c 128,-1,19
 258 518 258 518 237 518 c 0,20,21
 211 518 211 518 191 506 c 128,-1,22
 171 494 171 494 156.5 475 c 128,-1,23
 142 456 142 456 131.5 431 c 128,-1,24
 121 406 121 406 114.5 380.5 c 128,-1,25
 108 355 108 355 104 331 c 128,-1,26
 100 307 100 307 99 289 c 0,27,28
 98 280 98 280 97 262 c 128,-1,29
 96 244 96 244 94 221.5 c 128,-1,30
 92 199 92 199 90.5 174.5 c 128,-1,31
 89 150 89 150 87.5 127.5 c 128,-1,32
 86 105 86 105 85 87 c 128,-1,33
 84 69 84 69 84 61 c 1,34,-1
 38 61 l 1,35,36
 34 121 34 121 31 166 c 128,-1,37
 28 211 28 211 26 250 c 128,-1,38
 24 289 24 289 23 329 c 128,-1,39
 22 369 22 369 22 418 c 2,40,-1
 22 435 l 2,41,42
 22 447 22 447 22.5 460 c 128,-1,43
 23 473 23 473 23 485 c 2,44,-1
 23 502 l 1,45,46
 27 514 27 514 34.5 527 c 128,-1,47
 42 540 42 540 54 547 c 1,48,49
 57 547 57 547 62 541 c 128,-1,50
 67 535 67 535 68 532 c 0,51,52
 70 528 70 528 72.5 517 c 128,-1,53
 75 506 75 506 77 494 c 128,-1,54
 79 482 79 482 81.5 471 c 128,-1,55
 84 460 84 460 84 456 c 1,56,57
 85 455 85 455 87.5 454.5 c 128,-1,58
 90 454 90 454 91 454 c 0,59,60
 94 454 94 454 102 462.5 c 128,-1,61
 110 471 110 471 121.5 483 c 128,-1,62
 133 495 133 495 147.5 509 c 128,-1,63
 162 523 162 523 177.5 535 c 128,-1,64
 193 547 193 547 210 555.5 c 128,-1,65
 227 564 227 564 244 564 c 0,66,67
 268 564 268 564 288 552 c 128,-1,68
 308 540 308 540 323.5 522 c 128,-1,69
 339 504 339 504 351 482 c 128,-1,70
 363 460 363 460 373 441 c 1,71,72
 411 505 411 505 469.5 535 c 128,-1,73
 528 565 528 565 601 565 c 1,74,75
 649 547 649 547 677 511.5 c 128,-1,76
 705 476 705 476 719.5 430.5 c 128,-1,77
 734 385 734 385 739 333.5 c 128,-1,78
 744 282 744 282 747 233.5 c 128,-1,79
 750 185 750 185 754.5 144 c 128,-1,80
 759 103 759 103 772.5 78.5 c 128,-1,81
 786 54 786 54 812 50 c 128,-1,82
 838 46 838 46 884 70 c 1,83,84
 880 60 880 60 880.5 51 c 128,-1,85
 881 42 881 42 882 35.5 c 128,-1,86
 883 29 883 29 881.5 25.5 c 128,-1,87
 880 22 880 22 871 22 c 1,88,89
 821 -4 821 -4 789 4.5 c 128,-1,90
 757 13 757 13 737.5 44.5 c 128,-1,91
 718 76 718 76 707 125.5 c 128,-1,92
 696 175 696 175 689 229.5 c 128,-1,93
 682 284 682 284 675.5 338.5 c 128,-1,94
 669 393 669 393 657.5 435 c 128,-1,95
 646 477 646 477 627.5 500.5 c 128,-1,96
 609 524 609 524 577 518 c 1,0,1
EndSplineSet
EndChar

StartChar: n
Encoding: 110 110 81
Width: 677
Flags: W
LayerCount: 2
Fore
SplineSet
298 534 m 0,0,1
 275 534 275 534 243.5 519.5 c 128,-1,2
 212 505 212 505 183.5 482 c 128,-1,3
 155 459 155 459 135 432 c 128,-1,4
 115 405 115 405 115 380 c 2,5,-1
 115 45 l 2,6,7
 115 40 115 40 110 37 c 128,-1,8
 105 34 105 34 98.5 32.5 c 128,-1,9
 92 31 92 31 85.5 30.5 c 128,-1,10
 79 30 79 30 76 30 c 0,11,12
 61 30 61 30 54.5 35 c 128,-1,13
 48 40 48 40 46 49 c 128,-1,14
 44 58 44 58 45 69 c 128,-1,15
 46 80 46 80 46 91 c 1,16,17
 45 100 45 100 43 130 c 1,18,-1
 41 198 l 2,19,20
 40 237 40 237 38.5 281 c 128,-1,21
 37 325 37 325 35.5 364 c 128,-1,22
 34 403 34 403 32.5 432.5 c 128,-1,23
 31 462 31 462 31 472 c 2,24,-1
 31 514 l 2,25,26
 31 521 31 521 33.5 526.5 c 128,-1,27
 36 532 36 532 42.5 537 c 128,-1,28
 49 542 49 542 61 547 c 1,29,30
 64 547 64 547 69.5 541 c 128,-1,31
 75 535 75 535 76 532 c 0,32,33
 77 528 77 528 79.5 517 c 128,-1,34
 82 506 82 506 84.5 494 c 128,-1,35
 87 482 87 482 89 471 c 128,-1,36
 91 460 91 460 91 456 c 1,37,38
 92 455 92 455 94.5 454.5 c 128,-1,39
 97 454 97 454 99 454 c 0,40,41
 114 454 114 454 136 473.5 c 128,-1,42
 158 493 158 493 186 516.5 c 128,-1,43
 214 540 214 540 245.5 559.5 c 128,-1,44
 277 579 277 579 311 579 c 0,45,46
 355 579 355 579 379.5 556 c 128,-1,47
 404 533 404 533 416 495 c 128,-1,48
 428 457 428 457 432 409 c 128,-1,49
 436 361 436 361 438.5 311.5 c 128,-1,50
 441 262 441 262 446.5 214 c 128,-1,51
 452 166 452 166 467.5 128 c 128,-1,52
 483 90 483 90 512.5 67 c 128,-1,53
 542 44 542 44 593 44 c 0,54,55
 610 44 610 44 627 46.5 c 128,-1,56
 644 49 644 49 661 52.5 c 128,-1,57
 678 56 678 56 695 58.5 c 128,-1,58
 712 61 712 61 730 61 c 0,59,60
 732 61 732 61 738 61 c 128,-1,61
 744 61 744 61 745 61 c 1,62,63
 704 31 704 31 663 15 c 128,-1,64
 622 -1 622 -1 570 -1 c 0,65,66
 514 -1 514 -1 480.5 22 c 128,-1,67
 447 45 447 45 427 83 c 128,-1,68
 407 121 407 121 399 169 c 128,-1,69
 391 217 391 217 386.5 266.5 c 128,-1,70
 382 316 382 316 380 364 c 128,-1,71
 378 412 378 412 370 450 c 128,-1,72
 362 488 362 488 345.5 511 c 128,-1,73
 329 534 329 534 298 534 c 0,0,1
EndSplineSet
EndChar

StartChar: o
Encoding: 111 111 82
Width: 479
Flags: W
LayerCount: 2
Fore
SplineSet
23 160 m 1,0,1
 27 202 27 202 35.5 247 c 128,-1,2
 44 292 44 292 60 334 c 128,-1,3
 76 376 76 376 99 412.5 c 128,-1,4
 122 449 122 449 154.5 476 c 128,-1,5
 187 503 187 503 229 517 c 128,-1,6
 271 531 271 531 325 527 c 1,7,8
 397 465 397 465 428 401 c 128,-1,9
 459 337 459 337 459.5 278.5 c 128,-1,10
 460 220 460 220 436 169 c 128,-1,11
 412 118 412 118 374 80.5 c 128,-1,12
 336 43 336 43 289 21 c 128,-1,13
 242 -1 242 -1 198 -1 c 0,14,15
 163 -1 163 -1 131.5 9.5 c 128,-1,16
 100 20 100 20 76 40.5 c 128,-1,17
 52 61 52 61 37.5 91 c 128,-1,18
 23 121 23 121 23 160 c 1,0,1
406 274 m 0,19,20
 406 308 406 308 401 335.5 c 128,-1,21
 396 363 396 363 384.5 386.5 c 128,-1,22
 373 410 373 410 355 431.5 c 128,-1,23
 337 453 337 453 310 475 c 1,24,-1
 308 466 l 1,25,26
 268 469 268 469 227 446.5 c 128,-1,27
 186 424 186 424 152.5 384 c 128,-1,28
 119 344 119 344 99 290 c 128,-1,29
 79 236 79 236 83 175 c 1,30,31
 83 138 83 138 97.5 110 c 128,-1,32
 112 82 112 82 145 61 c 1,33,34
 148 61 148 61 157 60.5 c 128,-1,35
 166 60 166 60 175 60 c 128,-1,36
 184 60 184 60 193 59.5 c 128,-1,37
 202 59 202 59 205 59 c 0,38,39
 255 59 255 59 292.5 74 c 128,-1,40
 330 89 330 89 355 117 c 128,-1,41
 380 145 380 145 393 185 c 128,-1,42
 406 225 406 225 406 274 c 0,19,20
EndSplineSet
EndChar

StartChar: p
Encoding: 112 112 83
Width: 517
Flags: W
LayerCount: 2
Fore
SplineSet
31 -548 m 1,0,1
 31 -532 31 -532 30.5 -499.5 c 128,-1,2
 30 -467 30 -467 30 -425.5 c 128,-1,3
 30 -384 30 -384 29.5 -338.5 c 128,-1,4
 29 -293 29 -293 29 -252 c 2,5,-1
 29 -130 l 2,6,7
 29 -88 29 -88 28 -32.5 c 128,-1,8
 27 23 27 23 26 85 c 128,-1,9
 25 147 25 147 25 212.5 c 128,-1,10
 25 278 25 278 25.5 342 c 128,-1,11
 26 406 26 406 29.5 464 c 128,-1,12
 33 522 33 522 39 569 c 0,13,14
 40 570 40 570 46.5 570.5 c 128,-1,15
 53 571 53 571 55 571 c 0,16,17
 70 571 70 571 80.5 564 c 128,-1,18
 91 557 91 557 100 539 c 1,19,20
 134 541 134 541 176 543.5 c 128,-1,21
 218 546 218 546 260.5 544.5 c 128,-1,22
 303 543 303 543 342.5 535.5 c 128,-1,23
 382 528 382 528 413 509.5 c 128,-1,24
 444 491 444 491 462.5 459.5 c 128,-1,25
 481 428 481 428 481 379 c 1,26,27
 476 269 476 269 441 193 c 128,-1,28
 406 117 406 117 352 74.5 c 128,-1,29
 298 32 298 32 232 22.5 c 128,-1,30
 166 13 166 13 100 35 c 1,31,-1
 99 -487 l 2,32,33
 99 -490 99 -490 96 -502.5 c 128,-1,34
 93 -515 93 -515 87.5 -528.5 c 128,-1,35
 82 -542 82 -542 73 -553 c 128,-1,36
 64 -564 64 -564 54 -564 c 0,37,38
 39 -564 39 -564 31 -548 c 1,0,1
83 408 m 2,39,40
 83 373 83 373 85 330.5 c 128,-1,41
 87 288 87 288 90.5 244 c 128,-1,42
 94 200 94 200 98 157 c 128,-1,43
 102 114 102 114 106 76 c 1,44,-1
 114 76 l 2,45,46
 119 76 119 76 125.5 75.5 c 128,-1,47
 132 75 132 75 137 75 c 2,48,-1
 145 75 l 2,49,50
 196 75 196 75 245.5 98 c 128,-1,51
 295 121 295 121 333.5 161 c 128,-1,52
 372 201 372 201 396 253.5 c 128,-1,53
 420 306 420 306 420 364 c 0,54,55
 420 415 420 415 399 442.5 c 128,-1,56
 378 470 378 470 344 482 c 128,-1,57
 310 494 310 494 268 495.5 c 128,-1,58
 226 497 226 497 184 497 c 0,59,60
 177 497 177 497 165.5 496.5 c 128,-1,61
 154 496 154 496 143.5 495 c 128,-1,62
 133 494 133 494 124.5 493.5 c 128,-1,63
 116 493 116 493 115 493 c 2,64,-1
 85 463 l 1,65,-1
 84 456 l 2,66,67
 84 449 84 449 83.5 440.5 c 128,-1,68
 83 432 83 432 83 422 c 2,69,-1
 83 408 l 2,39,40
EndSplineSet
EndChar

StartChar: q
Encoding: 113 113 84
Width: 477
Flags: W
LayerCount: 2
Fore
SplineSet
202 -489 m 2,0,-1
 202 -469 l 2,1,2
 202 -456 202 -456 202 -443.5 c 128,-1,3
 202 -431 202 -431 202.5 -421.5 c 128,-1,4
 203 -412 203 -412 203 -410 c 0,5,6
 204 -401 204 -401 207 -380 c 128,-1,7
 210 -359 210 -359 214.5 -330.5 c 128,-1,8
 219 -302 219 -302 224 -270.5 c 128,-1,9
 229 -239 229 -239 233.5 -210.5 c 128,-1,10
 238 -182 238 -182 242 -158 c 128,-1,11
 246 -134 246 -134 249 -122 c 0,12,13
 250 -116 250 -116 254.5 -97 c 128,-1,14
 259 -78 259 -78 265.5 -53 c 128,-1,15
 272 -28 272 -28 279 0 c 128,-1,16
 286 28 286 28 292.5 53.5 c 128,-1,17
 299 79 299 79 303.5 97.5 c 128,-1,18
 308 116 308 116 310 122 c 0,19,20
 310 124 310 124 309 128.5 c 128,-1,21
 308 133 308 133 308 134 c 1,22,23
 298 134 298 134 285.5 127.5 c 128,-1,24
 273 121 273 121 258.5 111.5 c 128,-1,25
 244 102 244 102 229 90.5 c 128,-1,26
 214 79 214 79 199 69 c 128,-1,27
 184 59 184 59 171.5 52.5 c 128,-1,28
 159 46 159 46 149 46 c 0,29,30
 103 46 103 46 78 70 c 128,-1,31
 53 94 53 94 53 140 c 1,32,33
 37 190 37 190 40 245.5 c 128,-1,34
 43 301 43 301 59.5 353.5 c 128,-1,35
 76 406 76 406 104.5 452 c 128,-1,36
 133 498 133 498 168 528.5 c 128,-1,37
 203 559 203 559 243 570.5 c 128,-1,38
 283 582 283 582 323 566 c 1,39,40
 349 566 349 566 369.5 557.5 c 128,-1,41
 390 549 390 549 404 533 c 128,-1,42
 418 517 418 517 425.5 496 c 128,-1,43
 433 475 433 475 433 451 c 0,44,45
 433 448 433 448 433 442.5 c 128,-1,46
 433 437 433 437 432.5 431 c 128,-1,47
 432 425 432 425 431.5 420 c 128,-1,48
 431 415 431 415 431 412 c 0,49,50
 393 304 393 304 362 185 c 128,-1,51
 331 66 331 66 308.5 -56.5 c 128,-1,52
 286 -179 286 -179 274 -301.5 c 128,-1,53
 262 -424 262 -424 262 -537 c 0,54,55
 262 -554 262 -554 262.5 -581 c 128,-1,56
 263 -608 263 -608 268.5 -635 c 128,-1,57
 274 -662 274 -662 286.5 -681 c 128,-1,58
 299 -700 299 -700 325 -700 c 0,59,60
 358 -700 358 -700 389 -686.5 c 128,-1,61
 420 -673 420 -673 447.5 -649.5 c 128,-1,62
 475 -626 475 -626 497.5 -596 c 128,-1,63
 520 -566 520 -566 536 -533.5 c 128,-1,64
 552 -501 552 -501 561 -467.5 c 128,-1,65
 570 -434 570 -434 570 -404 c 0,66,67
 570 -373 570 -373 556.5 -354 c 128,-1,68
 543 -335 543 -335 524 -321 c 128,-1,69
 505 -307 505 -307 484 -293.5 c 128,-1,70
 463 -280 463 -280 447 -258 c 1,71,72
 449 -258 449 -258 457.5 -257.5 c 128,-1,73
 466 -257 466 -257 469 -257 c 0,74,75
 505 -257 505 -257 530.5 -273.5 c 128,-1,76
 556 -290 556 -290 571.5 -316 c 128,-1,77
 587 -342 587 -342 594 -373 c 128,-1,78
 601 -404 601 -404 601 -434 c 256,79,80
 601 -464 601 -464 590.5 -499.5 c 128,-1,81
 580 -535 580 -535 561.5 -570 c 128,-1,82
 543 -605 543 -605 518 -637 c 128,-1,83
 493 -669 493 -669 463 -694 c 128,-1,84
 433 -719 433 -719 399.5 -733.5 c 128,-1,85
 366 -748 366 -748 331 -748 c 0,86,87
 299 -748 299 -748 277 -735 c 128,-1,88
 255 -722 255 -722 240.5 -700.5 c 128,-1,89
 226 -679 226 -679 218.5 -651 c 128,-1,90
 211 -623 211 -623 207 -594.5 c 128,-1,91
 203 -566 203 -566 202.5 -538.5 c 128,-1,92
 202 -511 202 -511 202 -489 c 2,0,-1
334 520 m 1,93,94
 286 523 286 523 248 500 c 128,-1,95
 210 477 210 477 180.5 438 c 128,-1,96
 151 399 151 399 131.5 349.5 c 128,-1,97
 112 300 112 300 102.5 251 c 128,-1,98
 93 202 93 202 95 158.5 c 128,-1,99
 97 115 97 115 111 88 c 1,100,101
 140 88 140 88 172 108.5 c 128,-1,102
 204 129 204 129 234.5 162.5 c 128,-1,103
 265 196 265 196 293 238 c 128,-1,104
 321 280 321 280 341.5 323.5 c 128,-1,105
 362 367 362 367 374.5 406.5 c 128,-1,106
 387 446 387 446 387 475 c 0,107,108
 387 497 387 497 371 508.5 c 128,-1,109
 355 520 355 520 334 520 c 1,93,94
249 -646 m 256,110,111
 243 -646 243 -646 243 -654 c 128,-1,112
 243 -662 243 -662 249 -662 c 256,113,114
 255 -662 255 -662 255 -654 c 128,-1,115
 255 -646 255 -646 249 -646 c 256,110,111
EndSplineSet
EndChar

StartChar: r
Encoding: 114 114 85
Width: 484
Flags: W
LayerCount: 2
Fore
SplineSet
41 346 m 2,0,-1
 41 508 l 2,1,2
 41 514 41 514 42 519 c 128,-1,3
 43 524 43 524 46.5 528 c 128,-1,4
 50 532 50 532 58 533 c 1,5,6
 73 523 73 523 78.5 505 c 128,-1,7
 84 487 84 487 87.5 468.5 c 128,-1,8
 91 450 91 450 97 434 c 128,-1,9
 103 418 103 418 118 412 c 1,10,11
 137 444 137 444 156 472 c 128,-1,12
 175 500 175 500 198.5 521 c 128,-1,13
 222 542 222 542 251 553.5 c 128,-1,14
 280 565 280 565 320 565 c 0,15,16
 343 565 343 565 368 560.5 c 128,-1,17
 393 556 393 556 413.5 544.5 c 128,-1,18
 434 533 434 533 447.5 514 c 128,-1,19
 461 495 461 495 461 466 c 1,20,21
 439 466 439 466 422 474 c 128,-1,22
 405 482 405 482 388 492 c 128,-1,23
 371 502 371 502 352 510.5 c 128,-1,24
 333 519 333 519 308 519 c 0,25,26
 274 519 274 519 247.5 502 c 128,-1,27
 221 485 221 485 200 456 c 128,-1,28
 179 427 179 427 163.5 389 c 128,-1,29
 148 351 148 351 136.5 309 c 128,-1,30
 125 267 125 267 118 224 c 128,-1,31
 111 181 111 181 106.5 141.5 c 128,-1,32
 102 102 102 102 100.5 69 c 128,-1,33
 99 36 99 36 99 15 c 1,34,-1
 54 15 l 1,35,36
 50 45 50 45 48 84 c 128,-1,37
 46 123 46 123 44.5 167 c 128,-1,38
 43 211 43 211 42 256.5 c 128,-1,39
 41 302 41 302 41 346 c 2,0,-1
EndSplineSet
EndChar

StartChar: s
Encoding: 115 115 86
Width: 571
Flags: W
LayerCount: 2
Fore
SplineSet
23 152 m 1,0,1
 22 156 22 156 22 167.5 c 128,-1,2
 22 179 22 179 22 183 c 256,3,4
 22 187 22 187 21.5 194 c 128,-1,5
 21 201 21 201 22 208 c 128,-1,6
 23 215 23 215 26.5 220.5 c 128,-1,7
 30 226 30 226 38 228 c 1,8,9
 37 206 37 206 48 184.5 c 128,-1,10
 59 163 59 163 76.5 142.5 c 128,-1,11
 94 122 94 122 117 104 c 128,-1,12
 140 86 140 86 165 73 c 128,-1,13
 190 60 190 60 214 52.5 c 128,-1,14
 238 45 238 45 259 45 c 0,15,16
 298 45 298 45 338 58 c 128,-1,17
 378 71 378 71 409.5 95 c 128,-1,18
 441 119 441 119 461 153.5 c 128,-1,19
 481 188 481 188 481 231 c 0,20,21
 481 258 481 258 465 276.5 c 128,-1,22
 449 295 449 295 423 308.5 c 128,-1,23
 397 322 397 322 364 331.5 c 128,-1,24
 331 341 331 341 296 350 c 128,-1,25
 261 359 261 359 228 369 c 128,-1,26
 195 379 195 379 168.5 393 c 128,-1,27
 142 407 142 407 126.5 426 c 128,-1,28
 111 445 111 445 111 473 c 0,29,30
 111 499 111 499 123 518.5 c 128,-1,31
 135 538 135 538 154 553.5 c 128,-1,32
 173 569 173 569 198 579.5 c 128,-1,33
 223 590 223 590 249 597 c 128,-1,34
 275 604 275 604 300 607 c 128,-1,35
 325 610 325 610 345 610 c 0,36,37
 370 610 370 610 389.5 609.5 c 128,-1,38
 409 609 409 609 425.5 603.5 c 128,-1,39
 442 598 442 598 455.5 585.5 c 128,-1,40
 469 573 469 573 479 547 c 1,41,42
 475 538 475 538 469.5 535 c 128,-1,43
 464 532 464 532 456 532 c 0,44,45
 443 532 443 532 435 541.5 c 128,-1,46
 427 551 427 551 418 563 c 1,47,48
 415 563 415 563 405 563.5 c 128,-1,49
 395 564 395 564 384 564.5 c 128,-1,50
 373 565 373 565 363.5 565 c 128,-1,51
 354 565 354 565 350 565 c 0,52,53
 337 565 337 565 317.5 563.5 c 128,-1,54
 298 562 298 562 276.5 559 c 128,-1,55
 255 556 255 556 234 549 c 128,-1,56
 213 542 213 542 196 532 c 128,-1,57
 179 522 179 522 168.5 507 c 128,-1,58
 158 492 158 492 158 472 c 0,59,60
 158 455 158 455 165 445 c 128,-1,61
 172 435 172 435 190 425 c 1,62,63
 198 424 198 424 213.5 419.5 c 128,-1,64
 229 415 229 415 248.5 409 c 128,-1,65
 268 403 268 403 289.5 397 c 128,-1,66
 311 391 311 391 330.5 384.5 c 128,-1,67
 350 378 350 378 365 372.5 c 128,-1,68
 380 367 380 367 388 364 c 0,69,70
 415 354 415 354 442.5 344 c 128,-1,71
 470 334 470 334 492 319 c 128,-1,72
 514 304 514 304 527.5 282.5 c 128,-1,73
 541 261 541 261 541 228 c 0,74,75
 541 178 541 178 514.5 136 c 128,-1,76
 488 94 488 94 447.5 63.5 c 128,-1,77
 407 33 407 33 358.5 16 c 128,-1,78
 310 -1 310 -1 265 -1 c 0,79,80
 225 -1 225 -1 190.5 10.5 c 128,-1,81
 156 22 156 22 126.5 43 c 128,-1,82
 97 64 97 64 71.5 91.5 c 128,-1,83
 46 119 46 119 23 152 c 1,0,1
EndSplineSet
EndChar

StartChar: t
Encoding: 116 116 87
Width: 433
Flags: W
LayerCount: 2
Fore
SplineSet
11 447 m 1,0,1
 4 477 4 477 6 490 c 128,-1,2
 8 503 8 503 18 507 c 128,-1,3
 28 511 28 511 44 509.5 c 128,-1,4
 60 508 60 508 79.5 509 c 128,-1,5
 99 510 99 510 121.5 518 c 128,-1,6
 144 526 144 526 167 548 c 1,7,8
 169 560 169 560 172 589.5 c 128,-1,9
 175 619 175 619 178.5 656.5 c 128,-1,10
 182 694 182 694 186 736 c 128,-1,11
 190 778 190 778 193.5 815.5 c 128,-1,12
 197 853 197 853 199.5 882 c 128,-1,13
 202 911 202 911 204 923 c 1,14,-1
 213 923 l 2,15,16
 217 923 217 923 221.5 924.5 c 128,-1,17
 226 926 226 926 230 927 c 128,-1,18
 234 928 234 928 237.5 927.5 c 128,-1,19
 241 927 241 927 244 922 c 1,20,21
 247 885 247 885 243.5 837 c 128,-1,22
 240 789 240 789 235 737 c 128,-1,23
 230 685 230 685 226.5 632.5 c 128,-1,24
 223 580 223 580 228 534 c 1,25,-1
 443 549 l 1,26,-1
 436 506 l 1,27,-1
 246 480 l 1,28,29
 220 433 220 433 211 380.5 c 128,-1,30
 202 328 202 328 205.5 278.5 c 128,-1,31
 209 229 209 229 222 185.5 c 128,-1,32
 235 142 235 142 253 112 c 128,-1,33
 271 82 271 82 292 69.5 c 128,-1,34
 313 57 313 57 333 68 c 1,35,36
 355 67 355 67 371 74 c 128,-1,37
 387 81 387 81 398 93.5 c 128,-1,38
 409 106 409 106 416.5 121 c 128,-1,39
 424 136 424 136 430.5 150.5 c 128,-1,40
 437 165 437 165 444 176 c 128,-1,41
 451 187 451 187 460 192 c 1,42,43
 460 190 460 190 460.5 179.5 c 128,-1,44
 461 169 461 169 461 166 c 0,45,46
 461 133 461 133 450 105 c 128,-1,47
 439 77 439 77 420.5 57 c 128,-1,48
 402 37 402 37 376 25.5 c 128,-1,49
 350 14 350 14 320 14 c 1,50,51
 271 17 271 17 241 41 c 128,-1,52
 211 65 211 65 193.5 103.5 c 128,-1,53
 176 142 176 142 169.5 189.5 c 128,-1,54
 163 237 163 237 163 285.5 c 128,-1,55
 163 334 163 334 166 380.5 c 128,-1,56
 169 427 169 427 172 463 c 1,57,-1
 11 447 l 1,0,1
EndSplineSet
EndChar

StartChar: u
Encoding: 117 117 88
Width: 608
Flags: W
LayerCount: 2
Fore
SplineSet
319 138 m 0,0,1
 318 138 318 138 315.5 137.5 c 128,-1,2
 313 137 313 137 312 136 c 0,3,4
 292 112 292 112 273.5 89.5 c 128,-1,5
 255 67 255 67 234.5 50.5 c 128,-1,6
 214 34 214 34 190 23.5 c 128,-1,7
 166 13 166 13 135 13 c 0,8,9
 117 13 117 13 103 22 c 128,-1,10
 89 31 89 31 79 44.5 c 128,-1,11
 69 58 69 58 62.5 74.5 c 128,-1,12
 56 91 56 91 54 106 c 0,13,14
 53 113 53 113 52.5 141 c 128,-1,15
 52 169 52 169 52 208 c 2,16,-1
 52 379 l 2,17,18
 52 421 52 421 52 454 c 128,-1,19
 52 487 52 487 50 500 c 0,20,21
 50 502 50 502 49.5 511.5 c 128,-1,22
 49 521 49 521 49 525 c 0,23,24
 49 538 49 538 52.5 550 c 128,-1,25
 56 562 56 562 73 562 c 0,26,27
 81 562 81 562 86 558 c 128,-1,28
 91 554 91 554 95 545 c 1,29,30
 97 535 97 535 98.5 503.5 c 128,-1,31
 100 472 100 472 101.5 430 c 128,-1,32
 103 388 103 388 104.5 341.5 c 128,-1,33
 106 295 106 295 107.5 253 c 128,-1,34
 109 211 109 211 110.5 179.5 c 128,-1,35
 112 148 112 148 115 136 c 1,36,37
 117 122 117 122 120.5 111 c 128,-1,38
 124 100 124 100 129.5 91.5 c 128,-1,39
 135 83 135 83 144 78.5 c 128,-1,40
 153 74 153 74 167 74 c 0,41,42
 170 74 170 74 179 74.5 c 128,-1,43
 188 75 188 75 190 76 c 0,44,45
 235 115 235 115 268 171 c 128,-1,46
 301 227 301 227 322 290 c 128,-1,47
 343 353 343 353 355 419 c 128,-1,48
 367 485 367 485 370 545 c 1,49,50
 370 545 370 545 373 545.5 c 128,-1,51
 376 546 376 546 377 546 c 0,52,53
 385 546 385 546 390 542.5 c 128,-1,54
 395 539 395 539 399 531 c 1,55,56
 400 504 400 504 399.5 466 c 128,-1,57
 399 428 399 428 399 385.5 c 128,-1,58
 399 343 399 343 401 297.5 c 128,-1,59
 403 252 403 252 409 209.5 c 128,-1,60
 415 167 415 167 427.5 130.5 c 128,-1,61
 440 94 440 94 461 69 c 128,-1,62
 482 44 482 44 512.5 33 c 128,-1,63
 543 22 543 22 586 31 c 1,64,65
 577 17 577 17 565 10.5 c 128,-1,66
 553 4 553 4 539 1 c 128,-1,67
 525 -2 525 -2 510 -2 c 2,68,-1
 481 -2 l 2,69,70
 452 -2 452 -2 430 8.5 c 128,-1,71
 408 19 408 19 391.5 34.5 c 128,-1,72
 375 50 375 50 363.5 68 c 128,-1,73
 352 86 352 86 344.5 101.5 c 128,-1,74
 337 117 337 117 331 127.5 c 128,-1,75
 325 138 325 138 319 138 c 0,0,1
EndSplineSet
EndChar

StartChar: v
Encoding: 118 118 89
Width: 487
Flags: W
LayerCount: 2
Fore
SplineSet
244 15 m 1,0,1
 213 69 213 69 185.5 125 c 128,-1,2
 158 181 158 181 131 236.5 c 128,-1,3
 104 292 104 292 75.5 347.5 c 128,-1,4
 47 403 47 403 15 456 c 1,5,-1
 15 495 l 1,6,7
 27 495 27 495 38.5 490 c 128,-1,8
 50 485 50 485 60 477 c 128,-1,9
 70 469 70 469 78.5 459.5 c 128,-1,10
 87 450 87 450 91 441 c 2,11,-1
 259 106 l 1,12,-1
 274 106 l 1,13,14
 279 121 279 121 289.5 153.5 c 128,-1,15
 300 186 300 186 313.5 226.5 c 128,-1,16
 327 267 327 267 341.5 311.5 c 128,-1,17
 356 356 356 356 370 396.5 c 128,-1,18
 384 437 384 437 395 469 c 128,-1,19
 406 501 406 501 411 517 c 0,20,21
 418 537 418 537 425.5 546.5 c 128,-1,22
 433 556 433 556 456 556 c 1,23,-1
 456 502 l 1,24,-1
 304 15 l 2,25,26
 304 13 304 13 298 10.5 c 128,-1,27
 292 8 292 8 285 6 c 128,-1,28
 278 4 278 4 270.5 2 c 128,-1,29
 263 0 263 0 259 0 c 256,30,31
 255 0 255 0 249.5 5.5 c 128,-1,32
 244 11 244 11 244 15 c 1,0,1
EndSplineSet
EndChar

StartChar: w
Encoding: 119 119 90
Width: 715
Flags: W
LayerCount: 2
Fore
SplineSet
23 425 m 1,0,1
 25 436 25 436 29.5 446.5 c 128,-1,2
 34 457 34 457 46 457 c 256,3,4
 58 457 58 457 66 440.5 c 128,-1,5
 74 424 74 424 80 397 c 128,-1,6
 86 370 86 370 90 335.5 c 128,-1,7
 94 301 94 301 97.5 265 c 128,-1,8
 101 229 101 229 104 194.5 c 128,-1,9
 107 160 107 160 111.5 133 c 128,-1,10
 116 106 116 106 122 89.5 c 128,-1,11
 128 73 128 73 137 73 c 0,12,13
 138 73 138 73 140.5 74 c 128,-1,14
 143 75 143 75 145 76 c 1,15,16
 168 116 168 116 179.5 152 c 128,-1,17
 191 188 191 188 196.5 225 c 128,-1,18
 202 262 202 262 203 303 c 128,-1,19
 204 344 204 344 205 395 c 1,20,21
 210 408 210 408 219.5 410.5 c 128,-1,22
 229 413 229 413 238 413 c 0,23,24
 242 413 242 413 246.5 412.5 c 128,-1,25
 251 412 251 412 251 411 c 2,26,-1
 282 152 l 2,27,28
 284 135 284 135 297.5 121 c 128,-1,29
 311 107 311 107 329.5 96.5 c 128,-1,30
 348 86 348 86 368 80.5 c 128,-1,31
 388 75 388 75 403 75 c 0,32,33
 455 75 455 75 497.5 87.5 c 128,-1,34
 540 100 540 100 570 125.5 c 128,-1,35
 600 151 600 151 616.5 188 c 128,-1,36
 633 225 633 225 633 274 c 0,37,38
 633 316 633 316 622.5 343 c 128,-1,39
 612 370 612 370 596 388 c 128,-1,40
 580 406 580 406 561.5 417.5 c 128,-1,41
 543 429 543 429 527 441 c 128,-1,42
 511 453 511 453 500.5 468 c 128,-1,43
 490 483 490 483 490 508 c 1,44,45
 541 508 541 508 577 487 c 128,-1,46
 613 466 613 466 635.5 432 c 128,-1,47
 658 398 658 398 668 355.5 c 128,-1,48
 678 313 678 313 678 268 c 0,49,50
 678 210 678 210 655.5 165.5 c 128,-1,51
 633 121 633 121 594.5 90.5 c 128,-1,52
 556 60 556 60 505 44.5 c 128,-1,53
 454 29 454 29 397 29 c 256,54,55
 340 29 340 29 298 54 c 128,-1,56
 256 79 256 79 220 121 c 1,57,58
 214 108 214 108 205.5 87 c 128,-1,59
 197 66 197 66 185 46.5 c 128,-1,60
 173 27 173 27 157.5 13 c 128,-1,61
 142 -1 142 -1 121 -1 c 0,62,63
 102 -1 102 -1 89.5 17.5 c 128,-1,64
 77 36 77 36 69.5 59.5 c 128,-1,65
 62 83 62 83 58.5 105.5 c 128,-1,66
 55 128 55 128 54 136 c 0,67,68
 52 148 52 148 50 170.5 c 128,-1,69
 48 193 48 193 44.5 221.5 c 128,-1,70
 41 250 41 250 37.5 281.5 c 128,-1,71
 34 313 34 313 31 341.5 c 128,-1,72
 28 370 28 370 26 392.5 c 128,-1,73
 24 415 24 415 23 425 c 1,0,1
EndSplineSet
EndChar

StartChar: x
Encoding: 120 120 91
Width: 715
Flags: W
LayerCount: 2
Fore
SplineSet
82 -68 m 1,0,1
 87 -59 87 -59 98 -37.5 c 128,-1,2
 109 -16 109 -16 122.5 11 c 128,-1,3
 136 38 136 38 150.5 67.5 c 128,-1,4
 165 97 165 97 178.5 124.5 c 128,-1,5
 192 152 192 152 202.5 173.5 c 128,-1,6
 213 195 213 195 218 205 c 0,7,8
 219 208 219 208 221.5 214.5 c 128,-1,9
 224 221 224 221 226.5 228.5 c 128,-1,10
 229 236 229 236 230.5 242.5 c 128,-1,11
 232 249 232 249 233 251 c 1,12,13
 231 260 231 260 225 277.5 c 128,-1,14
 219 295 219 295 211 318 c 2,15,-1
 166 453 l 2,16,17
 160 471 160 471 157 479 c 0,18,19
 154 489 154 489 148.5 500 c 128,-1,20
 143 511 143 511 135.5 520 c 128,-1,21
 128 529 128 529 118.5 535 c 128,-1,22
 109 541 109 541 97 541 c 0,23,24
 75 541 75 541 57.5 533 c 128,-1,25
 40 525 40 525 21 510 c 1,26,27
 11 514 11 514 7.5 519.5 c 128,-1,28
 4 525 4 525 4 533 c 0,29,30
 4 553 4 553 14 564 c 128,-1,31
 24 575 24 575 38 580.5 c 128,-1,32
 52 586 52 586 68 587.5 c 128,-1,33
 84 589 84 589 97 589 c 0,34,35
 130 589 130 589 152.5 575.5 c 128,-1,36
 175 562 175 562 191 540.5 c 128,-1,37
 207 519 207 519 218 491 c 128,-1,38
 229 463 229 463 238 433.5 c 128,-1,39
 247 404 247 404 256 376.5 c 128,-1,40
 265 349 265 349 279 327 c 1,41,42
 304 356 304 356 326 393 c 128,-1,43
 348 430 348 430 367 469 c 128,-1,44
 386 508 386 508 402 546 c 128,-1,45
 418 584 418 584 430 616 c 1,46,-1
 465 616 l 1,47,48
 465 568 465 568 450 518.5 c 128,-1,49
 435 469 435 469 413.5 422 c 128,-1,50
 392 375 392 375 367.5 331.5 c 128,-1,51
 343 288 343 288 325 251 c 1,52,-1
 325 221 l 2,53,54
 325 220 325 220 337 207 c 128,-1,55
 349 194 349 194 365.5 177 c 128,-1,56
 382 160 382 160 400 142.5 c 128,-1,57
 418 125 418 125 430 115 c 0,58,59
 441 105 441 105 454 101 c 128,-1,60
 467 97 467 97 480.5 96.5 c 128,-1,61
 494 96 494 96 508 96.5 c 128,-1,62
 522 97 522 97 534 97 c 0,63,64
 554 97 554 97 581 99 c 128,-1,65
 608 101 608 101 631.5 110 c 128,-1,66
 655 119 655 119 667 138 c 0,67,68
 673 147 673 147 676 160 c 1,69,70
 677 155 677 155 677 153 c 0,71,72
 677 117 677 117 660 96.5 c 128,-1,73
 643 76 643 76 617.5 66.5 c 128,-1,74
 592 57 592 57 561.5 54.5 c 128,-1,75
 531 52 531 52 504 52 c 0,76,77
 469 52 469 52 438.5 59.5 c 128,-1,78
 408 67 408 67 381 80.5 c 128,-1,79
 354 94 354 94 329 113.5 c 128,-1,80
 304 133 304 133 279 160 c 1,81,-1
 264 145 l 1,82,-1
 142 -83 l 2,83,84
 133 -101 133 -101 117 -111 c 128,-1,85
 101 -121 101 -121 82 -121 c 1,86,-1
 82 -68 l 1,0,1
674 190 m 1,87,88
 676 177 676 177 676 166 c 2,89,-1
 676 172 l 2,90,91
 676 178 676 178 675 183 c 128,-1,92
 674 188 674 188 674 190 c 1,87,88
EndSplineSet
EndChar

StartChar: y
Encoding: 121 121 92
Width: 479
Flags: W
LayerCount: 2
Fore
SplineSet
-85 -327 m 0,0,1
 -85 -324 -85 -324 -81.5 -310 c 128,-1,2
 -78 -296 -78 -296 -72.5 -279.5 c 128,-1,3
 -67 -263 -67 -263 -60 -250 c 128,-1,4
 -53 -237 -53 -237 -46 -237 c 1,5,6
 -46 -288 -46 -288 -27 -334 c 128,-1,7
 -8 -380 -8 -380 25 -414.5 c 128,-1,8
 58 -449 58 -449 103 -468.5 c 128,-1,9
 148 -488 148 -488 199 -488 c 0,10,11
 246 -488 246 -488 278 -469.5 c 128,-1,12
 310 -451 310 -451 331 -420 c 128,-1,13
 352 -389 352 -389 364 -350 c 128,-1,14
 376 -311 376 -311 381.5 -269.5 c 128,-1,15
 387 -228 387 -228 388 -188.5 c 128,-1,16
 389 -149 389 -149 389 -116 c 0,17,18
 389 -104 389 -104 388.5 -82.5 c 128,-1,19
 388 -61 388 -61 388 -40 c 128,-1,20
 388 -19 388 -19 388 -3 c 128,-1,21
 388 13 388 13 388 15 c 0,22,23
 388 19 388 19 386 35.5 c 128,-1,24
 384 52 384 52 381.5 71.5 c 128,-1,25
 379 91 379 91 376.5 109 c 128,-1,26
 374 127 374 127 373 136 c 0,27,28
 372 140 372 140 370.5 151 c 128,-1,29
 369 162 369 162 365.5 174.5 c 128,-1,30
 362 187 362 187 356.5 198 c 128,-1,31
 351 209 351 209 342 213 c 1,32,33
 329 187 329 187 305 157.5 c 128,-1,34
 281 128 281 128 250.5 103 c 128,-1,35
 220 78 220 78 187 61 c 128,-1,36
 154 44 154 44 121 44 c 0,37,38
 96 44 96 44 78.5 58 c 128,-1,39
 61 72 61 72 50.5 93.5 c 128,-1,40
 40 115 40 115 34 142.5 c 128,-1,41
 28 170 28 170 25.5 197 c 128,-1,42
 23 224 23 224 22.5 248 c 128,-1,43
 22 272 22 272 22 288 c 0,44,45
 22 314 22 314 26.5 346.5 c 128,-1,46
 31 379 31 379 37 413.5 c 128,-1,47
 43 448 43 448 49.5 482 c 128,-1,48
 56 516 56 516 61 545 c 1,49,50
 70 562 70 562 85 562 c 0,51,52
 86 562 86 562 88.5 561.5 c 128,-1,53
 91 561 91 561 92 561 c 1,54,55
 92 551 92 551 91.5 525 c 128,-1,56
 91 499 91 499 90 465.5 c 128,-1,57
 89 432 89 432 87.5 394 c 128,-1,58
 86 356 86 356 85 322.5 c 128,-1,59
 84 289 84 289 83.5 263.5 c 128,-1,60
 83 238 83 238 84 228 c 0,61,62
 85 217 85 217 86 196.5 c 128,-1,63
 87 176 87 176 91.5 156 c 128,-1,64
 96 136 96 136 105.5 120.5 c 128,-1,65
 115 105 115 105 134 105 c 0,66,67
 151 105 151 105 172 108 c 128,-1,68
 193 111 193 111 205 121 c 0,69,70
 220 134 220 134 242 156 c 128,-1,71
 264 178 264 178 284.5 200 c 128,-1,72
 305 222 305 222 319.5 239 c 128,-1,73
 334 256 334 256 334 259 c 2,74,-1
 358 590 l 2,75,76
 358 595 358 595 361.5 598 c 128,-1,77
 365 601 365 601 370 602.5 c 128,-1,78
 375 604 375 604 380 605.5 c 128,-1,79
 385 607 385 607 389 607 c 0,80,81
 403 607 403 607 410.5 597.5 c 128,-1,82
 418 588 418 588 427 575 c 1,83,84
 418 496 418 496 421 406.5 c 128,-1,85
 424 317 424 317 431 226.5 c 128,-1,86
 438 136 438 136 444.5 46.5 c 128,-1,87
 451 -43 451 -43 451 -122 c 0,88,89
 451 -131 451 -131 451 -155 c 128,-1,90
 451 -179 451 -179 450.5 -205.5 c 128,-1,91
 450 -232 450 -232 449 -256 c 128,-1,92
 448 -280 448 -280 448 -289 c 0,93,94
 443 -335 443 -335 422 -381.5 c 128,-1,95
 401 -428 401 -428 367.5 -465.5 c 128,-1,96
 334 -503 334 -503 290.5 -526.5 c 128,-1,97
 247 -550 247 -550 197 -550 c 0,98,99
 174 -550 174 -550 143.5 -541.5 c 128,-1,100
 113 -533 113 -533 82 -518 c 128,-1,101
 51 -503 51 -503 21 -482.5 c 128,-1,102
 -9 -462 -9 -462 -32.5 -437.5 c 128,-1,103
 -56 -413 -56 -413 -70.5 -385 c 128,-1,104
 -85 -357 -85 -357 -85 -327 c 0,0,1
EndSplineSet
EndChar

StartChar: z
Encoding: 122 122 93
Width: 775
Flags: W
LayerCount: 2
Fore
SplineSet
27 87 m 1,0,1
 27 112 27 112 33.5 125.5 c 128,-1,2
 40 139 40 139 50.5 145 c 128,-1,3
 61 151 61 151 76 150.5 c 128,-1,4
 91 150 91 150 107.5 149 c 128,-1,5
 124 148 124 148 141 147.5 c 128,-1,6
 158 147 158 147 175 152 c 0,7,8
 201 160 201 160 230 179.5 c 128,-1,9
 259 199 259 199 284.5 224.5 c 128,-1,10
 310 250 310 250 329.5 278.5 c 128,-1,11
 349 307 349 307 358 334 c 1,12,-1
 251 334 l 2,13,14
 241 334 241 334 238 342.5 c 128,-1,15
 235 351 235 351 235 357 c 0,16,17
 235 365 235 365 238 370.5 c 128,-1,18
 241 376 241 376 251 380 c 0,19,20
 257 382 257 382 272 386.5 c 128,-1,21
 287 391 287 391 304.5 396.5 c 128,-1,22
 322 402 322 402 337 406 c 2,23,-1
 358 411 l 1,24,-1
 358 419 l 2,25,26
 358 426 358 426 358 433.5 c 128,-1,27
 358 441 358 441 358 447 c 2,28,-1
 358 456 l 2,29,30
 358 472 358 472 357.5 496 c 128,-1,31
 357 520 357 520 351.5 541.5 c 128,-1,32
 346 563 346 563 333 579 c 128,-1,33
 320 595 320 595 297 595 c 0,34,35
 294 595 294 595 288.5 594.5 c 128,-1,36
 283 594 283 594 282 593 c 0,37,38
 273 590 273 590 251 581.5 c 128,-1,39
 229 573 229 573 205 563.5 c 128,-1,40
 181 554 181 554 159.5 545 c 128,-1,41
 138 536 138 536 130 532 c 1,42,-1
 115 547 l 1,43,44
 127 569 127 569 148 586.5 c 128,-1,45
 169 604 169 604 194.5 616 c 128,-1,46
 220 628 220 628 247 634 c 128,-1,47
 274 640 274 640 300 640 c 0,48,49
 344 640 344 640 369 617.5 c 128,-1,50
 394 595 394 595 407 560.5 c 128,-1,51
 420 526 420 526 425 486 c 128,-1,52
 430 446 430 446 434 411 c 1,53,-1
 662 411 l 1,54,-1
 676 395 l 1,55,-1
 662 380 l 1,56,-1
 434 349 l 2,57,58
 432 349 432 349 426 343.5 c 128,-1,59
 420 338 420 338 418 334 c 0,60,61
 417 331 417 331 413 320 c 128,-1,62
 409 309 409 309 403.5 296 c 128,-1,63
 398 283 398 283 393.5 272 c 128,-1,64
 389 261 389 261 388 259 c 0,65,66
 384 253 384 253 371 242.5 c 128,-1,67
 358 232 358 232 341.5 218.5 c 128,-1,68
 325 205 325 205 305.5 190 c 128,-1,69
 286 175 286 175 270.5 160.5 c 128,-1,70
 255 146 255 146 245 133.5 c 128,-1,71
 235 121 235 121 235 114 c 0,72,73
 235 103 235 103 252 94 c 128,-1,74
 269 85 269 85 295.5 77.5 c 128,-1,75
 322 70 322 70 353.5 63.5 c 128,-1,76
 385 57 385 57 414.5 53 c 128,-1,77
 444 49 444 49 466 46.5 c 128,-1,78
 488 44 488 44 496 44 c 0,79,80
 527 44 527 44 560.5 47.5 c 128,-1,81
 594 51 594 51 627.5 58.5 c 128,-1,82
 661 66 661 66 693 77.5 c 128,-1,83
 725 89 725 89 753 106 c 1,84,85
 753 106 753 106 753.5 103 c 128,-1,86
 754 100 754 100 754 99 c 0,87,88
 754 83 754 83 736.5 69 c 128,-1,89
 719 55 719 55 691.5 44 c 128,-1,90
 664 33 664 33 631 24.5 c 128,-1,91
 598 16 598 16 567 10 c 128,-1,92
 536 4 536 4 510 1 c 128,-1,93
 484 -2 484 -2 472 -2 c 0,94,95
 413 -2 413 -2 358 12 c 128,-1,96
 303 26 303 26 249 42.5 c 128,-1,97
 195 59 195 59 140 73 c 128,-1,98
 85 87 85 87 27 87 c 1,0,1
EndSplineSet
EndChar

StartChar: braceleft
Encoding: 123 123 94
Width: 388
Flags: W
LayerCount: 2
Fore
SplineSet
83 136 m 0,0,1
 83 170 83 170 100 204 c 128,-1,2
 117 238 117 238 137.5 269.5 c 128,-1,3
 158 301 158 301 175 328 c 128,-1,4
 192 355 192 355 192 373 c 0,5,6
 192 375 192 375 191.5 377.5 c 128,-1,7
 191 380 191 380 190 380 c 2,8,-1
 130 411 l 2,9,10
 129 411 129 411 128.5 413.5 c 128,-1,11
 128 416 128 416 128 418 c 0,12,13
 128 429 128 429 142.5 443 c 128,-1,14
 157 457 157 457 175 470.5 c 128,-1,15
 193 484 193 484 211 496.5 c 128,-1,16
 229 509 229 509 235 517 c 1,17,-1
 220 532 l 1,18,-1
 68 563 l 2,19,20
 60 565 60 565 51.5 575.5 c 128,-1,21
 43 586 43 586 37 599 c 128,-1,22
 31 612 31 612 26.5 625 c 128,-1,23
 22 638 22 638 22 646 c 0,24,25
 22 689 22 689 40 727 c 128,-1,26
 58 765 58 765 88.5 793 c 128,-1,27
 119 821 119 821 157.5 837 c 128,-1,28
 196 853 196 853 238 853 c 2,29,-1
 267 853 l 2,30,31
 282 853 282 853 296 850.5 c 128,-1,32
 310 848 310 848 322 841.5 c 128,-1,33
 334 835 334 835 343 821 c 1,34,35
 295 828 295 828 246.5 824 c 128,-1,36
 198 820 198 820 158 802 c 128,-1,37
 118 784 118 784 92.5 749.5 c 128,-1,38
 67 715 67 715 67 658 c 0,39,40
 67 626 67 626 83 609 c 128,-1,41
 99 592 99 592 123.5 583 c 128,-1,42
 148 574 148 574 176 571 c 128,-1,43
 204 568 204 568 228.5 563 c 128,-1,44
 253 558 253 558 269 548 c 128,-1,45
 285 538 285 538 285 517 c 0,46,47
 285 502 285 502 274.5 492.5 c 128,-1,48
 264 483 264 483 251.5 474.5 c 128,-1,49
 239 466 239 466 229 457 c 128,-1,50
 219 448 219 448 219 433 c 0,51,52
 219 423 219 423 226.5 416 c 128,-1,53
 234 409 234 409 243.5 403 c 128,-1,54
 253 397 253 397 260.5 390 c 128,-1,55
 268 383 268 383 268 373 c 0,56,57
 268 371 268 371 257.5 361.5 c 128,-1,58
 247 352 247 352 231 335.5 c 128,-1,59
 215 319 215 319 197 297.5 c 128,-1,60
 179 276 179 276 163.5 249.5 c 128,-1,61
 148 223 148 223 137.5 194 c 128,-1,62
 127 165 127 165 127 134 c 0,63,64
 127 106 127 106 140.5 88 c 128,-1,65
 154 70 154 70 176 59 c 128,-1,66
 198 48 198 48 225.5 44 c 128,-1,67
 253 40 253 40 281 38.5 c 128,-1,68
 309 37 309 37 334 38 c 128,-1,69
 359 39 359 39 376 39 c 1,70,71
 376 24 376 24 364 16 c 128,-1,72
 352 8 352 8 335.5 4.5 c 128,-1,73
 319 1 319 1 301.5 0 c 128,-1,74
 284 -1 284 -1 274 -1 c 0,75,76
 239 -1 239 -1 205 5 c 128,-1,77
 171 11 171 11 144 27 c 128,-1,78
 117 43 117 43 100 69.5 c 128,-1,79
 83 96 83 96 83 136 c 0,0,1
EndSplineSet
EndChar

StartChar: bar
Encoding: 124 124 95
Width: 129
Flags: W
LayerCount: 2
Fore
SplineSet
54 653 m 2,0,1
 55 655 55 655 59.5 657.5 c 128,-1,2
 64 660 64 660 66 660 c 0,3,4
 76 660 76 660 82 655 c 128,-1,5
 88 650 88 650 92 643 c 128,-1,6
 96 636 96 636 97.5 626.5 c 128,-1,7
 99 617 99 617 99 608 c 2,8,-1
 99 31 l 2,9,10
 99 29 99 29 93.5 23 c 128,-1,11
 88 17 88 17 84 15 c 0,12,13
 81 13 81 13 74.5 11 c 128,-1,14
 68 9 68 9 60.5 6.5 c 128,-1,15
 53 4 53 4 46.5 2.5 c 128,-1,16
 40 1 40 1 38 0 c 1,17,-1
 38 577 l 1,18,-1
 54 653 l 2,0,1
EndSplineSet
EndChar

StartChar: braceright
Encoding: 125 125 96
Width: 334
Flags: W
LayerCount: 2
Fore
SplineSet
38 15 m 1,0,1
 40 25 40 25 58 30.5 c 128,-1,2
 76 36 76 36 101.5 41 c 128,-1,3
 127 46 127 46 156 53.5 c 128,-1,4
 185 61 185 61 210 76 c 128,-1,5
 235 91 235 91 251 116 c 128,-1,6
 267 141 267 141 267 182 c 0,7,8
 267 232 267 232 249 265 c 128,-1,9
 231 298 231 298 201 318.5 c 128,-1,10
 171 339 171 339 132.5 349.5 c 128,-1,11
 94 360 94 360 53 364 c 1,12,13
 59 384 59 384 71 399.5 c 128,-1,14
 83 415 83 415 99 425 c 1,15,-1
 7 472 l 1,16,-1
 7 487 l 1,17,18
 46 503 46 503 86.5 525 c 128,-1,19
 127 547 127 547 160 575.5 c 128,-1,20
 193 604 193 604 215 640.5 c 128,-1,21
 237 677 237 677 237 724 c 0,22,23
 237 757 237 757 222 780 c 128,-1,24
 207 803 207 803 182.5 817.5 c 128,-1,25
 158 832 158 832 128 840 c 128,-1,26
 98 848 98 848 68 852 c 1,27,-1
 68 872 l 1,28,29
 111 872 111 872 149.5 864.5 c 128,-1,30
 188 857 188 857 217.5 838.5 c 128,-1,31
 247 820 247 820 264.5 787 c 128,-1,32
 282 754 282 754 282 705 c 0,33,34
 282 674 282 674 269.5 648.5 c 128,-1,35
 257 623 257 623 238.5 602.5 c 128,-1,36
 220 582 220 582 197.5 565 c 128,-1,37
 175 548 175 548 156.5 533 c 128,-1,38
 138 518 138 518 125.5 505 c 128,-1,39
 113 492 113 492 113 478 c 0,40,41
 113 467 113 467 123 464 c 128,-1,42
 133 461 133 461 144.5 459 c 128,-1,43
 156 457 156 457 165.5 452.5 c 128,-1,44
 175 448 175 448 175 433 c 0,45,46
 175 427 175 427 172.5 423 c 128,-1,47
 170 419 170 419 166.5 415 c 128,-1,48
 163 411 163 411 160.5 406 c 128,-1,49
 158 401 158 401 158 394 c 0,50,51
 158 389 158 389 168.5 382 c 128,-1,52
 179 375 179 375 194.5 364 c 128,-1,53
 210 353 210 353 228 337.5 c 128,-1,54
 246 322 246 322 261.5 300.5 c 128,-1,55
 277 279 277 279 287.5 251 c 128,-1,56
 298 223 298 223 298 186 c 0,57,58
 298 145 298 145 285 111 c 128,-1,59
 272 77 272 77 248 52 c 128,-1,60
 224 27 224 27 190.5 13 c 128,-1,61
 157 -1 157 -1 115 -1 c 0,62,63
 104 -1 104 -1 95 0 c 128,-1,64
 86 1 86 1 77.5 2.5 c 128,-1,65
 69 4 69 4 59.5 7 c 128,-1,66
 50 10 50 10 38 15 c 1,0,1
EndSplineSet
EndChar

StartChar: asciitilde
Encoding: 126 126 97
Width: 745
Flags: W
LayerCount: 2
Fore
SplineSet
132 744 m 1,0,1
 132 787 132 787 146.5 808 c 128,-1,2
 161 829 161 829 184.5 835 c 128,-1,3
 208 841 208 841 237.5 833.5 c 128,-1,4
 267 826 267 826 297.5 812.5 c 128,-1,5
 328 799 328 799 356.5 782.5 c 128,-1,6
 385 766 385 766 406 751 c 1,7,8
 455 766 455 766 494.5 772 c 128,-1,9
 534 778 534 778 558.5 778 c 128,-1,10
 583 778 583 778 590.5 771.5 c 128,-1,11
 598 765 598 765 584.5 754.5 c 128,-1,12
 571 744 571 744 533 729.5 c 128,-1,13
 495 715 495 715 428 700 c 1,14,15
 403 701 403 701 376.5 711 c 128,-1,16
 350 721 350 721 323.5 733.5 c 128,-1,17
 297 746 297 746 270 757.5 c 128,-1,18
 243 769 243 769 218.5 773.5 c 128,-1,19
 194 778 194 778 172 772 c 128,-1,20
 150 766 150 766 132 744 c 1,0,1
EndSplineSet
EndChar

StartChar: cent
Encoding: 162 162 99
Width: 571
Flags: W
LayerCount: 2
Fore
SplineSet
270 653 m 2,0,1
 271 655 271 655 275.5 657.5 c 128,-1,2
 280 660 280 660 283 660 c 0,3,4
 292 660 292 660 298.5 655 c 128,-1,5
 305 650 305 650 309 643 c 128,-1,6
 313 636 313 636 314.5 626.5 c 128,-1,7
 316 617 316 617 316 608 c 2,8,-1
 314 534 l 1,9,10
 331 530 331 530 343 521 c 0,11,12
 358 511 358 511 358 492 c 1,13,-1
 313 492 l 1,14,-1
 304 56 l 1,15,16
 335 66 335 66 361 78 c 0,17,18
 393 93 393 93 420.5 110 c 128,-1,19
 448 127 448 127 470.5 141.5 c 128,-1,20
 493 156 493 156 511 165.5 c 128,-1,21
 529 175 529 175 544 175 c 1,22,23
 544 140 544 140 524.5 113 c 128,-1,24
 505 86 505 86 474.5 66.5 c 128,-1,25
 444 47 444 47 405.5 34 c 128,-1,26
 367 21 367 21 327 13 c 0,27,28
 315 11 315 11 304 9 c 1,29,-1
 302 -84 l 2,30,31
 302 -86 302 -86 296.5 -92 c 128,-1,32
 291 -98 291 -98 287 -99 c 1,33,34
 285 -101 285 -101 278.5 -103 c 128,-1,35
 272 -105 272 -105 264.5 -107.5 c 128,-1,36
 257 -110 257 -110 250.5 -112 c 128,-1,37
 244 -114 244 -114 242 -115 c 1,38,-1
 244 1 l 1,39,40
 212 -1 212 -1 189 -1 c 0,41,42
 151 -1 151 -1 119.5 12 c 128,-1,43
 88 25 88 25 66.5 48.5 c 128,-1,44
 45 72 45 72 33 104 c 128,-1,45
 21 136 21 136 21 173 c 0,46,47
 21 204 21 204 27.5 243.5 c 128,-1,48
 34 283 34 283 47.5 323.5 c 128,-1,49
 61 364 61 364 80 403 c 128,-1,50
 99 442 99 442 123.5 472 c 128,-1,51
 148 502 148 502 178 520.5 c 128,-1,52
 208 539 208 539 244 539 c 2,53,-1
 254 539 l 1,54,-1
 255 577 l 1,55,-1
 270 653 l 2,0,1
172 473 m 0,56,57
 158 455 158 455 145 426.5 c 128,-1,58
 132 398 132 398 120.5 363.5 c 128,-1,59
 109 329 109 329 101 297 c 128,-1,60
 93 265 93 265 88 240 c 128,-1,61
 83 215 83 215 83 205 c 0,62,63
 83 171 83 171 91.5 141.5 c 128,-1,64
 100 112 100 112 116.5 90.5 c 128,-1,65
 133 69 133 69 158.5 56.5 c 128,-1,66
 184 44 184 44 219 44 c 0,67,68
 232 44 232 44 245 45 c 1,69,-1
 253 492 l 1,70,-1
 202 492 l 2,71,72
 187 492 187 492 172 473 c 0,56,57
EndSplineSet
EndChar

StartChar: sterling
Encoding: 163 163 100
Width: 724
Flags: W
LayerCount: 2
Fore
SplineSet
5 355 m 1,0,-1
 64 353 l 1,1,2
 62 363 62 363 61 372 c 0,3,4
 53 423 53 423 48 467 c 128,-1,5
 43 511 43 511 44 547.5 c 128,-1,6
 45 584 45 584 54.5 611 c 128,-1,7
 64 638 64 638 85 654 c 0,8,9
 109 671 109 671 142.5 671.5 c 128,-1,10
 176 672 176 672 211 662 c 128,-1,11
 246 652 246 652 278 635.5 c 128,-1,12
 310 619 310 619 329.5 603 c 128,-1,13
 349 587 349 587 353.5 575.5 c 128,-1,14
 358 564 358 564 337 563.5 c 128,-1,15
 316 563 316 563 266.5 577 c 128,-1,16
 217 591 217 591 130 627 c 0,17,18
 119 631 119 631 113.5 625 c 128,-1,19
 108 619 108 619 107 606.5 c 128,-1,20
 106 594 106 594 107.5 576.5 c 128,-1,21
 109 559 109 559 112 541 c 128,-1,22
 115 523 115 523 117.5 507 c 128,-1,23
 120 491 120 491 121 481 c 1,24,25
 121 466 121 466 125.5 436.5 c 128,-1,26
 130 407 130 407 134 370 c 2,27,-1
 136 352 l 1,28,-1
 266 350 l 2,29,30
 276 350 276 350 279.5 342 c 128,-1,31
 283 334 283 334 283 328 c 0,32,33
 283 319 283 319 276.5 312 c 128,-1,34
 270 305 270 305 260 305 c 2,35,-1
 251 305 l 1,36,37
 220 307 220 307 181 310 c 0,38,39
 160 312 160 312 142 313 c 1,40,41
 143 304 143 304 145 293 c 0,42,43
 151 253 151 253 155.5 216.5 c 128,-1,44
 160 180 160 180 163 150.5 c 128,-1,45
 166 121 166 121 166 106 c 1,46,47
 162 94 162 94 168.5 94.5 c 128,-1,48
 175 95 175 95 190 103 c 128,-1,49
 205 111 205 111 230 123 c 128,-1,50
 255 135 255 135 287 145 c 128,-1,51
 319 155 319 155 358.5 161.5 c 128,-1,52
 398 168 398 168 444 164 c 1,53,54
 470 164 470 164 500 147.5 c 128,-1,55
 530 131 530 131 560.5 111 c 128,-1,56
 591 91 591 91 620.5 74.5 c 128,-1,57
 650 58 650 58 676 58 c 0,58,59
 687 58 687 58 693.5 50.5 c 128,-1,60
 700 43 700 43 700 34 c 0,61,62
 700 19 700 19 684 20.5 c 128,-1,63
 668 22 668 22 643.5 31 c 128,-1,64
 619 40 619 40 588.5 55 c 128,-1,65
 558 70 558 70 529 83.5 c 128,-1,66
 500 97 500 97 475.5 107.5 c 128,-1,67
 451 118 451 118 439 118 c 0,68,69
 403 118 403 118 370 104.5 c 128,-1,70
 337 91 337 91 305.5 74.5 c 128,-1,71
 274 58 274 58 241 44.5 c 128,-1,72
 208 31 208 31 173 31 c 0,73,74
 160 31 160 31 147.5 28 c 128,-1,75
 135 25 135 25 122.5 21.5 c 128,-1,76
 110 18 110 18 97.5 15 c 128,-1,77
 85 12 85 12 72 12 c 1,78,79
 72 49 72 49 76 83 c 128,-1,80
 80 117 80 117 91 152 c 1,81,82
 86 211 86 211 77 266 c 0,83,84
 73 294 73 294 69 320 c 1,85,86
 56 321 56 321 46 322 c 2,87,-1
 21 325 l 1,88,-1
 5 355 l 1,0,-1
EndSplineSet
EndChar

StartChar: currency
Encoding: 164 164 101
Width: 579
Flags: W
LayerCount: 2
Fore
SplineSet
117 214 m 1,0,1
 101 227 101 227 95.5 247 c 128,-1,2
 90 267 90 267 90.5 290 c 128,-1,3
 91 313 91 313 96.5 337 c 128,-1,4
 102 361 102 361 109 383 c 128,-1,5
 116 405 116 405 123 423.5 c 128,-1,6
 130 442 130 442 133 453 c 1,7,8
 113 478 113 478 98.5 508.5 c 128,-1,9
 84 539 84 539 79 562 c 1,10,-1
 116 592 l 1,11,-1
 193 487 l 1,12,13
 198 506 198 506 218 518.5 c 128,-1,14
 238 531 238 531 265.5 537 c 128,-1,15
 293 543 293 543 323.5 542 c 128,-1,16
 354 541 354 541 378.5 533.5 c 128,-1,17
 403 526 403 526 419 512 c 128,-1,18
 435 498 435 498 433 478 c 1,19,20
 442 481 442 481 449.5 488 c 128,-1,21
 457 495 457 495 466 503.5 c 128,-1,22
 475 512 475 512 484 520 c 128,-1,23
 493 528 493 528 499 532.5 c 128,-1,24
 505 537 505 537 508 535 c 1,25,-1
 553 478 l 1,26,-1
 485 427 l 1,27,28
 490 408 490 408 493 385.5 c 128,-1,29
 496 363 496 363 495 341 c 128,-1,30
 494 319 494 319 489 299 c 128,-1,31
 484 279 484 279 475 266 c 0,32,33
 472 261 472 261 482.5 249.5 c 128,-1,34
 493 238 493 238 506.5 225.5 c 128,-1,35
 520 213 520 213 533 202 c 128,-1,36
 546 191 546 191 547 187 c 1,37,-1
 485 139 l 1,38,-1
 430 208 l 1,39,40
 401 177 401 177 370.5 164 c 128,-1,41
 340 151 340 151 311 149 c 128,-1,42
 282 147 282 147 256.5 153.5 c 128,-1,43
 231 160 231 160 212 167.5 c 128,-1,44
 193 175 193 175 181 180 c 128,-1,45
 169 185 169 185 168 181 c 256,46,47
 167 177 167 177 156 164.5 c 128,-1,48
 145 152 145 152 133.5 138.5 c 128,-1,49
 122 125 122 125 113 115 c 0,50,51
 108 109 108 109 106 107 c 1,52,-1
 68 148 l 1,53,-1
 117 214 l 1,0,1
427 347 m 0,54,55
 427 369 427 369 422.5 386 c 128,-1,56
 418 403 418 403 409 417.5 c 128,-1,57
 400 432 400 432 384.5 444.5 c 128,-1,58
 369 457 369 457 346 469 c 1,59,60
 313 470 313 470 278.5 456 c 128,-1,61
 244 442 244 442 216 416.5 c 128,-1,62
 188 391 188 391 171.5 357 c 128,-1,63
 155 323 155 323 158 285 c 1,64,65
 158 262 158 262 170 244 c 128,-1,66
 182 226 182 226 209 213 c 1,67,68
 212 213 212 213 219 212.5 c 128,-1,69
 226 212 226 212 234.5 212 c 128,-1,70
 243 212 243 212 250 211.5 c 128,-1,71
 257 211 257 211 260 211 c 0,72,73
 343 211 343 211 385 248 c 128,-1,74
 427 285 427 285 427 347 c 0,54,55
EndSplineSet
EndChar

StartChar: yen
Encoding: 165 165 102
Width: 509
Flags: W
LayerCount: 2
Fore
SplineSet
352 269 m 1,0,-1
 203 269 l 1,1,2
 205 241 205 241 207 214 c 0,3,4
 211 161 211 161 214 107.5 c 128,-1,5
 217 54 217 54 217 0 c 1,6,-1
 183 0 l 2,7,8
 178 0 178 0 174.5 27.5 c 128,-1,9
 171 55 171 55 167.5 98.5 c 128,-1,10
 164 142 164 142 160 193 c 1,11,12
 158 232 158 232 155 269 c 1,13,-1
 33 269 l 1,14,15
 34 273 34 273 40 278.5 c 128,-1,16
 46 284 46 284 49 285 c 0,17,18
 53 286 53 286 64 288.5 c 128,-1,19
 75 291 75 291 87 293 c 128,-1,20
 99 295 99 295 110 297 c 128,-1,21
 121 299 121 299 124 299 c 0,22,23
 133 300 133 300 151 300 c 2,24,-1
 153 300 l 1,25,26
 151 325 151 325 148 348 c 1,27,-1
 38 348 l 1,28,-1
 23 363 l 1,29,-1
 68 378 l 1,30,-1
 145 378 l 1,31,32
 141 412 141 412 136 425 c 0,33,34
 135 430 135 430 128 445.5 c 128,-1,35
 121 461 121 461 112 481.5 c 128,-1,36
 103 502 103 502 92 524.5 c 128,-1,37
 81 547 81 547 71.5 567.5 c 128,-1,38
 62 588 62 588 55 603 c 128,-1,39
 48 618 48 618 46 623 c 0,40,41
 42 631 42 631 36.5 641.5 c 128,-1,42
 31 652 31 652 26 663.5 c 128,-1,43
 21 675 21 675 17 686 c 128,-1,44
 13 697 13 697 13 707 c 0,45,46
 13 714 13 714 14 720.5 c 128,-1,47
 15 727 15 727 17 733 c 128,-1,48
 19 739 19 739 24 742 c 128,-1,49
 29 745 29 745 38 745 c 0,50,51
 46 745 46 745 51.5 742 c 128,-1,52
 57 739 57 739 61 730 c 2,53,-1
 152 532 l 1,54,-1
 183 532 l 1,55,56
 189 540 189 540 203 555.5 c 128,-1,57
 217 571 217 571 235 590.5 c 128,-1,58
 253 610 253 610 272.5 631.5 c 128,-1,59
 292 653 292 653 310 672.5 c 128,-1,60
 328 692 328 692 343 707 c 128,-1,61
 358 722 358 722 364 730 c 1,62,63
 371 736 371 736 382.5 747.5 c 128,-1,64
 394 759 394 759 409 770.5 c 128,-1,65
 424 782 424 782 440.5 790.5 c 128,-1,66
 457 799 457 799 472 799 c 1,67,-1
 472 760 l 1,68,-1
 228 502 l 2,69,70
 208 481 208 481 202.5 465 c 128,-1,71
 197 449 197 449 197 427 c 2,72,-1
 197 378 l 1,73,-1
 379 378 l 1,74,75
 379 371 379 371 375 366 c 128,-1,76
 371 361 371 361 365.5 356.5 c 128,-1,77
 360 352 360 352 354 350 c 128,-1,78
 348 348 348 348 343 348 c 2,79,-1
 199 348 l 1,80,-1
 200 321 l 2,81,82
 200 311 200 311 201 301 c 1,83,84
 219 302 219 302 238 303 c 0,85,86
 263 304 263 304 285.5 304 c 128,-1,87
 308 304 308 304 325.5 304.5 c 128,-1,88
 343 305 343 305 352 305 c 1,89,-1
 352 269 l 1,0,-1
EndSplineSet
EndChar

StartChar: brokenbar
Encoding: 166 166 103
Width: 142
Flags: W
LayerCount: 2
Fore
SplineSet
100 278 m 1,0,1
 103 237 103 237 102.5 200 c 128,-1,2
 102 163 102 163 101 128.5 c 128,-1,3
 100 94 100 94 99 61 c 128,-1,4
 98 28 98 28 98 -6 c 1,5,6
 65 -6 65 -6 61 31 c 0,7,8
 59 43 59 43 57.5 66.5 c 128,-1,9
 56 90 56 90 54.5 121.5 c 128,-1,10
 53 153 53 153 51.5 191 c 128,-1,11
 50 229 50 229 49 271 c 1,12,-1
 100 278 l 1,0,1
49 304 m 1,13,14
 47 334 47 334 46.5 362 c 128,-1,15
 46 390 46 390 44.5 413 c 128,-1,16
 43 436 43 436 42.5 453.5 c 128,-1,17
 42 471 42 471 41 480 c 1,18,-1
 41 486 l 2,19,20
 41 491 41 491 40.5 497.5 c 128,-1,21
 40 504 40 504 40 510 c 2,22,-1
 40 520 l 2,23,24
 40 523 40 523 39.5 531.5 c 128,-1,25
 39 540 39 540 40 548 c 128,-1,26
 41 556 41 556 44.5 562.5 c 128,-1,27
 48 569 48 569 57 571 c 1,28,29
 58 568 58 568 60.5 562 c 128,-1,30
 63 556 63 556 65 548.5 c 128,-1,31
 67 541 67 541 69 534.5 c 128,-1,32
 71 528 71 528 72 525 c 0,33,34
 80 478 80 478 84.5 423.5 c 128,-1,35
 89 369 89 369 92 311 c 1,36,-1
 49 304 l 1,13,14
EndSplineSet
EndChar

StartChar: section
Encoding: 167 167 104
Width: 544
Flags: W
LayerCount: 2
Fore
SplineSet
51 -42 m 0,0,1
 50 -38 50 -38 49.5 -27.5 c 128,-1,2
 49 -17 49 -17 49 -14 c 0,3,4
 49 -10 49 -10 50.5 -1.5 c 128,-1,5
 52 7 52 7 55.5 16 c 128,-1,6
 59 25 59 25 63 32.5 c 128,-1,7
 67 40 67 40 73 42 c 1,8,9
 73 12 73 12 88.5 -17.5 c 128,-1,10
 104 -47 104 -47 127 -70.5 c 128,-1,11
 150 -94 150 -94 177 -108.5 c 128,-1,12
 204 -123 204 -123 226 -123 c 0,13,14
 256 -123 256 -123 285 -114 c 128,-1,15
 314 -105 314 -105 337 -86 c 128,-1,16
 360 -67 360 -67 374 -37.5 c 128,-1,17
 388 -8 388 -8 388 31 c 0,18,19
 388 49 388 49 381 65 c 1,20,21
 309 37 309 37 260 41 c 128,-1,22
 211 45 211 45 181 72.5 c 128,-1,23
 151 100 151 100 136 148 c 128,-1,24
 121 196 121 196 115 257 c 1,25,26
 115 291 115 291 132.5 314.5 c 128,-1,27
 150 338 150 338 175 353 c 128,-1,28
 200 368 200 368 228 375 c 128,-1,29
 256 382 256 382 279 384 c 1,30,31
 259 391 259 391 239.5 401.5 c 128,-1,32
 220 412 220 412 203.5 425 c 128,-1,33
 187 438 187 438 176.5 455 c 128,-1,34
 166 472 166 472 166 492 c 0,35,36
 166 528 166 528 189 554 c 128,-1,37
 212 580 212 580 244.5 597 c 128,-1,38
 277 614 277 614 310.5 622.5 c 128,-1,39
 344 631 344 631 366 631 c 0,40,41
 384 631 384 631 397.5 627.5 c 128,-1,42
 411 624 411 624 421.5 615.5 c 128,-1,43
 432 607 432 607 440 592 c 128,-1,44
 448 577 448 577 456 553 c 1,45,46
 453 545 453 545 449 542 c 128,-1,47
 445 539 445 539 439 539 c 0,48,49
 430 539 430 539 424 548 c 128,-1,50
 418 557 418 557 412 568 c 1,51,52
 409 568 409 568 401.5 568.5 c 128,-1,53
 394 569 394 569 386.5 569.5 c 128,-1,54
 379 570 379 570 371.5 570.5 c 128,-1,55
 364 571 364 571 361 571 c 0,56,57
 346 571 346 571 322 568 c 128,-1,58
 298 565 298 565 275.5 555.5 c 128,-1,59
 253 546 253 546 236.5 528.5 c 128,-1,60
 220 511 220 511 220 483 c 0,61,62
 220 468 220 468 224.5 458 c 128,-1,63
 229 448 229 448 243 439 c 1,64,65
 251 437 251 437 272 429.5 c 128,-1,66
 293 422 293 422 316.5 413 c 128,-1,67
 340 404 340 404 360 396 c 128,-1,68
 380 388 380 388 388 383 c 1,69,70
 409 373 409 373 429 364 c 128,-1,71
 449 355 449 355 465 341 c 128,-1,72
 481 327 481 327 491.5 306.5 c 128,-1,73
 502 286 502 286 502 256 c 0,74,75
 502 203 502 203 477.5 160.5 c 128,-1,76
 453 118 453 118 417 88 c 1,77,78
 424 77 424 77 428.5 62.5 c 128,-1,79
 433 48 433 48 433 28 c 0,80,81
 433 -18 433 -18 413.5 -57.5 c 128,-1,82
 394 -97 394 -97 364 -125 c 128,-1,83
 334 -153 334 -153 298 -169 c 128,-1,84
 262 -185 262 -185 229 -185 c 0,85,86
 199 -185 199 -185 173.5 -174 c 128,-1,87
 148 -163 148 -163 126.5 -144 c 128,-1,88
 105 -125 105 -125 86 -99 c 128,-1,89
 67 -73 67 -73 51 -42 c 0,0,1
440 239 m 0,90,91
 440 274 440 274 424.5 292.5 c 128,-1,92
 409 311 409 311 386.5 319.5 c 128,-1,93
 364 328 364 328 338.5 329.5 c 128,-1,94
 313 331 313 331 295 333 c 1,95,96
 280 333 280 333 256.5 329.5 c 128,-1,97
 233 326 233 326 211.5 316.5 c 128,-1,98
 190 307 190 307 174 289 c 128,-1,99
 158 271 158 271 158 243 c 0,100,101
 158 197 158 197 172 168 c 128,-1,102
 186 139 186 139 207.5 122.5 c 128,-1,103
 229 106 229 106 256 101 c 128,-1,104
 283 96 283 96 308.5 97 c 128,-1,105
 334 98 334 98 356 105 c 128,-1,106
 378 112 378 112 389 119 c 0,107,108
 404 130 404 130 414 141.5 c 128,-1,109
 424 153 424 153 430 167 c 128,-1,110
 436 181 436 181 438 198.5 c 128,-1,111
 440 216 440 216 440 239 c 0,90,91
EndSplineSet
EndChar

StartChar: dieresis
Encoding: 168 168 105
Width: 640
Flags: W
LayerCount: 2
Fore
SplineSet
349 580 m 1,0,1
 349 591 349 591 353.5 598.5 c 128,-1,2
 358 606 358 606 365.5 610.5 c 128,-1,3
 373 615 373 615 382 617 c 128,-1,4
 391 619 391 619 399 619 c 1,5,-1
 399 610 l 2,6,7
 399 601 399 601 397.5 591 c 128,-1,8
 396 581 396 581 392 573 c 128,-1,9
 388 565 388 565 380 565 c 0,10,11
 378 565 378 565 373.5 566.5 c 128,-1,12
 369 568 369 568 364 570.5 c 128,-1,13
 359 573 359 573 355 575.5 c 128,-1,14
 351 578 351 578 349 580 c 1,0,1
250 580 m 1,15,16
 250 591 250 591 254.5 598.5 c 128,-1,17
 259 606 259 606 266.5 610.5 c 128,-1,18
 274 615 274 615 283 617 c 128,-1,19
 292 619 292 619 300 619 c 1,20,-1
 300 610 l 2,21,22
 300 601 300 601 298 591 c 128,-1,23
 296 581 296 581 292.5 573 c 128,-1,24
 289 565 289 565 281 565 c 0,25,26
 279 565 279 565 274.5 566.5 c 128,-1,27
 270 568 270 568 265 570.5 c 128,-1,28
 260 573 260 573 256 575.5 c 128,-1,29
 252 578 252 578 250 580 c 1,15,16
EndSplineSet
EndChar

